<svg xmlns="http://www.w3.org/2000/svg" viewBox="0 0 455.37 512"><title>Asset 1</title><g id="Layer_2" data-name="Layer 2"><g id="Capa_1" data-name="Capa 1"><path d="M127.9,211.83a189,189,0,0,1,13.17-29.55c18.31-33.07,47.05-60.54,82.12-75.14,36-15,74.15-13.06,110.9-2.21,35.1,10.35,65,34.17,85.83,63.93,22.48,32.12,34.67,71,35.41,110.17,1.75,92.34-50.49,183.65-125.29,218.29-15.52,7.18-34.77,11.18-51.28,13.89-5.05.84-13.9.86-20.52.73a47.1,47.1,0,0,1-16.74-3.44c-6.25-2.51-14.53-6.05-19-8.83-14.64-9.11-31.47-20.51-43.82-33.41C119.13,404.05,98.06,297.7,127.9,211.83Z" fill="#fe9738"/><path d="M330,497.32c-15.52,7.19-34.77,11.18-51.28,13.89-5.05.83-13.9.85-20.52.73a42,42,0,0,1-4.63-.33c1.26-.1,2.41-.23,3.42-.4,16.51-2.71,35.76-6.7,51.28-13.89,74.8-34.64,127-125.95,125.29-218.29-.74-39.14-12.93-78-35.41-110.17-20.83-29.76-50.73-53.58-85.83-63.93a204.35,204.35,0,0,0-44.47-8.21c22.05-1.52,44.38,1.77,66.2,8.21,35.1,10.35,65,34.17,85.83,63.93,22.47,32.12,34.67,71,35.41,110.17,1.75,92.34-50.49,183.65-125.29,218.29Z" fill="#fe860a"/><path d="M302.56,106.76a84.34,84.34,0,0,0,22.33-17.55A69.58,69.58,0,0,0,343.13,50a4.14,4.14,0,0,0-2-4,69.45,69.45,0,0,0-41.81-8.56c-11.79,1.17-24,4.55-33.9,11.37-15.72,10.86-28.48,27-32.53,46.08-.61,2.88-2.41,10.49,1,12.33a65.4,65.4,0,0,0,11.39,4.87C263.69,118,285.36,115.91,302.56,106.76Z" fill="#00c27a"/><path d="M343.14,50a69.66,69.66,0,0,1-18.25,39.19,83.93,83.93,0,0,1-22.33,17.55c-17.2,9.15-38.87,11.25-57.34,5.32a66.27,66.27,0,0,1-11.4-4.87,4.1,4.1,0,0,1-2.12-3.94c.1-1.27.2-2.6.24-2.91,0-.14,0-.28.06-.42a76.06,76.06,0,0,0,55.59-5.86,83.89,83.89,0,0,0,22.32-17.54,70,70,0,0,0,17.88-36.35A64.55,64.55,0,0,1,341.1,46,4.16,4.16,0,0,1,343.14,50Z" fill="#08b865"/><path d="M209.24,117.66c-2.67-18.29-6.26-67.8-2.91-98.14A21.83,21.83,0,0,1,234.47,1l.57.18a21.79,21.79,0,0,1,15,24.63c-3.36,19.11-7.73,64.77-8,89.63a16.48,16.48,0,0,1-32.78,2.23Z" fill="#d77f4a"/><path d="M250.06,25.8c-3.36,19.12-7.73,64.76-8,89.63a16.48,16.48,0,0,1-26.63,12.83,16.52,16.52,0,0,0,6.32-12.84c.31-24.86,4.68-70.5,8-89.62A21.8,21.8,0,0,0,218,2.47,21.51,21.51,0,0,1,234.47,1l.57.17a21.8,21.8,0,0,1,15,24.64Z" fill="#c86d36"/><path d="M327.47,211.83a189,189,0,0,0-13.17-29.55c-18.31-33.07-47.05-60.54-82.12-75.14-36-15-74.15-13.06-110.9-2.21-35.1,10.35-65,34.17-85.83,63.93C13,201,.78,239.89,0,279c-1.75,92.34,50.49,183.65,125.29,218.29,15.52,7.18,34.77,11.18,51.28,13.89,5,.84,13.9.86,20.52.73a47.1,47.1,0,0,0,16.74-3.44c6.25-2.51,14.53-6.05,19-8.83,14.64-9.11,31.47-20.51,43.82-33.41,59.54-62.21,80.61-168.56,50.77-254.43Z" fill="#fe9738"/><path d="M276.71,466.26c-12.35,12.9-29.18,24.3-43.83,33.4-4.48,2.8-12.76,6.33-19,8.84a47.58,47.58,0,0,1-16.74,3.44c-6.63.13-15.46.1-20.52-.73-4.77-.79-9.76-1.67-14.84-2.72,4.61.25,10,.24,14.41.15a47.37,47.37,0,0,0,16.75-3.44c6.25-2.51,14.52-6.05,19-8.84,14.64-9.11,31.47-20.5,43.82-33.4,59.54-62.21,80.61-168.56,50.77-254.43C286.19,150,240.35,108.62,188.15,96.37c60.61,4.94,116.31,49.21,139.32,115.47,29.84,85.86,8.77,192.2-50.76,254.42Z" fill="#fe860a"/></g></g></svg>