<svg xmlns="http://www.w3.org/2000/svg" viewBox="0 0 491.4 512"><title>Asset 2</title><g id="Layer_2" data-name="Layer 2"><g id="Layer_1-2" data-name="Layer 1"><path d="M213.71,76.48c-6.63-61.8-45.57-72.85-45.57-72.85L138.46,26.25s48.28,17.54,55.17,74.2" fill="#ad7136"/><circle cx="131.95" cy="133.11" r="72.35" fill="#654b87"/><path d="M150.64,203a72.35,72.35,0,1,1,0-139.82,72.37,72.37,0,0,0,0,139.82Z" fill="#463068"/><circle cx="255.31" cy="133.11" r="72.35" fill="#654b87"/><path d="M274,203a72.35,72.35,0,1,1,0-139.82A72.37,72.37,0,0,0,274,203Z" fill="#463068"/><circle cx="193.63" cy="439.65" r="72.35" fill="#654b87"/><path d="M158.65,439.65a72.37,72.37,0,0,0,53.66,69.9l-.11,0A72.36,72.36,0,1,1,266,439.65C228,385.88,158.65,418.73,158.65,439.65Z" fill="#463068"/><path d="M205.34,335.59A72.35,72.35,0,1,1,133,263.25,72.39,72.39,0,0,1,205.34,335.59Z" fill="#654b87"/><path d="M98,335.59a72.36,72.36,0,0,0,53.66,69.91l-.12,0a72.36,72.36,0,1,1,53.78-70C167.41,281.83,98,314.68,98,335.59Z" fill="#463068"/><circle cx="254.27" cy="335.6" r="72.35" fill="#654b87"/><path d="M219.29,335.59A72.37,72.37,0,0,0,273,405.5l-.11,0a72.36,72.36,0,1,1,53.77-70C288.68,281.83,219.29,314.68,219.29,335.59Z" fill="#463068"/><circle cx="72.35" cy="231.54" r="72.35" fill="#654b87"/><path d="M91,301.45a72.35,72.35,0,1,1,0-139.82,72.37,72.37,0,0,0,0,139.82Z" fill="#463068"/><circle cx="193.63" cy="231.54" r="72.35" fill="#463068"/><circle cx="314.91" cy="231.54" r="72.35" fill="#463068"/><path d="M410.07,158.72s49,58.91,23.9,132.85C360,316.71,301.13,267.66,301.13,267.66c0,45.85-34,81.33-34,81.33C178.39,286.89,208,210,208,210c-38.94,26.13-64.59,9.36-64.59,9.36-7.54-74.58,30-103.93,60.13-115.47a113.13,113.13,0,0,1,35.26-7.5S240-11.33,361.76,1c0,0,16.76,25.65-9.36,64.59,0,0,76.9-29.58,139,59.15C491.4,124.72,455.9,158.72,410.07,158.72Z" fill="#70d65b"/><path d="M434,291.56c25.14-73.92-23.91-132.83-23.91-132.83,45.85,0,81.33-34,81.33-34-62.1-88.72-139-59.14-139-59.14C378.53,26.63,361.75,1,361.75,1c-74.58-7.54-103.93,30-115.47,60.13,0,34,26,26,26,26C263.75,121.58,313.88,125,313.88,125,294.28,155.45,388.8,267.26,434,291.56Z" fill="#58b741"/><path d="M375.54,113.16c-45.81-9.15-78,9.18-90.65,18.34l-17.05-17c3.5-10.68,15.59-40.15,45.91-54.2a7.76,7.76,0,0,0-6.53-14.09c-30.48,14.13-45.17,40.46-51.52,56.16L214.27,60.88a7.76,7.76,0,0,0-11,11l41.43,41.44c-15.7,6.34-42,21-56.15,51.51a7.76,7.76,0,1,0,14.09,6.53c14.05-30.32,43.52-42.41,54.2-45.91l17.05,17.06c-9.16,12.64-27.49,44.83-18.35,90.64a7.77,7.77,0,0,0,7.61,6.25,7.93,7.93,0,0,0,1.53-.15,7.77,7.77,0,0,0,6.09-9.14c-7.56-37.9,6.31-64.82,14.25-76.47L345.38,214a7.76,7.76,0,0,0,11-11l-60.3-60.31c11.69-7.88,38.78-21.8,76.44-14.28a7.77,7.77,0,0,0,3-15.23Z" fill="#4aa032"/></g></g></svg>