<svg xmlns="http://www.w3.org/2000/svg" viewBox="0 0 405.17 512"><title>Asset 2</title><g id="Layer_2" data-name="Layer 2"><g id="Layer_1-2" data-name="Layer 1"><path d="M123.79,60.7c-2.48-13.16-5.27-25.13-8.33-35.68a34.82,34.82,0,0,0-66.82,0C36,68.48,27.92,136,27.92,211.8c0,18.51.49,36.53,1.4,53.83l4.11,2.29h81.39l12.7-201.57Z" fill="#ffaa5b"/><path d="M63.37,211.8C63.37,136,71.47,68.48,84.09,25A34.64,34.64,0,0,1,99.77,4.84,34.83,34.83,0,0,0,48.64,25C36,68.48,27.92,136,27.92,211.8c0,18.51.49,36.53,1.4,53.83l4.11,2.29H68.88l-4.12-2.29c-.91-17.3-1.39-35.32-1.39-53.83Z" fill="#ff9838"/><path d="M57.8,122.48a7.73,7.73,0,1,1,4.7-14.72c9.68,3.09,29.41,3.09,39.1,0a7.72,7.72,0,0,1,4.69,14.72C93.6,126.53,70.49,126.53,57.8,122.48Z" fill="#ffba7e"/><path d="M63.14,86.67a7.73,7.73,0,0,1,4.7-14.73c6.9,2.21,21.51,2.21,28.42,0A7.73,7.73,0,0,1,101,86.67C91.06,89.82,73,89.82,63.14,86.67Z" fill="#ffba7e"/><path d="M54.87,158.6a7.73,7.73,0,1,1,4.7-14.72c11.14,3.55,33.82,3.55,45,0a7.72,7.72,0,1,1,4.69,14.72C95,163.14,69.1,163.14,54.87,158.6Z" fill="#ffba7e"/><path d="M54.87,194.9a7.73,7.73,0,1,1,4.7-14.72c11.14,3.55,33.82,3.55,45,0a7.72,7.72,0,1,1,4.69,14.72C95,199.44,69.1,199.44,54.87,194.9Z" fill="#ffba7e"/><path d="M54.87,231.2a7.73,7.73,0,1,1,4.7-14.72c11.14,3.55,33.82,3.55,45,0a7.72,7.72,0,1,1,4.69,14.72C95,235.73,69.1,235.74,54.87,231.2Z" fill="#ffba7e"/><path d="M198.93,25a34.81,34.81,0,0,0-66.81,0C119.51,68.48,111.4,136,111.4,211.8c0,18.51.49,36.53,1.4,53.83l3,5h42.24L217.4,152.75v-9C214.16,96.21,207.61,54.92,198.93,25Z" fill="#ffba7e"/><path d="M146.85,211.8C146.85,136,155,68.48,167.57,25A34.64,34.64,0,0,1,183.25,4.84,34.83,34.83,0,0,0,132.12,25C119.51,68.48,111.4,136,111.4,211.8c0,18.51.49,36.53,1.4,53.83l3,5h35.44l-3-5c-.91-17.3-1.39-35.32-1.39-53.83Z" fill="#ffaa5b"/><path d="M141.28,122.48a7.73,7.73,0,1,1,4.7-14.72c9.68,3.09,29.41,3.09,39.1,0a7.72,7.72,0,1,1,4.69,14.72c-12.68,4-35.8,4-48.49,0Z" fill="#ffcb9e"/><path d="M146.62,86.67a7.73,7.73,0,0,1,4.7-14.73c6.9,2.21,21.52,2.21,28.42,0a7.73,7.73,0,0,1,4.7,14.73c-9.89,3.15-27.92,3.15-37.82,0Z" fill="#ffcb9e"/><path d="M138.35,158.6a7.73,7.73,0,1,1,4.7-14.72c11.13,3.55,33.82,3.55,45,0a7.72,7.72,0,0,1,4.69,14.72c-14.22,4.54-40.12,4.54-54.35,0Z" fill="#ffcb9e"/><path d="M138.35,194.9a7.73,7.73,0,0,1,4.7-14.72c11.13,3.55,33.82,3.55,45,0a7.72,7.72,0,0,1,4.69,14.72c-14.22,4.54-40.12,4.54-54.35,0Z" fill="#ffcb9e"/><path d="M138.35,231.2a7.73,7.73,0,0,1,4.7-14.72c6.26,2,17.07,3,27.54,2.54a7.73,7.73,0,1,1,.66,15.44c-10.1.44-23.38-.23-32.9-3.26Z" fill="#ffcb9e"/><path d="M320.18,116.28c.12-.7.24-1.41.35-2.1a34.81,34.81,0,0,0-60.42-28.51c-41.39,46.88-82,122.71-107.55,180l7.93,5h80.09L321,123Z" fill="#ffaa5b"/><path d="M295.55,85.67a34.69,34.69,0,0,1,8.3-6.86c-.92-.54-1.87-1.06-2.86-1.52a34.77,34.77,0,0,0-40.89,8.38c-41.38,46.88-82,122.71-107.54,180l7.93,5h35.44l-7.93-5c25.56-57.25,66.16-133.08,107.55-180Z" fill="#ff9838"/><path d="M255.17,155.62a7.73,7.73,0,0,0,3.73-15c-7.48-1.86-19.85-8.72-28.16-15.62-.2-.17-.41-.32-.62-.47q-4.35,6.32-8.63,12.86c10.13,8.25,24.16,15.86,33.68,18.23Z" fill="#ffba7e"/><path d="M269.42,122.32a7.72,7.72,0,0,0,3.73-15c-5.56-1.38-15-6.69-21-11.83l-.21-.17c-3.19,3.91-6.37,8-9.53,12.17,6.85,5.76,18.22,12.64,27,14.82Z" fill="#ffba7e"/><path d="M248.07,182.26a7.72,7.72,0,0,0-5.63-9.36c-8.3-2.06-21.77-9.41-31.34-17.1a8.19,8.19,0,0,0-.86-.59q-4,6.6-8,13.31c11.34,8.92,26.17,16.83,36.42,19.38a7.72,7.72,0,0,0,9.36-5.64Z" fill="#ffba7e"/><path d="M219.67,218.8a7.73,7.73,0,1,0,3.72-15c-8-2-20.86-8.9-30.46-16.4a6.48,6.48,0,0,0-1-.66q-3.78,6.82-7.43,13.66c9.56,7.27,23.8,15.57,35.18,18.4Z" fill="#ffba7e"/><path d="M200.62,249.7a7.73,7.73,0,0,0,3.73-15c-7.42-1.84-19.14-8-28.5-14.91a7.35,7.35,0,0,0-1.1-.67q-3.57,7-6.94,13.93C178.73,240.94,191.48,247.43,200.62,249.7Z" fill="#ffba7e"/><path d="M385.2,77.29a34.77,34.77,0,0,0-40.89,8.38c-29.95,33.92-66.08,91.52-98.43,160.08q-4.71,10-9.12,19.88l3.82,5H349l6.75-5c25.67-58.58,42.76-112.54,49-151.45A34.76,34.76,0,0,0,385.2,77.29Z" fill="#ffba7e"/><path d="M385.2,77.29a34.77,34.77,0,0,0-40.89,8.38c-29.95,33.92-66.08,91.52-98.43,160.08q-4.71,10-9.12,19.88l3.82,5H349l6.75-5c25.67-58.58,42.76-112.54,49-151.45A34.76,34.76,0,0,0,385.2,77.29Z" fill="#ffba7e"/><path d="M281.33,245.75c32.34-68.56,68.47-126.16,98.42-160.08a34.69,34.69,0,0,1,8.3-6.86c-.92-.54-1.87-1-2.85-1.52a34.77,34.77,0,0,0-40.89,8.38c-29.95,33.92-66.08,91.52-98.43,160.08q-4.71,10-9.12,19.88l3.82,5H276l-3.81-5q4.4-9.87,9.12-19.88Z" fill="#ffaa5b"/><path d="M364.93,302.29l-6-3.86H18.19l-6.67,3.86S1,409.45,62.19,494.39A42.25,42.25,0,0,0,96.43,512H280a42.25,42.25,0,0,0,34.24-17.61c61.22-84.94,50.67-192.1,50.67-192.1Z" fill="#477b9e"/><path d="M117.1,494.39c-61.23-84.94-50.68-192.1-50.68-192.1l6.67-3.86H18.19l-6.67,3.86S1,409.45,62.2,494.39A42.22,42.22,0,0,0,96.43,512h54.9a42.22,42.22,0,0,1-34.23-17.61Z" fill="#3f6d8e"/><path d="M343.1,140.62c-7.48-1.86-19.85-8.72-28.16-15.62-.19-.16-.39-.3-.59-.44q-4.28,6.21-8.63,12.85c10.13,8.24,24.15,15.84,33.65,18.2a7.72,7.72,0,1,0,3.73-15Z" fill="#ffcb9e"/><path d="M363,116.69a7.74,7.74,0,0,0-5.64-9.36c-5.56-1.38-15-6.69-21-11.83l-.2-.16q-4.68,5.76-9.52,12.17c6.85,5.76,18.21,12.63,27,14.81a7.73,7.73,0,0,0,9.37-5.63Z" fill="#ffcb9e"/><path d="M322.92,187.9a7.73,7.73,0,1,0,3.72-15c-8.29-2.06-21.77-9.41-31.34-17.1a6.62,6.62,0,0,0-.84-.58q-4,6.5-8,13.3c11.35,8.92,26.18,16.83,36.44,19.38Z" fill="#ffcb9e"/><path d="M303.87,218.8a7.73,7.73,0,0,0,3.73-15c-8.06-2-20.87-8.9-30.47-16.4a8.32,8.32,0,0,0-1-.68q-3.74,6.71-7.43,13.65C278.22,207.65,292.48,216,303.87,218.8Z" fill="#ffcb9e"/><path d="M284.83,249.7a7.73,7.73,0,1,0,3.72-15c-7.41-1.84-19.13-8-28.49-14.91a8.44,8.44,0,0,0-1.14-.69Q255.44,226,252,233C262.92,240.93,275.67,247.43,284.83,249.7Z" fill="#ffcb9e"/><path d="M339,298.43l-19.9,53.47L300.92,303l1.69-4.55H282.73l1.7,4.55L266.22,351.9,248,303l1.69-4.55H229.82l1.7,4.55L213.31,351.9,195.1,303l1.69-4.55H176.91l1.7,4.55L160.4,351.9,142.19,303l1.69-4.55H124L125.7,303,107.49,351.9,89.28,303l1.7-4.55H71.1L72.79,303,54.58,351.9l-19.9-53.47H18.19l28.15,75.62-19,51.12c2.41,7.25,5.17,14.59,8.32,21.93l18.95-50.9,18.21,48.92-15.63,42q2.43,3.67,5,7.29a42.12,42.12,0,0,0,6.19,6.85l12.65-34L97.69,512h19.6l16.65-44.74L150.6,512h19.6l16.65-44.74L203.51,512h19.6l16.65-44.74L256.42,512H276l16.65-44.74L306,503a42.58,42.58,0,0,0,8.28-8.61c1.11-1.54,2.2-3.1,3.26-4.66l-16.6-44.61,18.21-48.92,20.21,54.29c3.19-7.17,6-14.35,8.49-21.47l-20.46-55,28.15-75.62ZM62.82,374.05,81,325.13l18.21,48.92L81,423Zm44.67,120L89.28,445.12l18.21-48.92,18.21,48.92Zm8.24-120,18.21-48.92,18.21,48.92L133.94,423ZM160.4,494l-18.21-48.92L160.4,396.2l18.21,48.92Zm8.24-120,18.21-48.92,18.21,48.92L186.85,423Zm44.67,120L195.1,445.12l18.21-48.92,18.21,48.92Zm8.24-120,18.21-48.92L258,374.05,239.76,423Zm44.67,120L248,445.12l18.21-48.92,18.21,48.92ZM292.67,423l-18.21-48.92,18.21-48.92,18.21,48.92Z" fill="#3f6d8e"/><path d="M364.93,265.63H11.52A11.52,11.52,0,0,0,0,277.15v13.62a11.52,11.52,0,0,0,11.52,11.52H364.93a11.52,11.52,0,0,0,11.52-11.52V277.15A11.52,11.52,0,0,0,364.93,265.63Z" fill="#5895b7"/><path d="M60.08,290.77V277.15A11.52,11.52,0,0,1,71.6,265.63H11.52A11.52,11.52,0,0,0,0,277.15v13.62a11.52,11.52,0,0,0,11.52,11.52H71.6A11.52,11.52,0,0,1,60.08,290.77Z" fill="#477b9e"/></g></g></svg>