<svg xmlns="http://www.w3.org/2000/svg" viewBox="0 0 512 429.42"><title>Asset 1</title><g id="Layer_2" data-name="Layer 2"><g id="Capa_1" data-name="Capa 1"><path d="M512,132.13,253,9.43A100.45,100.45,0,0,0,202.22.33C51.3,12.38,0,118.48,0,165.16H512Z" fill="#fff082"/><path d="M505.15,273.23a8.37,8.37,0,0,0,6.85-8.11v-133H33a33,33,0,0,0-33,33V396.39a33,33,0,0,0,33,33h168a8.18,8.18,0,0,0,7.72-5.45,41.3,41.3,0,0,1,77.91,0,8.16,8.16,0,0,0,7.71,5.45H503.74a8.26,8.26,0,0,0,8.26-8.26V346a8.37,8.37,0,0,0-6.85-8.1,33,33,0,0,1,0-64.64Z" fill="#ffdc64"/><circle cx="421.16" cy="214.71" r="16.52" fill="#e1a546"/><circle cx="206.45" cy="330.32" r="16.52" fill="#e1a546"/><circle cx="82.58" cy="355.1" r="24.77" fill="#ffc850"/><path d="M82.58,330.32A24.74,24.74,0,0,0,60,344.94a24.5,24.5,0,0,1,10.16-2.23,24.68,24.68,0,0,1,22.55,34.93,24.74,24.74,0,0,0-10.16-47.32Z" fill="#e1a546"/><circle cx="297.29" cy="198.19" r="24.77" fill="#ffc850"/><path d="M297.29,173.42A24.75,24.75,0,0,0,274.74,188a24.69,24.69,0,0,1,32.71,32.71,24.75,24.75,0,0,0-10.16-47.32Z" fill="#e1a546"/><circle cx="132.13" cy="231.23" r="41.29" fill="#ffc850"/><path d="M132.13,189.94A41.11,41.11,0,0,0,96,211.62a40.82,40.82,0,0,1,19.61-5.17,41.29,41.29,0,0,1,41.29,41.29,40.81,40.81,0,0,1-5.16,19.61,41.15,41.15,0,0,0-19.61-77.41Z" fill="#e1a546"/><circle cx="355.1" cy="330.32" r="41.29" fill="#ffc850"/><path d="M355.1,289A41.13,41.13,0,0,0,319,310.71a40.81,40.81,0,0,1,19.61-5.16,41,41,0,0,1,36.13,60.9A41.16,41.16,0,0,0,355.1,289Z" fill="#e1a546"/><path d="M0,173.42H0a33,33,0,0,1,33,33V355.1a49.55,49.55,0,0,0,49.55,49.54H194.06A12.39,12.39,0,0,1,206.45,417h0a12.39,12.39,0,0,1-12.39,12.39H33a33,33,0,0,1-33-33Z" fill="#ffc850"/></g></g></svg>