<svg xmlns="http://www.w3.org/2000/svg" viewBox="0 0 512 487.62"><title>Asset 1</title><g id="Layer_2" data-name="Layer 2"><g id="Capa_1" data-name="Capa 1"><path d="M297.74,41.62l-86.2,86.2L246,162.3l86.2-86.2a24.38,24.38,0,1,0,0-34.48,24.38,24.38,0,1,0-34.48,0Z" fill="#e1d8dc"/><path d="M257.51,116.33c-17.08-17.09-41-25.18-67.31-22.79-25.77,2.35-50.84,14.52-70.61,34.28s-31.93,44.84-34.27,70.61c-2.39,26.32,5.69,50.23,22.78,67.31,15.12,15.12,35.58,23.2,58.33,23.2q4.44,0,9-.41c25.76-2.35,50.84-14.52,70.6-34.28S278,209.41,280.3,183.64C282.69,157.32,274.6,133.41,257.51,116.33Z" fill="#e67f5d"/><path d="M360.34,192.55c-39.86-35.07-92.79-54.39-149-54.39s-109.18,19.32-149,54.39C22.11,227.89,0,275,0,325.08c0,49.66,21.75,91.45,62.91,120.85,37.64,26.88,90.34,41.69,148.39,41.69s110.75-14.81,148.39-41.69c41.16-29.4,62.91-71.19,62.91-120.85C422.6,275,400.49,227.89,360.34,192.55Z" fill="#ea9174"/><path d="M243.81,471.37c-58.05,0-110.75-14.81-148.39-41.69-41.16-29.4-62.91-71.19-62.91-120.85,0-50.13,22.11-97.2,62.26-132.53a210,210,0,0,1,29.41-21.61,213.67,213.67,0,0,0-61.91,37.86C22.11,227.89,0,275,0,325.08c0,49.66,21.75,91.45,62.91,120.85,37.64,26.88,90.34,41.69,148.39,41.69,53.2,0,101.9-12.44,138.64-35.22C318.86,464.77,282.53,471.37,243.81,471.37Z" fill="#e67f5d"/><path d="M435.9,86.74l-86.2,86.2,34.48,34.48,86.2-86.2a24.38,24.38,0,1,0,0-34.48,24.38,24.38,0,1,0-34.48,0Z" fill="#e1d8dc"/><path d="M395.67,161.45c-34.85-34.86-96.72-29.7-137.92,11.49S211.4,276,246.26,310.86c15.12,15.12,35.58,23.2,58.33,23.2,3,0,6-.14,9-.42,25.77-2.34,50.85-14.51,70.61-34.27C425.37,258.17,430.53,196.3,395.67,161.45Z" fill="#ea9174"/><path d="M333.65,309.09q-4.54.41-9,.41c-22.75,0-43.21-8.08-58.33-23.2-29-29-30.3-76.79-6.12-115.75-.82.79-1.65,1.58-2.46,2.39C216.56,214.13,211.4,276,246.26,310.86c15.12,15.12,35.58,23.2,58.33,23.2q4.44,0,9-.42c25.76-2.34,50.84-14.51,70.6-34.27a123.81,123.81,0,0,0,17.65-22.23C382.46,295.51,358.38,306.84,333.65,309.09Z" fill="#e67f5d"/></g></g></svg>