<svg xmlns="http://www.w3.org/2000/svg" viewBox="0 0 447.24 512"><title>Asset 1</title><g id="Layer_2" data-name="Layer 2"><g id="Capa_1" data-name="Capa 1"><path d="M126.65,358.76a264.29,264.29,0,0,1-33-5.58C-71.45,313.81,22.68,136,68.44,130,117,123.61,119.12,29.34,162.51,8.59s101.2-4.54,131.32,55.79c6.9,13.82,12.86,37.91,15.44,66.59C318,227.59,288.36,376.25,126.65,358.76Z" fill="#ffc988"/><path d="M126.65,358.76a264.29,264.29,0,0,1-33-5.58q6.59-19.86,16.39-42.1c7.71-17.49,14.33-33.26,20.17-47.19,21.86-52.07,35.07-83.5,62.63-104.23,26.27-19.75,61.9-25.94,116.46-28.7C318,227.59,288.36,376.25,126.65,358.76Z" fill="#ffb64d"/><path d="M139.07,359.79C309.4,349.29,296.72,120.84,268.55,64.38,249.32,25.83,218.76,5.29,187.89.9,226.4-4.62,269.3,15.24,293.83,64.38,323.33,123.5,335.84,371.16,139.07,359.79Z" fill="#ffb64d"/><path d="M160.65,497.29c-31.68-16.73-84.5-41.07-24.77-176.64s48.64-156,188-161.33,136.17,105.3,107.5,155.51c-26.86,47-74.87,24.75-117.22,121C293,484.06,239.37,538.85,160.65,497.29Z" fill="#ffc988"/><path d="M431.38,314.83c-26.86,47-74.87,24.75-117.21,121-21.2,48.19-74.8,103-153.51,61.42-12.84-6.78-29.14-14.81-40-31,7.33,5.18,15,9.06,21.65,12.59,78.72,41.55,132.32-13.22,153.51-61.42,42.34-96.29,90.36-74,117.21-121,17-29.77,25.06-80.81-.31-116.29C459.17,213.72,451.64,279.36,431.38,314.83Z" fill="#ffb64d"/><path d="M396.53,235.22h-1.62a7.73,7.73,0,1,1,0-15.45h1.62a7.73,7.73,0,1,1,0,15.45Z" fill="#ffb64d"/><path d="M340.58,219.36H339a7.73,7.73,0,0,1,0-15.45h1.63a7.73,7.73,0,0,1,0,15.45Z" fill="#ffb64d"/><path d="M386.05,137.26h-1.63a7.73,7.73,0,0,1,0-15.45h1.63a7.73,7.73,0,1,1,0,15.45Z" fill="#ffb64d"/><path d="M28.36,381H26.73a7.73,7.73,0,0,1,0-15.46h1.63a7.73,7.73,0,1,1,0,15.46Z" fill="#ffb64d"/><path d="M362.91,113.15h-1.62a7.73,7.73,0,1,1,0-15.45h1.62a7.73,7.73,0,1,1,0,15.45Z" fill="#ffb64d"/><path d="M203,46.24h-1.63a7.73,7.73,0,1,1,0-15.45H203a7.73,7.73,0,0,1,0,15.45Z" fill="#ffb64d"/><path d="M297.18,339.86h-1.63a7.73,7.73,0,0,1,0-15.45h1.63a7.73,7.73,0,0,1,0,15.45Z" fill="#ffb64d"/><path d="M235.7,253.3h-1.62a7.73,7.73,0,0,1,0-15.46h1.62a7.73,7.73,0,1,1,0,15.46Z" fill="#ffb64d"/><path d="M93.62,175.27H92a7.73,7.73,0,1,1,0-15.45h1.62a7.73,7.73,0,1,1,0,15.45Z" fill="#ffb64d"/><path d="M203.76,142.62h-1.63a7.73,7.73,0,0,1,0-15.45h1.63a7.73,7.73,0,1,1,0,15.45Z" fill="#ffb64d"/><path d="M63.41,291.19H61.78a7.73,7.73,0,1,1,0-15.45h1.63a7.73,7.73,0,0,1,0,15.45Z" fill="#ffb64d"/><path d="M225.67,65.39H224a7.73,7.73,0,0,1,0-15.45h1.63a7.73,7.73,0,1,1,0,15.45Z" fill="#ffb64d"/><path d="M320.67,323.45H319A7.73,7.73,0,1,1,319,308h1.63a7.73,7.73,0,0,1,0,15.45Z" fill="#ffb64d"/><path d="M248.6,448.46H247A7.73,7.73,0,1,1,247,433h1.62a7.73,7.73,0,1,1,0,15.45Z" fill="#ffb64d"/></g></g></svg>