<svg xmlns="http://www.w3.org/2000/svg" viewBox="0 0 425.61 512"><title>Asset 1</title><g id="Layer_2" data-name="Layer 2"><g id="Layer_1-2" data-name="Layer 1"><path d="M397.63,0H28A14.59,14.59,0,0,0,13.39,14.59V265.88H412.22V14.59A14.59,14.59,0,0,0,397.63,0Z" fill="#855151"/><path d="M412.22,125.21H287V0H271.55V125.21H154.06V0H138.61V125.21H13.39v15.46H138.61V265.88h15.45V140.67H271.55V265.88H287V140.67H412.22Z" fill="#704444"/><path d="M397.63,0H365.16a14.59,14.59,0,0,1,14.59,14.59V265.88h32.47V14.59A14.59,14.59,0,0,0,397.63,0Z" fill="#704444"/><path d="M358.51,260.93c-36.82-5.26-33.65-27.44-70.47-32.69s-40,16.92-76.81,11.66-33.65-27.43-70.47-32.69-40,16.92-76.81,11.66c-28.54-4.07-33.06-18.31-50.8-27A9.12,9.12,0,0,0,0,200.07V477.89A34.11,34.11,0,0,0,34.11,512H391.5a34.11,34.11,0,0,0,34.11-34.11V258.21a9.1,9.1,0,0,0-10.59-9C395.43,252.51,387.15,265,358.51,260.93Z" fill="#ff9838"/><path d="M90.82,414.61h244a11,11,0,0,0,11-11v-67a11,11,0,0,0-11-11h-244a11,11,0,0,0-10.95,11v67A11,11,0,0,0,90.82,414.61Z" fill="#fef1da"/><path d="M415,249.23c-13.69,2.29-21.86,9.08-35.31,11.57h0A13.24,13.24,0,0,1,393,274v204A34.11,34.11,0,0,1,362.21,512H391.5a34.11,34.11,0,0,0,34.11-34.11V258.21A9.1,9.1,0,0,0,415,249.23Z" fill="#ff8709"/></g></g></svg>