<svg xmlns="http://www.w3.org/2000/svg" viewBox="0 0 512 512"><title>Asset 1</title><g id="Layer_2" data-name="Layer 2"><g id="Capa_1" data-name="Capa 1"><circle cx="256" cy="256" r="256" fill="#d5a150"/><path d="M415.24,55.56a254.89,254.89,0,0,1,55.55,159.23c0,141.39-114.61,256-256,256A254.89,254.89,0,0,1,55.56,415.24,255.54,255.54,0,0,0,256,512c141.39,0,256-114.61,256-256A255.54,255.54,0,0,0,415.24,55.56Z" fill="#ad712c"/><path d="M139.55,145.28a20.53,20.53,0,0,1-14.57-6,56.66,56.66,0,0,1,80.13-80.13A20.6,20.6,0,1,1,176,88.25a15.46,15.46,0,0,0-21.86,21.86,20.61,20.61,0,0,1-14.57,35.17Z" fill="#c98a2e"/><circle cx="165.04" cy="99.19" r="36.06" fill="#674230"/><path d="M129.15,95.73l0,.42A20,20,0,0,0,149.9,117.7c.79,0,1.59-.08,2.39-.16a36.16,36.16,0,0,0,32.17-32.42c0-.14,0-.28,0-.42a20,20,0,0,0-20.78-21.55c-.79,0-1.59.08-2.4.16A36.16,36.16,0,0,0,129.15,95.73Z" fill="#7a5436"/><path d="M57.14,310.11a20.52,20.52,0,0,1-14.57-6A56.66,56.66,0,1,1,122.7,224a20.6,20.6,0,0,1-29.14,29.13,15.45,15.45,0,1,0-21.85,21.86,20.6,20.6,0,0,1-14.57,35.17Z" fill="#c98a2e"/><circle cx="82.63" cy="264.02" r="36.06" fill="#674230"/><path d="M46.74,260.56c0,.14,0,.28,0,.42a20,20,0,0,0,20.78,21.55c.79,0,1.59-.08,2.39-.17a36.14,36.14,0,0,0,32.18-32.42l0-.41A20,20,0,0,0,81.3,228c-.79,0-1.59.08-2.39.16A36.15,36.15,0,0,0,46.74,260.56Z" fill="#7a5436"/><path d="M129.25,413.13a20.53,20.53,0,0,1-14.57-6A56.66,56.66,0,0,1,194.81,327a20.61,20.61,0,0,1-29.14,29.14,15.44,15.44,0,0,0-21.85,0,15.48,15.48,0,0,0,0,21.85,20.61,20.61,0,0,1-14.57,35.18Z" fill="#c98a2e"/><circle cx="154.74" cy="367.03" r="36.06" fill="#674230"/><path d="M118.85,363.58c0,.14,0,.28,0,.42a20.05,20.05,0,0,0,20.78,21.55c.8,0,1.59-.09,2.4-.17A36.14,36.14,0,0,0,174.16,353l0-.41A20,20,0,0,0,153.42,331c-.8,0-1.6.08-2.4.16A36.15,36.15,0,0,0,118.85,363.58Z" fill="#7a5436"/><path d="M242.57,485.24a20.53,20.53,0,0,1-14.57-6,56.66,56.66,0,0,1,80.13-80.13A20.61,20.61,0,0,1,279,428.21a15.45,15.45,0,0,0-21.85,21.86,20.61,20.61,0,0,1-14.57,35.17Z" fill="#c98a2e"/><circle cx="268.06" cy="439.15" r="36.06" fill="#674230"/><path d="M232.17,435.69c0,.14,0,.28,0,.42a20,20,0,0,0,20.78,21.55c.8,0,1.6-.08,2.4-.17a36.14,36.14,0,0,0,32.17-32.42c0-.13,0-.27,0-.41a20,20,0,0,0-20.78-21.55c-.8,0-1.59.08-2.4.16A36.15,36.15,0,0,0,232.17,435.69Z" fill="#7a5436"/><path d="M263.17,196.93a20.5,20.5,0,0,1-14.56-6,56.66,56.66,0,0,1,80.13-80.13A20.61,20.61,0,0,1,299.6,139.9a15.46,15.46,0,1,0-21.86,21.86,20.61,20.61,0,0,1-14.57,35.17Z" fill="#c98a2e"/><circle cx="288.67" cy="150.83" r="36.06" fill="#674230"/><path d="M252.78,147.38c0,.14,0,.28,0,.42a20,20,0,0,0,20.78,21.55c.79,0,1.59-.08,2.39-.17a36.14,36.14,0,0,0,32.17-32.42c0-.13,0-.27,0-.41a20,20,0,0,0-20.78-21.55c-.79,0-1.59.08-2.39.16A36.15,36.15,0,0,0,252.78,147.38Z" fill="#7a5436"/><path d="M386.8,382.22a20.53,20.53,0,0,1-14.57-6,56.66,56.66,0,1,1,80.13-80.13,20.61,20.61,0,0,1-29.14,29.14,15.45,15.45,0,0,0-21.85,21.85,20.6,20.6,0,0,1-14.57,35.17Z" fill="#c98a2e"/><circle cx="412.29" cy="336.13" r="36.06" fill="#674230"/><path d="M376.4,332.67c0,.14,0,.28,0,.42a20,20,0,0,0,20.78,21.55c.79,0,1.59-.08,2.39-.16a36.15,36.15,0,0,0,32.17-32.42c0-.14,0-.28,0-.42A20,20,0,0,0,411,300.09c-.79,0-1.59.08-2.39.17A36.14,36.14,0,0,0,376.4,332.67Z" fill="#7a5436"/><path d="M376.49,186.49a20.5,20.5,0,0,1-14.56-6,56.66,56.66,0,0,1,80.13-80.13,20.61,20.61,0,0,1-29.14,29.14,15.45,15.45,0,1,0-21.85,21.86,20.61,20.61,0,0,1-14.58,35.17Z" fill="#c98a2e"/><circle cx="401.99" cy="140.39" r="36.06" fill="#674230"/><path d="M366.1,136.94c0,.14,0,.28,0,.42a20,20,0,0,0,20.78,21.55c.79,0,1.59-.09,2.39-.17a36.14,36.14,0,0,0,32.17-32.42c0-.14,0-.27,0-.41a20,20,0,0,0-20.78-21.55c-.79,0-1.59.08-2.39.16A36.15,36.15,0,0,0,366.1,136.94Z" fill="#7a5436"/><path d="M222,310.11a20.52,20.52,0,0,1-14.57-6,56.66,56.66,0,0,1,80.13-80.13,20.61,20.61,0,0,1-29.14,29.14,15.45,15.45,0,1,0-21.85,21.86A20.61,20.61,0,0,1,222,310.11Z" fill="#c98a2e"/><circle cx="247.46" cy="264.02" r="36.06" transform="translate(-52.78 465.99) rotate(-80.78)" fill="#674230"/><path d="M211.57,260.56c0,.14,0,.28,0,.42a20,20,0,0,0,20.78,21.55c.79,0,1.59-.08,2.39-.17a36.14,36.14,0,0,0,32.18-32.42l0-.41A20,20,0,0,0,246.13,228c-.79,0-1.59.08-2.39.16A36.15,36.15,0,0,0,211.57,260.56Z" fill="#7a5436"/><circle cx="129.8" cy="294.63" r="7.73" fill="#ad712c"/><circle cx="181.31" cy="294.63" r="7.73" fill="#ad712c"/><circle cx="155.56" cy="248.27" r="7.73" fill="#ad712c"/><circle cx="62.84" cy="340.99" r="7.73" fill="#ad712c"/><circle cx="165.86" cy="454.31" r="7.73" fill="#ad712c"/><circle cx="196.76" cy="413.1" r="7.73" fill="#ad712c"/><circle cx="248.27" cy="351.29" r="7.73" fill="#ad712c"/><circle cx="330.69" cy="320.39" r="7.73" fill="#ad712c"/><circle cx="310.08" cy="340.99" r="7.73" fill="#ad712c"/><circle cx="340.99" cy="371.89" r="7.73" fill="#ad712c"/><circle cx="340.99" cy="433.71" r="7.73" fill="#ad712c"/><circle cx="454.31" cy="217.37" r="7.73" fill="#ad712c"/><circle cx="423.4" cy="423.4" r="7.73" fill="#ad712c"/><circle cx="268.88" cy="31.94" r="7.73" fill="#ad712c"/><circle cx="83.44" cy="124.65" r="7.73" fill="#ad712c"/><circle cx="42.24" cy="186.46" r="7.73" fill="#ad712c"/><circle cx="160.71" cy="201.91" r="7.73" fill="#ad712c"/><circle cx="191.61" cy="186.46" r="7.73" fill="#ad712c"/><circle cx="160.71" cy="171.01" r="7.73" fill="#ad712c"/><circle cx="304.93" cy="248.27" r="7.73" fill="#ad712c"/><circle cx="237.97" cy="93.75" r="7.73" fill="#ad712c"/><circle cx="335.84" cy="186.46" r="7.73" fill="#ad712c"/><circle cx="351.29" cy="232.82" r="7.73" fill="#ad712c"/><circle cx="382.2" cy="232.82" r="7.73" fill="#ad712c"/><circle cx="382.2" cy="263.73" r="7.73" fill="#ad712c"/><circle cx="325.54" cy="78.29" r="7.73" fill="#ad712c"/><circle cx="356.44" cy="62.84" r="7.73" fill="#ad712c"/></g></g></svg>