<svg xmlns="http://www.w3.org/2000/svg" viewBox="0 0 448.7 512"><title>Asset 1</title><g id="Layer_2" data-name="Layer 2"><g id="Capa_1" data-name="Capa 1"><path d="M324.67,100.11h-8.56c13-48.48-9.82-82.67-23.27-97.71A7.1,7.1,0,0,0,281.13,4c-14.22,30.39-70.84,33.49-92.42,33.55a66.12,66.12,0,0,0-29.54,6.81C123.36,62.29,129,100.11,129,100.11h-5a49,49,0,0,0-49,49v17.71H373.62V149.07A49,49,0,0,0,324.67,100.11Z" fill="#f9f3f1"/><path d="M373.62,149.07v17.71H353V149.07c0-21.07-22.74-27.66-40.7-29.59a19.75,19.75,0,0,1-17.63-21.56c3.5-35.61-6.85-70.4-17.11-87.94a34,34,0,0,0,3.6-6A7.1,7.1,0,0,1,292.84,2.4c13.45,15,36.31,49.23,23.27,97.72h8.56a49,49,0,0,1,48.95,48.95Z" fill="#efe2dd"/><path d="M219.9,92.25a7.85,7.85,0,0,1-7.84,7.85H129a55,55,0,0,1,.49-15.7h82.53A7.85,7.85,0,0,1,219.9,92.25Z" fill="#cdbfba"/><path d="M319.19,84.4a110,110,0,0,1-3.08,15.7h-26.4a7.85,7.85,0,1,1,0-15.7Z" fill="#cdbfba"/><path d="M407.14,227.06h-363V172.12a8.91,8.91,0,0,1,8.9-8.9H398.24a8.9,8.9,0,0,1,8.9,8.9v54.94Z" fill="#aedec8"/><path d="M407.14,172.12V215.6H386.21V172.12a8.9,8.9,0,0,0-8.9-8.9h20.93A8.9,8.9,0,0,1,407.14,172.12Z" fill="#9fd3ba"/><path d="M115.32,463.06l11.14,33.65A22.31,22.31,0,0,0,147.63,512H301.07a22.31,22.31,0,0,0,21.17-15.29l11.14-33.65Z" fill="#aedec8"/><path d="M333.39,463.06l-11.15,33.65A22.3,22.3,0,0,1,301.07,512h-23.3a22.29,22.29,0,0,0,21.17-15.29l11.14-33.65Z" fill="#9fd3ba"/><path d="M448.66,243.59a26.45,26.45,0,0,0-26.42-28H26.46a26.44,26.44,0,0,0-26.41,28C.69,254.49,1.78,268,3.66,283.1c0,.15,1,.3,1,.45C9,318.23,17.51,361.15,34,399.8c.07.17-.84.34-.76.51a229.07,229.07,0,0,0,26.21,46.51,52.3,52.3,0,0,0,42,21H347.28a52.28,52.28,0,0,0,42-21,229.11,229.11,0,0,0,26.22-46.51c.19-.44-.79-.89-.61-1.33,16.15-38.17,24.53-80.4,28.87-114.71,0-.39,1.26-.78,1.31-1.17,1.88-15.1,3-28.61,3.62-39.51Z" fill="#7acaa6"/><path d="M448.66,243.59C448,254.49,446.92,268,445,283.1c-.06.51-1.15,2-1.22,2.55-4.32,34-12.61,75.77-28.5,113.61-.29.7.44.36.14,1.05a228.94,228.94,0,0,1-26.21,46.52,52.3,52.3,0,0,1-42,21H326.41a52.32,52.32,0,0,0,42-21c45.43-61.07,56.65-156.36,59.4-203.24a26.46,26.46,0,0,0-26.42-28h20.88a26.45,26.45,0,0,1,26.41,28Z" fill="#57be92"/><path d="M445,283.1c-4.35,34.92-12.86,78.27-29.58,117.21H33.24C16.53,361.37,8,318,3.67,283.1Z" fill="#f9f3f1"/><path d="M445,283.1c-.16,1.27-.33,2.55-.5,3.85-.25,1.92-.52,3.87-.79,5.85-1.15,8.36-2.58,16.88-4.13,25.12s-3.39,16.86-5.51,25.47q-1.74,7.1-3.71,14.14A362.47,362.47,0,0,1,417,396.62c-.5,1.24-1,2.47-1.55,3.7H394.6c16.71-38.95,25.23-82.3,29.57-117.22Z" fill="#efe2dd"/><path d="M377.31,354.69a22.35,22.35,0,1,1,22.36-22.35A22.35,22.35,0,0,1,377.31,354.69Z" fill="#ee6161"/><path d="M399.66,332.34a22.35,22.35,0,0,1-43.12,8.26,22.35,22.35,0,0,0,28-29.41,22.29,22.29,0,0,1,15.14,21.15Z" fill="#e94444"/></g></g></svg>