<svg xmlns="http://www.w3.org/2000/svg" viewBox="0 0 480 512"><title>Asset 1</title><g id="Layer_2" data-name="Layer 2"><g id="Layer_1-2" data-name="Layer 1"><path d="M124,340a7.92,7.92,0,0,1-3.08-.62l-96-40a8,8,0,0,1,6.16-14.76l78.06,32.52L76.62,239.08a8,8,0,0,1,14.77-6.16l40,96A8,8,0,0,1,124,340Z" fill="#78c3a5"/><path d="M56,272a7.92,7.92,0,0,1-3.08-.62l-48-20a8,8,0,1,1,6.16-14.76l30.06,12.52L28.62,219.08a8,8,0,0,1,14.77-6.16l20,48A8,8,0,0,1,56,272Z" fill="#78c3a5"/><path d="M180,396a7.92,7.92,0,0,1-3.08-.62l-60-25a8,8,0,0,1,6.16-14.76l42.06,17.52-17.52-42.06a8,8,0,0,1,14.77-6.16l25,60A8,8,0,0,1,180,396Z" fill="#78c3a5"/><path d="M356,340a8,8,0,0,1-7.38-11.08l40-96a8,8,0,0,1,14.77,6.16l-32.53,78.06,78.06-32.52a8,8,0,1,1,6.16,14.76l-96,40A7.88,7.88,0,0,1,356,340Z" fill="#78c3a5"/><path d="M424,272a8,8,0,0,1-7.38-11.08l20-48a8,8,0,0,1,14.77,6.16l-12.53,30.06,30.06-12.52a8,8,0,1,1,6.16,14.76l-48,20A7.88,7.88,0,0,1,424,272Z" fill="#78c3a5"/><path d="M300,396a8,8,0,0,1-7.38-11.08l25-60a8,8,0,0,1,14.77,6.16l-17.53,42.06,42.06-17.52a8,8,0,1,1,6.16,14.76l-60,25A7.88,7.88,0,0,1,300,396Z" fill="#78c3a5"/><path d="M208,280a7.92,7.92,0,0,1-3.08-.62l-80-33.33a8,8,0,0,1,6.16-14.77l62.06,25.86-25.86-62.06a8,8,0,0,1,14.77-6.16l33.34,80A8,8,0,0,1,208,280Z" fill="#78c3a5"/><path d="M120,192a7.92,7.92,0,0,1-3.08-.62l-48-20a8,8,0,1,1,6.16-14.76l30.06,12.52L92.62,139.08a8,8,0,0,1,14.77-6.16l20,48A8,8,0,0,1,120,192Z" fill="#78c3a5"/><path d="M272,280a8,8,0,0,1-7.38-11.08l33.34-80a8,8,0,0,1,14.76,6.16l-25.86,62.06,62.06-25.86a8,8,0,1,1,6.16,14.77l-80,33.33A7.88,7.88,0,0,1,272,280Z" fill="#78c3a5"/><path d="M360,192a8,8,0,0,1-7.38-11.08l20-48a8,8,0,0,1,14.77,6.16l-12.53,30.06,30.06-12.52a8,8,0,1,1,6.16,14.76l-48,20A7.88,7.88,0,0,1,360,192Z" fill="#78c3a5"/><path d="M192,136a7.43,7.43,0,0,1-1.32-.11l-48-8a8,8,0,0,1,2.62-15.78l48,8A8,8,0,0,1,192,136Z" fill="#78c3a5"/><path d="M288,136a8,8,0,0,1-1.3-15.89l48-8a8,8,0,0,1,2.62,15.78l-48,8A7.35,7.35,0,0,1,288,136Z" fill="#78c3a5"/><path d="M240,456a8,8,0,0,1-5.65-2.34l-184-184a8,8,0,1,1,11.31-11.32l184,184A8,8,0,0,1,240,456Z" fill="#96d7a5"/><path d="M240,192a8,8,0,0,1-6.07-2.8l-96-112a8,8,0,0,1,12.14-10.4L240,171.71,329.93,66.8a8,8,0,1,1,12.14,10.4l-96,112A8,8,0,0,1,240,192Z" fill="#96d7a5"/><path d="M240,312a8,8,0,0,1-5.65-2.34l-120-120a8,8,0,1,1,11.31-11.32l120,120A8,8,0,0,1,240,312Z" fill="#96d7a5"/><path d="M240,312a8,8,0,0,1-5.65-13.66l120-120a8,8,0,0,1,11.31,11.32l-120,120A8,8,0,0,1,240,312Z" fill="#96d7a5"/><path d="M240,120a8,8,0,0,1-7.43-5l-32-80A8,8,0,0,1,215.43,29L240,90.46,264.57,29A8,8,0,1,1,279.43,35l-32,80A8,8,0,0,1,240,120Z" fill="#96d7a5"/><path d="M240,456a8,8,0,0,1-5.65-13.66l188-188a8,8,0,0,1,11.31,11.32l-188,188A8,8,0,0,1,240,456Z" fill="#96d7a5"/><path d="M240,512a8,8,0,0,1-8-8V8a8,8,0,0,1,16,0V504A8,8,0,0,1,240,512Z" fill="#b4e6a0"/></g></g></svg>