<svg xmlns="http://www.w3.org/2000/svg" viewBox="0 0 512 407.58"><title>Asset 1</title><g id="Layer_2" data-name="Layer 2"><g id="Capa_1" data-name="Capa 1"><path d="M326,202.44c-13.36-85.73-49.21-139-83.77-171.55a113.76,113.76,0,0,0-155.85,0C51.78,63.39,15.92,116.69,2.56,202.42c0,0-25.16,120.19,82.33,183a157.13,157.13,0,0,0,158.72,0C351.11,322.63,326,202.44,326,202.44Z" fill="#e59770"/><path d="M243.61,385.47A157.07,157.07,0,0,1,150,406.32a157,157,0,0,0,66-20.94c107.5-62.84,82.36-183,82.36-183C285,116.62,249.14,63.31,214.58,30.8a113.39,113.39,0,0,0-63.76-30,113.58,113.58,0,0,1,91.38,30.1C276.76,63.4,312.62,116.71,326,202.44,326,202.44,351.11,322.63,243.61,385.47Z" fill="#db7e56"/><path d="M509.44,203c-13.35-85.73-49.2-139-83.76-171.55a113.78,113.78,0,0,0-155.86,0C235.26,64,199.4,117.3,186,203c0,0-25.16,120.19,82.33,183a157.13,157.13,0,0,0,158.72,0C534.59,323.23,509.44,203,509.44,203Z" fill="#f9e8d4"/><path d="M427.09,386.07a157,157,0,0,1-93.66,20.85,157,157,0,0,0,66-20.94c107.5-62.84,82.36-183,82.36-183-13.36-85.73-49.21-139-83.77-171.55a113.31,113.31,0,0,0-63.76-30,113.58,113.58,0,0,1,91.38,30.09C460.24,64,496.09,117.31,509.44,203,509.44,203,534.59,323.23,427.09,386.07Z" fill="#e8d0ba"/><circle cx="347.76" cy="264.75" r="83.53" fill="#fec007"/><path d="M431.3,264.76a83.53,83.53,0,0,1-138.84,62.58,83.53,83.53,0,0,0,85.62-140.43A83.59,83.59,0,0,1,431.3,264.76Z" fill="#efad0a"/></g></g></svg>