<svg xmlns="http://www.w3.org/2000/svg" viewBox="0 0 201.07 512"><title>Asset 2</title><g id="Layer_2" data-name="Layer 2"><g id="Layer_1-2" data-name="Layer 1"><path d="M44,68.91C27.56,101.79-51.22,324.79,59.82,478.23c33.35,46.09,104.46,45.37,132-4.44,10.53-19.07,13.76-43.59.85-74.55-41.28-99.1-74.32-165.17-57.8-280.78C145.92,40.91,68.77,19.37,44,68.91Z" fill="#785a69"/><path d="M164.59,461C39.72,322.15,86.15,103,104.18,46.65c-21.24-9.76-47.53-3-60.18,22.26C27.56,101.79-51.22,324.79,59.82,478.23c32,44.29,99.09,45.36,128.57,1.13A87,87,0,0,1,164.59,461Z" fill="#5d5360"/><path d="M103.81,474.89C-11.88,318,60.05,82.83,75.47,48c.78-1.77,1.64-3.43,2.54-5C64.44,45.12,51.69,53.53,44,68.91,27.56,101.79-51.22,324.79,59.82,478.23c22.47,31,62.25,40.83,94.08,28.66A81.82,81.82,0,0,1,103.81,474.89Z" fill="#4b3f4e"/><path d="M121.85,2.89h0c-7-5.51-16.64-2.85-20.66,5.7L84.9,43.1l36.39,18.84,6.47-42.76C128.78,12.9,126.47,6.52,121.85,2.89Z" fill="#96d7a5"/><path d="M153.27,147.87C139.2,144.27,142.73,121.34,143,120c6.73-72.53-72.73-105.94-99.43-51.23-2.88,5.89-7.84,17.81-13.3,34.29-2.25,6.8-10.28,9.43-15.59,4.61l-.74-.68A8.26,8.26,0,1,0,2.62,119.07c13.22,12.36,26.88,17.5,40.8,15.27,13.66-2.21,24.22-11.31,31-19.13,5,12.15,11.29,32.11,9.22,52.74a8.26,8.26,0,0,0,12,8.15c1.16-.61,20.48-10.83,34.25-28.42a28.19,28.19,0,0,0,19.25,16.19,8.26,8.26,0,0,0,4.09-16Z" fill="#b4e6a0"/><path d="M83.68,41.61c-15.77.19-31.11,8.61-40.16,27.17-2.88,5.89-7.84,17.81-13.3,34.29-2.25,6.8-10.28,9.43-15.59,4.61l-.74-.68A8.26,8.26,0,1,0,2.62,119.07c13.22,12.36,26.88,17.5,40.8,15.27,13.66-2.21,24.22-11.31,31-19.13C59.35,77.59,68.16,45.22,83.68,41.61Z" fill="#96d7a5"/></g></g></svg>