<svg xmlns="http://www.w3.org/2000/svg" viewBox="0 0 512 315"><title>Asset 2</title><g id="Layer_2" data-name="Layer 2"><g id="Layer_1-2" data-name="Layer 1"><path d="M455.75,103.23a29,29,0,0,0-13,1.82,1,1,0,0,1-1.37-.87,28.9,28.9,0,0,0-44.7-20.75,1,1,0,0,1-1.52-.5A28.93,28.93,0,0,0,359,66.85a1,1,0,0,1-1.32-.64,28.9,28.9,0,0,0-32.26-19,1,1,0,0,1-1.18-1.13,28.92,28.92,0,0,0-53.26-19,1,1,0,0,1-1.62.16,28.89,28.89,0,0,0-32.87-7,1,1,0,0,1-1.4-.62,28.91,28.91,0,0,0-55.39,2.23,1,1,0,0,1-1.54.59,28.75,28.75,0,0,0-17.79-4.52A29,29,0,0,0,136.77,60a1,1,0,0,1-.76,1.47,29,29,0,0,0-22.23,19.88,1,1,0,0,1-1.58.51,28.89,28.89,0,0,0-46.53,20.84,1,1,0,0,1-1.24,1,29,29,0,1,0-5.56,57.46H453.13a29,29,0,0,0,2.62-57.89Z" fill="#e82a40"/><path d="M455.75,103.23a28.82,28.82,0,0,0-13,1.83,1,1,0,0,1-1.37-.88,28.9,28.9,0,0,0-44.7-20.75,1,1,0,0,1-1.52-.5A28.89,28.89,0,0,0,359,66.86a1,1,0,0,1-1.32-.64,28.89,28.89,0,0,0-32.26-19,1,1,0,0,1-1.18-1.13,29,29,0,0,0-28.68-32.75,28.73,28.73,0,0,0-17.56,6,29,29,0,0,1,15.58,25.73v.07a4.42,4.42,0,0,0,4.66,4.4l1.23,0a28.92,28.92,0,0,1,26.26,16.83,4.37,4.37,0,0,0,5,2.43,28.91,28.91,0,0,1,32.13,14.09,4.25,4.25,0,0,0,5.67,1.63,28.91,28.91,0,0,1,41.31,19.07,4.29,4.29,0,0,0,5.27,3.14,29,29,0,0,1,19.3,54.42h18.71a29,29,0,0,0,2.62-57.89Z" fill="#d6243a"/><ellipse cx="201.6" cy="71.12" rx="23.69" ry="23.75" fill="#c71c32"/><ellipse cx="132.74" cy="130.04" rx="23.69" ry="23.75" fill="#c71c32"/><ellipse cx="288.94" cy="91.44" rx="23.69" ry="23.75" fill="#c71c32"/><ellipse cx="359.11" cy="136.26" rx="23.69" ry="23.75" fill="#c71c32"/><ellipse cx="232.31" cy="142.75" rx="23.69" ry="23.75" fill="#c71c32"/><path d="M424.52,315h-337a61.22,61.22,0,0,1-61.21-61.22V164.35H485.73v89.43A61.22,61.22,0,0,1,424.52,315Z" fill="#ea9f54"/><path d="M454.83,164.35v89.36A61.22,61.22,0,0,1,393.69,315h30.9a61.21,61.21,0,0,0,61.14-61.29V164.35Z" fill="#d78b3e"/><path d="M512,169.36v0a15.47,15.47,0,0,1-15.47,15.47H15.47A15.47,15.47,0,0,1,0,169.4v0a15.47,15.47,0,0,1,15.47-15.47H496.53A15.47,15.47,0,0,1,512,169.36Z" fill="#d78b3e"/><path d="M496.55,153.88H465.64a15.5,15.5,0,0,1,0,31h30.91a15.5,15.5,0,0,0,0-31Z" fill="#bd742b"/><path d="M70.53,153.89l-9.19,31H45.69l9.19-31Z" fill="#bd742b"/><path d="M120,153.89l-9.18,31H95.17l9.18-31Z" fill="#bd742b"/><path d="M169.47,153.89l-9.18,31H144.64l9.18-31Z" fill="#bd742b"/><path d="M218.94,153.89l-9.18,31H194.11l9.18-31Z" fill="#bd742b"/><path d="M268.42,153.89l-9.19,31H243.58l9.19-31Z" fill="#bd742b"/><path d="M317.89,153.89l-9.18,31H293.06l9.18-31Z" fill="#bd742b"/><path d="M367.36,153.89l-9.18,31H342.53l9.18-31Z" fill="#bd742b"/><path d="M416.83,153.89l-9.18,31H392l9.18-31Z" fill="#bd742b"/><path d="M466.31,153.89l-9.19,31H441.47l9.19-31Z" fill="#bd742b"/><path d="M488.8,249.93H23.2A15.46,15.46,0,0,1,7.73,234.46v0A15.47,15.47,0,0,1,23.2,219H488.8a15.47,15.47,0,0,1,15.47,15.47v0a15.46,15.46,0,0,1-15.47,15.47Z" fill="#ca6633"/><path d="M488.82,219h-30.9a15.49,15.49,0,0,1,0,31h30.9a15.49,15.49,0,0,0,0-31Z" fill="#ae5121"/></g></g></svg>