<svg xmlns="http://www.w3.org/2000/svg" viewBox="0 0 512 508.74"><title>Asset 1</title><g id="Layer_2" data-name="Layer 2"><g id="Capa_1" data-name="Capa 1"><path d="M255.94,389.14a49.41,49.41,0,1,1,49.41-49.4A49.45,49.45,0,0,1,255.94,389.14Z" fill="#e7e4cd"/><path d="M255.94,396.34a56.61,56.61,0,1,1,56.61-56.6A56.67,56.67,0,0,1,255.94,396.34Zm0-97.78a41.18,41.18,0,1,0,41.18,41.18A41.23,41.23,0,0,0,255.94,298.56Z" fill="#a6c1ad"/><path d="M298,374.62a49.13,49.13,0,0,1-16.33-2.79A41.17,41.17,0,1,1,256,298.56h.51a49.88,49.88,0,0,1,13.18-13.75,56.61,56.61,0,1,0,30.88,89.74Q299.29,374.62,298,374.62Z" fill="#81b776"/><path d="M255.94,367a27.26,27.26,0,1,1,27.26-27.25A27.29,27.29,0,0,1,255.94,367Z" fill="#96401e"/><path d="M256,330.46a27.09,27.09,0,0,1,6.17-17.26,26.71,26.71,0,0,0-6.17-.72A27.26,27.26,0,1,0,277,357,27.3,27.3,0,0,1,256,330.46Z" fill="#5e2208"/><path d="M170.05,367V494.36a14.38,14.38,0,0,1-14.38,14.38H115.41A14.38,14.38,0,0,1,101,494.36V367a14.38,14.38,0,0,1,14.38-14.38h40.26A14.38,14.38,0,0,1,170.05,367Z" fill="#961e15"/><path d="M149.92,479.06a14.38,14.38,0,0,1-14.38-14.39V352.57H115.41A14.38,14.38,0,0,0,101,367V494.36a14.38,14.38,0,0,0,14.38,14.38h40.26a14.38,14.38,0,0,0,14.38-14.38v-15.3Z" fill="#87100e"/><path d="M498.42,468.28a13.36,13.36,0,0,1-.21,2.36,13.78,13.78,0,0,1-16,11.23L31.71,401a10.68,10.68,0,0,1-8.81-10.53,10.93,10.93,0,0,1,.15-1.8,10.73,10.73,0,0,1,12.3-8.75l451.53,74.78a13.8,13.8,0,0,1,11.54,13.59Z" fill="#68594e"/><path d="M492.54,479.59a13.73,13.73,0,0,0,5.12-6.83L23.16,388.18c0,.16-.08.32-.11.48a10.84,10.84,0,0,0-.15,1.8A10.69,10.69,0,0,0,31.71,401l450.48,80.88A13.73,13.73,0,0,0,492.54,479.59Z" fill="#5b4a3f"/><path d="M497.34,387.16a13.8,13.8,0,0,1-10.69,18.27L35.31,481.36a10.69,10.69,0,0,1-11.85-6.94,11.57,11.57,0,0,1-.47-1.75,10.74,10.74,0,0,1,8.63-12.39l450.27-82a13.81,13.81,0,0,1,15.45,8.9Z" fill="#68594e"/><path d="M23.4,268.34A23.42,23.42,0,0,1,0,244.94V23.4A23.42,23.42,0,0,1,23.4,0H488.61A23.42,23.42,0,0,1,512,23.4V244.94a23.42,23.42,0,0,1-23.4,23.4Z" fill="#c69c6d"/><path d="M175.42,223.89a72.74,72.74,0,0,1-72.74-72.73V0H23.4A23.4,23.4,0,0,0,0,23.4V244.94a23.4,23.4,0,0,0,23.4,23.4H488.61A23.4,23.4,0,0,0,512,244.94V223.89Z" fill="#b78555"/><path d="M258.94,243.83a40.09,40.09,0,0,1-5.62-.39c-13.53-1.88-24.61-10.7-31.52-17.77a12.52,12.52,0,0,1,2.72-19.58c7.07-4,17.93-8.85,29.56-8.85a41.7,41.7,0,0,1,5.63.38c13.53,1.89,24.61,10.71,31.52,17.77A12.51,12.51,0,0,1,288.5,235c-7.06,4-17.93,8.86-29.55,8.86Z" fill="#b2d84a"/><path d="M69.66,226.18a28.27,28.27,0,1,1,28.27-28.27A28.31,28.31,0,0,1,69.66,226.18Z" fill="#e8bf4b"/><path d="M116.69,226.18A28.27,28.27,0,1,1,145,197.91,28.3,28.3,0,0,1,116.69,226.18Z" fill="#f7d772"/><path d="M412,239.94A43.42,43.42,0,0,1,381,226.82l-3.43-3.54a4.29,4.29,0,0,1,.85-6.65l66.91-40.71a4,4,0,0,1,5.88,2.15l1.68,5A43.13,43.13,0,0,1,412,239.94Z" fill="#b2d84a"/><path d="M31.73,130.78a88.55,88.55,0,0,0-.38-59.17L28.2,63a5,5,0,0,1,7.4-6L91.05,91.47l-.94,5.45a25.09,25.09,0,0,0,0,8.7l.94,5.45L36.19,145.23a5,5,0,0,1-7.43-5.94Z" fill="#d3c3a5"/><path d="M149.79,152.76c-39.4-13.53-61.09-31.82-61.09-51.49s21.7-38,61.09-51.49l7.3-2.51a2.71,2.71,0,0,1,3.6,2.56V152.7a2.72,2.72,0,0,1-3.6,2.57Z" fill="#e2d9c5"/><path d="M286.21,172.41c-10.29,0-20.67-.29-30.85-.87l-7.76-.44V31.44l7.76-.44c10.18-.58,20.56-.87,30.85-.87,9.89,0,19.89.28,29.73.82a8.34,8.34,0,0,1,7.89,8.34v124a8.34,8.34,0,0,1-7.9,8.34C306.1,172.13,296.1,172.41,286.21,172.41Z" fill="#e2d9c5"/><path d="M247.6,101.09v70l7.76.44c10.18.58,20.56.87,30.85.87,9.89,0,19.89-.28,29.72-.82a8.34,8.34,0,0,0,7.9-8.34V101.09Z" fill="#d6c6a5"/><path d="M239.69,170.42c-11.12-1-22.07-2.28-32.53-3.92l-3.59-.57a4,4,0,0,1-3.36-3.93V40.54a4,4,0,0,1,3.36-3.93l3.59-.56c10.46-1.65,21.41-3,32.53-3.93l8.94-.78V171.2Z" fill="#cc4637"/><path d="M200.21,101.09V162a4,4,0,0,0,3.36,3.93l3.59.56c10.46,1.65,21.41,3,32.53,3.93l8.94.78V101.09Z" fill="#c13127"/><path d="M402.79,43.59l10.6,3.21c44.7,13.55,70.34,33.4,70.34,54.47s-25.64,40.92-70.34,54.47L402.79,159Z" fill="#e2d9c5"/><path d="M483.72,101.09H402.78V159l10.61-3.21c44.7-13.55,70.34-33.4,70.34-54.47C483.73,101.21,483.72,101.15,483.72,101.09Z" fill="#d6c6a5"/><path d="M355.39,38.09a3.08,3.08,0,0,1,3.55-3l5.95.93c11.39,1.78,22.38,4,32.66,6.48L403.81,44V158.53l-6.26,1.53c-10.28,2.53-21.27,4.71-32.66,6.49l-5.95.93a3.08,3.08,0,0,1-3.55-3Z" fill="#cc4637"/><path d="M355.39,101.09v63.36a3.08,3.08,0,0,0,3.55,3l5.95-.93c11.39-1.78,22.38-4,32.66-6.48l6.26-1.54V101.09Z" fill="#c13127"/><path d="M403.81,60.64l-46.77-7a7,7,0,0,0-1.65,0V69l46.77,7a7.52,7.52,0,0,0,1.15.09c.17,0,.33,0,.5,0V60.64Z" fill="#b5241a"/><path d="M248.63,51.35l-46.77-7a7.65,7.65,0,0,0-1.65-.06V59.74L247,66.69a7.49,7.49,0,0,0,1.14.09c.17,0,.34,0,.51,0V51.35Z" fill="#b5241a"/><path d="M248.63,81.08l-46.77-7a8.36,8.36,0,0,0-1.65-.07V89.47l46.77,7a9,9,0,0,0,1.14.08c.17,0,.34,0,.51,0V81.08Z" fill="#b5241a"/><path d="M248.63,110.82l-46.77-6.95a7.07,7.07,0,0,0-1.65-.07v15.41l46.77,7a7.49,7.49,0,0,0,1.14.09c.17,0,.34,0,.51,0V110.82Z" fill="#b2201d"/><path d="M248.63,140.55l-46.77-7a7.65,7.65,0,0,0-1.65-.06V149l46.77,7a7.46,7.46,0,0,0,1.14.08l.51,0v-15.4Z" fill="#b2201d"/><path d="M403.81,86.66,357,79.7a7.62,7.62,0,0,0-1.65,0V95.05l46.77,7a7.52,7.52,0,0,0,1.15.09c.17,0,.33,0,.5,0V86.66Z" fill="#b5241a"/><path d="M403.81,112.68l-46.77-7a8.33,8.33,0,0,0-1.65,0v15.4l46.77,7a7.52,7.52,0,0,0,1.15.09c.17,0,.33,0,.5,0V112.67h0Z" fill="#b2201d"/><path d="M403.81,138.69,357,131.74a7.63,7.63,0,0,0-1.65-.05v15.4L402.16,154a7.5,7.5,0,0,0,1.15.08l.5,0V138.69Z" fill="#b2201d"/><circle cx="433.97" cy="78.04" r="8.83" fill="#ada189"/><path d="M420.59,191l-17.44,10.61-8.45,34.71a43.42,43.42,0,0,0,15,3.58l5.68-23.34,12.41,20.39a41.67,41.67,0,0,0,13.11-8.13l-12.15-20,22.56,5.49a43.72,43.72,0,0,0,3.68-15Z" fill="#89ad07"/><path d="M427.38,446.79l-4.13,24.5L438.43,474l4.16-24.65a7.83,7.83,0,0,0,.06-2L428,444.93A7.59,7.59,0,0,0,427.38,446.79Z" fill="#5b4a3f"/><path d="M36.63,101.09a88.4,88.4,0,0,1-4.9,29.69l-3,8.52a5,5,0,0,0,7.43,5.94l54.86-34.17-.93-5.44a25.85,25.85,0,0,1-.39-4.36c0-.06,0-.12,0-.18Z" fill="#ceb895"/><path d="M88.71,101.09c0,.06,0,.12,0,.18,0,19.67,21.7,38,61.09,51.49l7.3,2.51a2.72,2.72,0,0,0,3.6-2.56V101.09Z" fill="#d6c6a5"/><path d="M23.46,474.42a10.69,10.69,0,0,0,11.85,6.94l451.34-75.93a13.8,13.8,0,0,0,11.3-16,14.18,14.18,0,0,0-.61-2.3h0c-.08-.22-.17-.43-.26-.65L23.37,474.11C23.4,474.21,23.42,474.32,23.46,474.42Z" fill="#5b4a3f"/><path d="M438.29,389.83a7.78,7.78,0,0,0-1.45-3.36l-13.55,2.47a7.68,7.68,0,0,0-.21,3.45L427,415.47l15.21-2.56Z" fill="#5b4a3f"/></g></g></svg>