<svg xmlns="http://www.w3.org/2000/svg" xmlns:xlink="http://www.w3.org/1999/xlink" viewBox="0 0 512 477.08"><defs><linearGradient id="linear-gradient" x1="38.52" y1="336.93" x2="-13.69" y2="336.93" gradientTransform="matrix(1.02, 0, 0, -1.02, 24.76, 513.73)" gradientUnits="userSpaceOnUse"><stop offset="0" stop-color="#f2ae6f"/><stop offset="1" stop-color="#f2d1a5"/></linearGradient><linearGradient id="linear-gradient-2" x1="-3462.92" y1="336.93" x2="-3515.14" y2="336.93" gradientTransform="translate(-3083.96 513.73) rotate(180) scale(1.02)" xlink:href="#linear-gradient"/><linearGradient id="linear-gradient-3" x1="125.4" y1="119.8" x2="32.74" y2="119.8" gradientTransform="matrix(1.02, 0, 0, -1.02, 24.76, 513.73)" gradientUnits="userSpaceOnUse"><stop offset="0" stop-color="#74d2e8"/><stop offset="1" stop-color="#baeaf5"/></linearGradient><linearGradient id="linear-gradient-4" x1="-6568.05" y1="119.8" x2="-6660.71" y2="119.8" gradientTransform="translate(-6339.54 513.73) rotate(180) scale(1.02)" xlink:href="#linear-gradient-3"/><linearGradient id="linear-gradient-5" x1="226.72" y1="258.94" x2="226.72" y2="66.35" xlink:href="#linear-gradient-3"/><linearGradient id="linear-gradient-6" x1="134.14" y1="182.23" x2="134.14" y2="28.7" gradientTransform="matrix(1.02, 0, 0, -1.02, 24.76, 513.73)" gradientUnits="userSpaceOnUse"><stop offset="0" stop-color="#ac6c58"/><stop offset="1" stop-color="#da9b8c"/></linearGradient><linearGradient id="linear-gradient-7" x1="-2303.3" y1="182.23" x2="-2303.3" y2="28.7" gradientTransform="translate(-1998.76 513.73) rotate(180) scale(1.02)" xlink:href="#linear-gradient-6"/><linearGradient id="linear-gradient-8" x1="181.19" y1="166.62" x2="181.19" y2="107.51" gradientTransform="matrix(1.02, 0, 0, -1.02, 24.76, 513.73)" gradientUnits="userSpaceOnUse"><stop offset="0" stop-color="#f9edaf"/><stop offset="1" stop-color="#fffcdd"/></linearGradient><linearGradient id="linear-gradient-9" x1="-2256.26" y1="166.62" x2="-2256.26" y2="107.51" gradientTransform="translate(-1998.76 513.73) rotate(180) scale(1.02)" xlink:href="#linear-gradient-8"/><linearGradient id="linear-gradient-10" x1="226.72" y1="16.22" x2="226.72" y2="364.2" xlink:href="#linear-gradient"/><linearGradient id="linear-gradient-11" x1="59.54" y1="320.11" x2="59.54" y2="446.89" gradientTransform="matrix(1.02, 0, 0, -1.02, 24.76, 513.73)" gradientUnits="userSpaceOnUse"><stop offset="0" stop-color="#d4dbdb"/><stop offset="1" stop-color="#f3f3f3"/></linearGradient><linearGradient id="linear-gradient-12" x1="-2377.91" y1="320.11" x2="-2377.91" y2="446.89" gradientTransform="translate(-1998.76 513.73) rotate(180) scale(1.02)" xlink:href="#linear-gradient-11"/></defs><title>Asset 1</title><g id="Layer_2" data-name="Layer 2"><g id="Capa_1" data-name="Capa 1"><path d="M109.3,164.07a54.65,54.65,0,0,0-109.3,0c0,41.31,34.32,66.68,64.51,66.68s44.79-36.5,44.79-66.68Z" fill="url(#linear-gradient)"/><path d="M402.7,164.07a54.65,54.65,0,1,1,109.3,0c0,41.31-34.32,66.68-64.51,66.68s-44.79-36.5-44.79-66.68Z" fill="url(#linear-gradient-2)"/><path d="M155.56,306C88,317.39,45.26,381.46,35,446.66a26.32,26.32,0,0,0,26,30.42H95.21L205.86,306h-50.3Z" fill="url(#linear-gradient-3)"/><path d="M356.44,306C424,317.39,466.74,381.46,477,446.66a26.32,26.32,0,0,1-26,30.42H416.79L306.14,306h50.3Z" fill="url(#linear-gradient-4)"/><path d="M416.79,477.08c0-109-72-197.3-160.79-197.3S95.21,368.11,95.21,477.08Z" fill="url(#linear-gradient-5)"/><path d="M148,330.89A189.81,189.81,0,0,0,127.78,358c37.65,23.34,81.93,35.89,128.22,35.89a249.18,249.18,0,0,0,65.83-8.77A16.85,16.85,0,1,0,313,352.63a214.79,214.79,0,0,1-57,7.63,209.91,209.91,0,0,1-108-29.37Z" fill="#71c4d1"/><path d="M95.21,477.08H227.94c-19.07-31.36-40.27-125-39.67-179C133.32,329.47,95.21,397.81,95.21,477.08Z" fill="url(#linear-gradient-6)"/><path d="M127.79,358a238,238,0,0,0,71.06,29.31c-2.54-12.19-4.73-24.59-6.46-36.65a205.18,205.18,0,0,1-44.34-19.78A189.73,189.73,0,0,0,127.79,358Z" fill="#a86455"/><path d="M416.79,477.08H284.06c19.07-31.36,40.27-125,39.67-179C378.68,329.47,416.79,397.81,416.79,477.08Z" fill="url(#linear-gradient-7)"/><path d="M256,360.26c-11.85,12.78-39.6,32.51-58,43.46a17.49,17.49,0,0,1-24.86-7.66c-7.86-17.21-13.37-43.2-7.77-78.21Z" fill="url(#linear-gradient-8)"/><path d="M256,360.26c11.85,12.78,39.6,32.51,58,43.46a17.49,17.49,0,0,0,24.86-7.66c7.86-17.21,13.37-43.2,7.77-78.21Z" fill="url(#linear-gradient-9)"/><ellipse cx="256" cy="180.13" rx="197.3" ry="180.13" fill="url(#linear-gradient-10)"/><ellipse cx="166.36" cy="214.07" rx="15.23" ry="12.24" fill="#eaadcd"/><ellipse cx="345.64" cy="214.07" rx="15.23" ry="12.24" fill="#eaadcd"/><circle cx="192.6" cy="183.88" r="30.22" fill="#fff"/><circle cx="319.64" cy="183.89" r="30.22" transform="translate(27.38 408.76) rotate(-67.49)" fill="#fff"/><circle cx="192.5" cy="183.92" r="18" fill="#3b3b44"/><circle cx="319.49" cy="183.82" r="18" transform="translate(78.6 462.82) rotate(-79.11)" fill="#3b3b44"/><path d="M256,215A22.1,22.1,0,0,1,240.93,209a5.1,5.1,0,0,1,6.93-7.48,11.6,11.6,0,0,0,16.27,0,5.1,5.1,0,1,1,6.94,7.48A22.1,22.1,0,0,1,256,215Z" fill="#3b3b44"/><path d="M133.51,187.24a9.83,9.83,0,0,1-1.62-.13c-12.13-1.93-22.38-5-31.32-9.41a10.19,10.19,0,1,1,9-18.3c7.1,3.48,15.45,6,25.54,7.57a10.2,10.2,0,0,1-1.59,20.27Z" fill="#e8aa70"/><path d="M378.49,187.24A10.2,10.2,0,0,1,376.9,167c10.09-1.61,18.44-4.09,25.54-7.57a10.19,10.19,0,1,1,9,18.3c-8.94,4.4-19.19,7.48-31.31,9.41a10,10,0,0,1-1.63.13Z" fill="#e8aa70"/><path d="M71.13,148.93c35.75,1.53,38.16-83.61,62.36-110C79.16,6.81,45.59,59.54,39.28,89.35S43,147.73,71.13,148.93Z" fill="url(#linear-gradient-11)"/><path d="M440.87,148.93c-35.75,1.53-38.16-83.61-62.36-110,54.33-32.12,87.9,20.61,94.21,50.42s-3.76,58.38-31.85,59.58Z" fill="url(#linear-gradient-12)"/><path d="M163.25,339.14a137.84,137.84,0,0,0,3.53,38.29,243.29,243.29,0,0,0,51,13.57c14.81-10.16,30.2-22.06,38.25-30.74a211.5,211.5,0,0,1-92.75-21.12Z" fill="#f2e07e"/><path d="M294.26,391a246.29,246.29,0,0,0,27.57-5.86A16.85,16.85,0,1,0,313,352.63a214.92,214.92,0,0,1-57,7.63c8.05,8.69,23.45,20.58,38.26,30.75Z" fill="#f2e07e"/></g></g></svg>