<svg xmlns="http://www.w3.org/2000/svg" viewBox="0 0 511 486.9"><title>Asset 2</title><g id="Layer_2" data-name="Layer 2"><g id="Layer_1-2" data-name="Layer 1"><path d="M382.33,260c0,105.58-85.58,191.17-191.16,191.17S0,365.62,0,260,85.59,68.88,191.17,68.88,382.33,154.46,382.33,260Z" fill="#ffae4d"/><path d="M278.58,120.43c0-17-38.53-30.69-86-30.69s-86,13.74-86,30.69,38.52,30.7,86.05,30.7S278.58,137.38,278.58,120.43Z" fill="#ff9b36"/><path d="M215.78,449.65a195.9,195.9,0,0,1-24.61,1.56C85.59,451.21,0,365.62,0,260.05S85.59,68.88,191.17,68.88a195.9,195.9,0,0,1,24.61,1.56c-94,12.08-166.57,92.35-166.57,189.61S121.82,437.57,215.78,449.65Z" fill="#ff9b36"/><path d="M125.24,93.1A49.56,49.56,0,0,0,211.5,44.28c-5.12-9-14.47-19.07-25.4-27.29-17.87-13.44-40-22-54.73-13.69C107.55,16.78,111.77,69.28,125.24,93.1Z" fill="#479838"/><path d="M179.17,117.08a49.62,49.62,0,0,0,32.33-72.8c-5.11-9-14.46-19.07-25.4-27.29-10.49,10.76-18.75,23-22.78,33.3A60.3,60.3,0,0,0,179.17,117.08Z" fill="#317f21"/><path d="M189.24,56.88a49.56,49.56,0,0,1-8.41,59.79A49.6,49.6,0,0,0,211.5,44.28c-5.11-9-14.46-19.07-25.4-27.29a124.11,124.11,0,0,0-15,18.55C178.87,42.39,185.31,49.93,189.24,56.88Z" fill="#317f21"/><path d="M173.22,54.18a49.55,49.55,0,1,0,92.27,36.17c10-25.47,6.77-78-18.71-88S183.21,28.69,173.22,54.18Z" fill="#77bc4d"/><path d="M500.84,287.67A10.18,10.18,0,0,1,511,298.43C505.39,403.46,418.46,486.9,312,486.9s-193.36-83.44-199-188.47a10.18,10.18,0,0,1,10.15-10.76Z" fill="#fff4c3"/><path d="M472.67,287.67a160.63,160.63,0,0,1-321.26,0Z" fill="#f74f43"/><path d="M425.62,401.25a160.12,160.12,0,0,1-113.58,47V287.67Z" fill="#ff8e7d"/><path d="M312,287.67V448.29a160.09,160.09,0,0,1-113.58-47Z" fill="#ff7061"/><path d="M256.1,403.55H256a7.71,7.71,0,0,1-7.65-7.77l0-5.07a7.71,7.71,0,0,1,7.71-7.65h.06a7.71,7.71,0,0,1,7.65,7.77l0,5.07A7.71,7.71,0,0,1,256.1,403.55Z" fill="#a46a52"/><path d="M276.7,412.62a7.71,7.71,0,0,1-5.2-13.41l3.76-3.43a7.71,7.71,0,0,1,10.39,11.4l-3.76,3.43A7.64,7.64,0,0,1,276.7,412.62Z" fill="#a46a52"/><path d="M368,403.55a7.72,7.72,0,0,1-7.72-7.65l0-5.07a7.72,7.72,0,0,1,7.65-7.77h.07a7.71,7.71,0,0,1,7.71,7.65l0,5.07a7.71,7.71,0,0,1-7.65,7.77Z" fill="#a46a52"/><path d="M347.38,412.62a7.68,7.68,0,0,1-5.2-2l-3.76-3.43a7.71,7.71,0,0,1,10.39-11.4l3.76,3.43a7.71,7.71,0,0,1-5.19,13.41Z" fill="#a46a52"/><path d="M434.43,333.1a7.68,7.68,0,0,1-6.35-3.33l-2.88-4.18a7.71,7.71,0,1,1,12.69-8.75l2.88,4.17a7.7,7.7,0,0,1-2,10.72A7.6,7.6,0,0,1,434.43,333.1Z" fill="#a46a52"/><path d="M422.48,352.17a8.29,8.29,0,0,1-1.11-.08l-5-.73a7.71,7.71,0,1,1,2.2-15.26l5,.73a7.71,7.71,0,0,1-1.09,15.34Z" fill="#a46a52"/><path d="M189.64,333.1a7.62,7.62,0,0,1-4.37-1.37,7.71,7.71,0,0,1-2-10.72l2.88-4.17a7.71,7.71,0,1,1,12.69,8.75L196,329.77A7.74,7.74,0,0,1,189.64,333.1Z" fill="#a46a52"/><path d="M201.59,352.17a7.71,7.71,0,0,1-1.09-15.34l5-.73a7.71,7.71,0,1,1,2.2,15.26l-5,.73A8.56,8.56,0,0,1,201.59,352.17Z" fill="#a46a52"/></g></g></svg>