<svg xmlns="http://www.w3.org/2000/svg" viewBox="0 0 461.21 512"><title>Asset 2</title><g id="Layer_2" data-name="Layer 2"><g id="Capa_1" data-name="Capa 1"><path d="M95.49,117.84v58.92a13.21,13.21,0,1,1-26.41,0V147.3a13.21,13.21,0,0,0-26.41,0v86.35a13.21,13.21,0,1,1-26.41,0V81.17a23.47,23.47,0,0,0,7.16,1.11H95.49v35.56Z" fill="#fcb630"/><path d="M31,233.65V82.29H23.42a23.59,23.59,0,0,1-7.17-1.12V233.65a13.2,13.2,0,0,0,20.57,11A13.19,13.19,0,0,1,31,233.65Z" fill="#f58a1f"/><path d="M83.81,176.76V147.3a13.21,13.21,0,0,0-20.57-11,12.83,12.83,0,0,1,2,1.63,13.12,13.12,0,0,1,3.87,9.33v29.46a13.2,13.2,0,0,0,20.57,11A13.19,13.19,0,0,1,83.81,176.76Z" fill="#f58a1f"/><path d="M449,36.57a12.19,12.19,0,0,1,12.19,12.19A14.22,14.22,0,0,1,447,63H119.87V36.57Z" fill="#d67728"/><path d="M457,45.61A14.21,14.21,0,0,1,447,49.78H119.87V63H447a14.22,14.22,0,0,0,14.23-14.22,12,12,0,0,0-1.79-6.32A14.15,14.15,0,0,1,457,45.61Z" fill="#c65a2e"/><path d="M126,38.65V67a23.42,23.42,0,0,1-23.42,23.41H23.42A23.41,23.41,0,0,1,0,67V38.65A23.41,23.41,0,0,1,23.42,15.24h79.13A23.42,23.42,0,0,1,126,38.65Z" fill="#b95f28"/><path d="M102.55,55.05H23.42A23.43,23.43,0,0,1,.26,35.14,24,24,0,0,0,0,38.65V67A23.41,23.41,0,0,0,23.42,90.41h79.13A23.41,23.41,0,0,0,126,67V38.65a24,24,0,0,0-.26-3.51A23.43,23.43,0,0,1,102.55,55.05Z" fill="#a04123"/><path d="M352.51,288.1v206A17.89,17.89,0,0,1,334.63,512h-204a17.89,17.89,0,0,1-17.88-17.88v-206a54.45,54.45,0,0,1,54.45-54.45H298.06A54.45,54.45,0,0,1,352.51,288.1Z" fill="#ffc966"/><path d="M211.05,494.12v-206a54.45,54.45,0,0,1,54.45-54.45H167.21a54.45,54.45,0,0,0-54.45,54.45v206A17.89,17.89,0,0,0,130.64,512h98.29A17.88,17.88,0,0,1,211.05,494.12Z" fill="#f8a563"/><polygon points="112.76 462.22 352.51 462.22 352.51 307.81 289.32 307.81 253.82 307.81 222.99 307.81 185.99 307.81 184.49 307.81 112.76 307.81 112.76 462.22" fill="#fff0ce"/><polygon points="211.05 307.81 185.99 307.81 184.49 307.81 112.76 307.81 112.76 462.22 211.05 462.22 211.05 307.81" fill="#fce0ac"/><path d="M280.38,280.38V421.59a15.23,15.23,0,0,1-16,15.21,15.51,15.51,0,0,1-14.5-15.64V293.08a12.7,12.7,0,1,0-25.39,0V321a15.24,15.24,0,0,1-16,15.21A15.51,15.51,0,0,1,194,320.59V220.45h86.35v59.93Z" fill="#fcb630"/><path d="M211.05,320.59V220.44H194V320.59a15.51,15.51,0,0,0,14.5,15.64,15.13,15.13,0,0,0,9.3-2.63A15.87,15.87,0,0,1,211.05,320.59Z" fill="#f58a1f"/><path d="M266.92,421.16V293.08a12.68,12.68,0,0,0-21.2-9.41c.15.14.32.28.47.43a12.69,12.69,0,0,1,3.72,9V421.16c0,8.2,6.3,15.26,14.49,15.64a15.16,15.16,0,0,0,9.31-2.63A15.88,15.88,0,0,1,266.92,421.16Z" fill="#f58a1f"/><polygon points="173.26 391.11 184.98 411.43 173.26 431.75 149.79 431.75 138.07 411.43 149.79 391.11 173.26 391.11" fill="#f48131"/><polygon points="207.8 370.79 219.52 391.11 207.8 411.43 184.33 411.43 172.61 391.11 184.33 370.79 207.8 370.79" fill="#f8a563"/><polygon points="173.26 350.48 184.98 370.79 173.26 391.11 149.79 391.11 138.07 370.79 149.79 350.48 173.26 350.48" fill="#fcb630"/><path d="M42.67,289.52v12.19a13.21,13.21,0,1,1-26.41,0V289.52a13.21,13.21,0,0,1,26.41,0Z" fill="#fcb630"/><path d="M29.46,301.71V289.52a13.19,13.19,0,0,1,6.6-11.42,13.06,13.06,0,0,0-6.6-1.78,13.21,13.21,0,0,0-13.21,13.2v12.19a13.19,13.19,0,0,0,19.81,11.43A13.19,13.19,0,0,1,29.46,301.71Z" fill="#f58a1f"/><path d="M63,108.7a7.62,7.62,0,0,1-7.62-7.62V7.62a7.62,7.62,0,1,1,15.24,0v93.46A7.62,7.62,0,0,1,63,108.7Z" fill="#d67728"/><path d="M95.49,109.21a7.62,7.62,0,0,1-7.62-7.62V8.13a7.62,7.62,0,0,1,15.24,0v93.46A7.62,7.62,0,0,1,95.49,109.21Z" fill="#d67728"/><path d="M30.48,109.21a7.62,7.62,0,0,1-7.62-7.62V8.13a7.62,7.62,0,0,1,15.24,0v93.46A7.63,7.63,0,0,1,30.48,109.21Z" fill="#d67728"/><path d="M63,58a7.62,7.62,0,0,1-7.62-7.62v50.73a7.62,7.62,0,1,0,15.24,0V50.35A7.62,7.62,0,0,1,63,58Z" fill="#c65a2e"/><path d="M95.49,58.48a7.62,7.62,0,0,1-7.62-7.62v50.73a7.62,7.62,0,0,0,15.24,0V50.86A7.62,7.62,0,0,1,95.49,58.48Z" fill="#c65a2e"/><path d="M30.48,58.48a7.62,7.62,0,0,1-7.62-7.62v50.73a7.62,7.62,0,0,0,15.24,0V50.86A7.62,7.62,0,0,1,30.48,58.48Z" fill="#c65a2e"/><path d="M328.13,201v22.64a10,10,0,0,1-10,10h-171a10,10,0,0,1-10-10V201a10,10,0,0,1,10-10h171A10,10,0,0,1,328.13,201Z" fill="#f48131"/><path d="M211.77,212.32A21.33,21.33,0,0,1,190.44,191H147.16a10,10,0,0,0-10,10v22.64a10,10,0,0,0,10,10h171a10,10,0,0,0,10-10V212.32Z" fill="#ee6d2b"/></g></g></svg>