<svg xmlns="http://www.w3.org/2000/svg" viewBox="0 0 488.29 512"><title>Asset 1</title><g id="Layer_2" data-name="Layer 2"><g id="Capa_1" data-name="Capa 1"><circle cx="220.65" cy="153.07" r="123.03" fill="#fee7c9"/><path d="M343.69,153.07a123.15,123.15,0,0,1-147,120.69,123.06,123.06,0,0,0,0-241.38,123.15,123.15,0,0,1,147,120.69Z" fill="#ffd597"/><circle cx="151.59" cy="235.2" r="123.03" fill="#ba7c65"/><path d="M274.62,235.2A123,123,0,0,1,131.68,356.62a123,123,0,0,0,0-242.85A123.1,123.1,0,0,1,274.62,235.19Z" fill="#a96a53"/><path d="M109.84,147,38.78,116.74l-.15-.39a10.13,10.13,0,0,1,5.62-13.2L76.08,90.32A10.14,10.14,0,0,1,89.28,96Z" fill="#fcc16d"/><path d="M155.1,259.31,84,229.07,52.8,151.55l71.07,30.24Z" fill="#fcc16d"/><path d="M162.74,305.43l-31.82,12.82a10.13,10.13,0,0,1-13.2-5.62L96.24,259.34l71.06,30.24,1.07,2.64a10.14,10.14,0,0,1-5.63,13.21Z" fill="#fcc16d"/><path d="M109.84,147,77.12,133.06,65.05,103.43a10.06,10.06,0,0,0-6.65-6l17.67-7.13A10.15,10.15,0,0,1,89.28,96Z" fill="#fca62f"/><path d="M155.1,259.31,123,245.63,91.33,167.94l32.54,13.85Z" fill="#fca62f"/><path d="M162.74,305.43l-13.24,5.34L135.33,276l32,13.61,1.07,2.64a10.14,10.14,0,0,1-5.63,13.21Z" fill="#fca62f"/><path d="M105.8,136.94l21.92,54.39L56.64,161.08l-18-44.72a10.11,10.11,0,0,1,.16-7.94Z" fill="#fff2e3"/><path d="M127.72,191.33,95.23,177.5,73,123l32.78,14Z" fill="#fee7c9"/><path d="M150.35,247.49l18,44.73a10.12,10.12,0,0,1-.16,7.94l-67-28.52-21.92-54.4Z" fill="#fff2e3"/><path d="M168.21,300.17,140.35,288.3l-22.21-54.52,32.2,13.7,18,44.74a10.14,10.14,0,0,1-.16,7.95Z" fill="#fee7c9"/><circle cx="341.36" cy="120.87" r="54.71" fill="#fb4a59"/><path d="M396.07,120.87a54.75,54.75,0,0,1-72,51.93,54.72,54.72,0,0,0,0-103.86,54.75,54.75,0,0,1,72,51.93Z" fill="#f82f40"/><path d="M354.53,116.2a7.61,7.61,0,0,1-3.82-14.2A109.37,109.37,0,0,0,405.19,7.61a7.62,7.62,0,0,1,15.23,0,124.65,124.65,0,0,1-62.09,107.57A7.61,7.61,0,0,1,354.53,116.2Z" fill="#e22334"/><path d="M367.73,124.15a27,27,0,0,1-27-27,7.62,7.62,0,0,1,15.23,0,11.79,11.79,0,0,0,11.77,11.78,7.61,7.61,0,0,1,0,15.22Z" fill="#e22334"/><circle cx="336.7" cy="281.12" r="123.03" fill="#fcc16d"/><path d="M459.74,281.12A123.11,123.11,0,0,1,316.79,402.54a123,123,0,0,0,0-242.84,123,123,0,0,1,143,121.42Z" fill="#fcb44d"/><path d="M29.43,328.7,184.75,484H47.8Z" fill="#fb4a59"/><path d="M389.79,484H239.36L71.1,315.78H221.54Z" fill="#fb4a59"/><path d="M460.4,315.78,440.91,480.54,276.14,315.78Z" fill="#fb4a59"/><path d="M460.4,315.78,440.91,480.54l-39-39,14.87-125.77Z" fill="#f82f40"/><path d="M29.43,328.7,50.5,349.77H31.92Z" fill="#f82f40"/><path d="M255.53,349.77H105.1l-34-34H221.54Z" fill="#f82f40"/><path d="M460.4,315.78l-4,34H310.13l-34-34Z" fill="#f82f40"/><path d="M87.75,315.78l34,34H33.18l-1.42-1.42L27.9,315.78Z" fill="#fb4a59"/><path d="M326.9,349.77H238.32l-34-34H292.9Z" fill="#fb4a59"/><path d="M256,484H167.42L31.76,348.35,27.9,315.78H87.75Z" fill="#70d9e6"/><path d="M121.74,349.77H33.18l-1.42-1.42L27.9,315.78H87.75Z" fill="#22c7db"/><path d="M442.68,465.56,440.49,484H372.58L204.32,315.78H292.9Z" fill="#70d9e6"/><path d="M442.68,465.56,440.49,484h-43.6l6.79-57.46Z" fill="#22c7db"/><path d="M326.9,349.77H238.32l-34-34H292.9Z" fill="#22c7db"/><path d="M441.7,473.89l-2.92,24.61A15.3,15.3,0,0,1,423.59,512H64.7a15.31,15.31,0,0,1-15.19-13.5L46.6,473.88Z" fill="#fc9aa1"/><path d="M284,512H195.39l-38.12-38.12h88.58Z" fill="#d4f2f6"/><path d="M441.69,473.88l-2.91,24.62A15.29,15.29,0,0,1,423.6,512H400.55l-7.44-7.44-30.68-30.68Z" fill="#d4f2f6"/><path d="M441.69,473.88l-2.91,24.62A15.29,15.29,0,0,1,423.6,512H400.55l-7.44-7.44a15.06,15.06,0,0,0,2.07-6.06l2.91-24.62Z" fill="#a8e7ef"/><path d="M459.32,329.47H29a29,29,0,0,1-29-29v-.26a29,29,0,0,1,29-29H459.32a29,29,0,0,1,29,29v.26A29,29,0,0,1,459.32,329.47Z" fill="#fb6672"/><path d="M488.29,300.24v.26a29,29,0,0,1-29,29h-36a29,29,0,0,0,29-29v-.26a29,29,0,0,0-29-29h36A29,29,0,0,1,488.29,300.24Z" fill="#fb4a59"/><path d="M322.65,235.09a7.62,7.62,0,0,1-1.86-15l8.48-2.15A7.61,7.61,0,0,1,333,232.7l-8.48,2.15a7.63,7.63,0,0,1-1.88.24Z" fill="#ffd597"/><path d="M380,243.89a7.61,7.61,0,0,1-1.87-15l8.48-2.15a7.61,7.61,0,1,1,3.75,14.75l-8.48,2.15A7.63,7.63,0,0,1,380,243.89Z" fill="#fb4a59"/><path d="M363.3,212.57a7.61,7.61,0,0,1-7.45-6.08l-1.75-8.57A7.61,7.61,0,1,1,369,194.86l1.75,8.57a7.61,7.61,0,0,1-5.93,9,7.93,7.93,0,0,1-1.53.15Z" fill="#f82f40"/><path d="M277.86,246a7.58,7.58,0,0,1-5.49-2.35l-6.06-6.31a7.61,7.61,0,1,1,11-10.53l6.05,6.31a7.61,7.61,0,0,1-5.5,12.88Z" fill="#fee7c9"/><path d="M195.46,177.88h-.14a7.62,7.62,0,0,1,0-15.23h.14a7.62,7.62,0,0,1,0,15.23Z" fill="#865240"/><path d="M168.17,206.49h-.11a7.61,7.61,0,0,1,0-15.22h.11a7.61,7.61,0,1,1,0,15.22Z" fill="#a96a53"/><path d="M195.41,211.12h-.11a7.61,7.61,0,0,1,0-15.22h.11a7.61,7.61,0,1,1,0,15.22Z" fill="#925b46"/><path d="M189.5,81.78h-.14a7.61,7.61,0,0,1,0-15.22h.14a7.61,7.61,0,0,1,0,15.22Z" fill="#ffd597"/><path d="M235,104.67h-.1a7.61,7.61,0,1,1,0-15.22h.1a7.61,7.61,0,1,1,0,15.22Z" fill="#fcb44d"/></g></g></svg>