<svg xmlns="http://www.w3.org/2000/svg" viewBox="0 0 382.96 512"><title>Asset 1</title><g id="Layer_2" data-name="Layer 2"><g id="Capa_1" data-name="Capa 1"><path d="M335.09,122.8l23.63,28.25A104.06,104.06,0,0,1,383,217.81V449.56A62.44,62.44,0,0,1,320.52,512H62.44A62.44,62.44,0,0,1,0,449.56V217.81a104.06,104.06,0,0,1,24.24-66.76L47.87,122.8Z" fill="#dd636e"/><path d="M316.36,449.56H66.6a20.81,20.81,0,0,1-20.81-20.81V241.43A20.81,20.81,0,0,1,66.6,220.62H316.36a20.81,20.81,0,0,1,20.81,20.81V428.75A20.81,20.81,0,0,1,316.36,449.56Z" fill="#ecf4ff"/><path d="M45.79,64.52H337.17v33.3H45.79Z" fill="#f1d0a5"/><path d="M314.28,64.52h22.89v33.3H314.28Z" fill="#f1b986"/><path d="M358.72,151.05,335.09,122.8H47.87L24.24,151.05A104,104,0,0,0,15,164l24.86-4.86a41.31,41.31,0,0,1,16,0l31.89,6.23a41.31,41.31,0,0,0,16,0l31.89-6.23a41.31,41.31,0,0,1,16,0l31.89,6.23a41.31,41.31,0,0,0,16,0l31.89-6.23a41.31,41.31,0,0,1,16,0l31.89,6.23a41.31,41.31,0,0,0,16,0l37.6-7.35a11.07,11.07,0,0,1,4.55,0h0a11.14,11.14,0,0,1,7.11,5,104,104,0,0,1,15.59,54.76V449.56A62.44,62.44,0,0,1,297.63,512h22.89A62.45,62.45,0,0,0,383,449.56V217.81a104.06,104.06,0,0,0-24.24-66.76Z" fill="#da4a54"/><path d="M337.17,97.82l26.49,26.49a8.33,8.33,0,0,1-7.48,14.06l-19.11-3.74a10.15,10.15,0,0,0-4,0l-43.91,8.59a10.15,10.15,0,0,1-4,0l-43.91-8.59a10.15,10.15,0,0,0-4,0l-43.91,8.59a10.15,10.15,0,0,1-4,0l-43.91-8.59a10.15,10.15,0,0,0-4,0l-43.91,8.59a10.15,10.15,0,0,1-4,0l-43.91-8.59a10.15,10.15,0,0,0-4,0l-19.11,3.74a8.33,8.33,0,0,1-7.48-14.06L45.79,97.82Z" fill="#b3e59f"/><path d="M363.66,124.31,337.17,97.82H300.75l36.93,36.93,18.49,3.62a8.33,8.33,0,0,0,7.49-14.06Z" fill="#95d6a4"/><path d="M337.17,64.52H45.79A20.81,20.81,0,0,1,25,43.71V20.81A20.81,20.81,0,0,1,45.79,0H337.17A20.81,20.81,0,0,1,358,20.81v22.9A20.81,20.81,0,0,1,337.17,64.52Z" fill="#b3e59f"/><path d="M337.17,0H304.91a20.81,20.81,0,0,1,20.81,20.81v22.9a20.81,20.81,0,0,1-20.81,20.81h32.26A20.81,20.81,0,0,0,358,43.71V20.81A20.81,20.81,0,0,0,337.17,0Z" fill="#95d6a4"/><path d="M246.93,317.18c-11.49,0-20.81-16.65-20.81-16.65s9.32-16.65,20.81-16.65c6.6,0,12.48,5.48,16.29,10.16a10.25,10.25,0,0,1,0,13C259.41,311.69,253.53,317.18,246.93,317.18Z" fill="#95d6a4"/><path d="M242.77,279.71c0,11.5-16.65,20.82-16.65,20.82s-16.65-9.32-16.65-20.82c0-6.59,5.49-12.48,10.16-16.29a10.27,10.27,0,0,1,13,0C237.29,267.24,242.77,273.12,242.77,279.71Z" fill="#b3e59f"/><path d="M134.87,391.77c8.83,8.83,67.52,6.07,97.14-23.54,19.4-19.41,13.52-48.3-5.89-67.7s-48.29-25.29-67.7-5.89c-29.61,29.62-32.38,88.3-23.54,97.13Z" fill="#dd636e"/><path d="M243.83,342.64a106.52,106.52,0,0,1-40.46,20.45c-27.5,7.36-54.27,3.91-71.85-7.34-2.3,17.42-.7,32,3.36,36,8.83,8.83,67.51,6.07,97.13-23.54a39.42,39.42,0,0,0,11.82-25.58Z" fill="#da4a54"/><path d="M303.87,390.69H287.22a7.73,7.73,0,1,1,0-15.46h16.65a7.73,7.73,0,1,1,0,15.46Z" fill="#dd636e"/><path d="M303.87,424H287.22a7.73,7.73,0,0,1,0-15.46h16.65a7.73,7.73,0,0,1,0,15.46Z" fill="#dd636e"/><path d="M95.74,390.69H79.09a7.73,7.73,0,0,1,0-15.46H95.74a7.73,7.73,0,1,1,0,15.46Z" fill="#dd636e"/><path d="M95.74,424H79.09a7.73,7.73,0,1,1,0-15.46H95.74a7.73,7.73,0,0,1,0,15.46Z" fill="#dd636e"/><path d="M178.29,329.59a7.73,7.73,0,0,1-5.46-13.19l5.88-5.88a7.73,7.73,0,0,1,10.93,10.92l-5.89,5.89A7.68,7.68,0,0,1,178.29,329.59Z" fill="#ffe07d"/><path d="M204.78,356.08a7.73,7.73,0,0,1-5.46-13.19L205.2,337a7.73,7.73,0,0,1,10.93,10.92l-5.89,5.89A7.68,7.68,0,0,1,204.78,356.08Z" fill="#ffe07d"/><path d="M167.9,366.47a7.73,7.73,0,0,1-5.46-13.19l5.89-5.89a7.73,7.73,0,0,1,10.92,10.93l-5.88,5.89A7.71,7.71,0,0,1,167.9,366.47Z" fill="#ffe07d"/></g></g></svg>