<svg xmlns="http://www.w3.org/2000/svg" viewBox="0 0 400 464"><title>Asset 2</title><g id="Layer_2" data-name="Layer 2"><g id="Flat"><path d="M398.67,165.81a40,40,0,0,0-48.88-28.47L263.86,160H250.6a88,88,0,1,0-101.2,0H136.14L50.21,137.34a40,40,0,1,0-20.4,77.35h0l58.35,15.39A32,32,0,0,1,112,261v37.7A60,60,0,0,1,106.4,324L68,406.52a40,40,0,1,0,72,34.94L175.52,382a28.76,28.76,0,0,1,19.66-13.78,28.19,28.19,0,0,1,29,13.32L260,441.46a40,40,0,0,0,72-34.94h0L293.6,324a60,60,0,0,1-5.6-25.31V261a32,32,0,0,1,23.84-30.94l58.35-15.39a40,40,0,0,0,28.48-48.88Z" fill="#ad6643"/><circle cx="200" cy="240" r="16" fill="#35a872"/><circle cx="200" cy="304" r="16" fill="#eb423f"/><circle cx="168" cy="80" r="8" fill="#5e3725"/><circle cx="232" cy="80" r="8" fill="#5e3725"/><path d="M239.16,115.58h0a8,8,0,0,0-14.3-7.15h0l.06-.1c-.26.48-6.51,11.69-24.9,11.69s-24.65-11.21-24.9-11.69l.05.1h0a8,8,0,0,0-14.3,7.15h0a1.21,1.21,0,0,0,.1.19l0,.08c1.34,2.48,11.83,20.15,39,20.15s37.68-17.67,39-20.15l.05-.08.1-.19Z" fill="#5e3725"/><path d="M256,176a16,16,0,0,1-16,16c-8.84,0-40-7.16-40-16s31.16-16,40-16A16,16,0,0,1,256,176Z" fill="#fbe9d8"/><path d="M144,176a16,16,0,0,0,16,16c8.84,0,40-7.16,40-16s-31.16-16-40-16A16,16,0,0,0,144,176Z" fill="#fbe9d8"/><path d="M318.17,376.86l-4.05,2.53c-1.46.91-1.68,1.49-2.5,4-1.1,3.46-2.77,8.69-9.26,12.75s-11.92,3.26-15.52,2.74c-2.65-.39-3.26-.44-4.72.47s-1.69,1.49-2.5,4c-1.1,3.46-2.77,8.69-9.26,12.75s-11.92,3.26-15.51,2.74c-2.66-.39-3.27-.44-4.73.47l-2.4,1.5-8.21-13.74,2.13-1.33c6.49-4.05,11.92-3.26,15.51-2.74,2.66.39,3.27.44,4.73-.47s1.68-1.49,2.5-4c1.1-3.46,2.77-8.69,9.26-12.74s11.92-3.27,15.51-2.75c2.66.39,3.27.44,4.73-.47s1.68-1.49,2.5-4c1.1-3.46,2.77-8.69,9.26-12.75l5.73-3.58Z" fill="#fbe9d8"/><path d="M341.53,217.09c-.95,2.5-1.13,3.09-.56,4.71l.19.55-15.5,4.09c-2.19-6.85-.34-11.75.91-15,1-2.51,1.14-3.1.56-4.72s-1.08-2-3.4-3.31c-3.14-1.83-7.88-4.59-10.44-11.8s-.61-12.34.68-15.74c.95-2.51,1.14-3.09.56-4.72s-1.08-2-3.4-3.31c-3.14-1.83-7.89-4.59-10.44-11.8l-1.85-5.24,15.52-4.09,1.41,4c.58,1.63,1.09,2,3.4,3.32,3.14,1.83,7.89,4.59,10.44,11.8s.61,12.34-.68,15.74c-.95,2.51-1.13,3.09-.56,4.72s1.09,2,3.41,3.31c3.14,1.83,7.88,4.59,10.43,11.8s.61,12.34-.68,15.74Z" fill="#fbe9d8"/><path d="M93,173.79c-2.56,7.22-7.3,10-10.44,11.8-2.32,1.35-2.83,1.7-3.4,3.32s-.4,2.21.56,4.71c1.29,3.4,3.23,8.53.68,15.74s-7.3,10-10.44,11.8c-2.28,1.33-2.81,1.68-3.37,3.23L51.07,220.3l.42-1.17c2.55-7.21,7.3-10,10.43-11.8,2.32-1.34,2.83-1.69,3.41-3.31s.39-2.21-.56-4.72c-1.29-3.39-3.24-8.52-.68-15.73s7.3-10,10.43-11.8c2.32-1.35,2.83-1.7,3.41-3.32s.39-2.21-.56-4.72c-1.29-3.39-3.24-8.52-.68-15.74l1.19-3.36,15.52,4.09-1.63,4.61c-.57,1.63-.39,2.22.56,4.72,1.29,3.4,3.24,8.53.68,15.74Z" fill="#fbe9d8"/><path d="M156.38,414l-8.21,13.74-2.53-1.58c-6.49-4.06-8.16-9.29-9.26-12.75-.82-2.55-1-3.12-2.5-4s-2.07-.86-4.72-.47c-3.6.52-9,1.31-15.52-2.74s-8.16-9.29-9.26-12.75c-.82-2.55-1-3.12-2.5-4s-2.07-.86-4.73-.47c-3.59.52-9,1.31-15.51-2.74l-3.21-2,6.8-14.62,4.89,3.06c1.46.91,2.07.86,4.73.47,3.59-.52,9-1.31,15.51,2.74s8.16,9.29,9.26,12.75c.82,2.55,1,3.13,2.5,4s2.07.86,4.73.47c3.59-.52,9-1.31,15.51,2.75s8.16,9.28,9.26,12.74c.82,2.55,1,3.13,2.5,4Z" fill="#fbe9d8"/></g></g></svg>