<svg xmlns="http://www.w3.org/2000/svg" viewBox="0 0 294.24 512"><title>Asset 3</title><g id="Layer_2" data-name="Layer 2"><g id="Layer_1-2" data-name="Layer 1"><path d="M225,95.53a69.11,69.11,0,1,0,69.29,69.1A69.27,69.27,0,0,0,225,95.53Zm0,105.63a36.53,36.53,0,1,1,36.63-36.53A36.58,36.58,0,0,1,225,201.16Z" fill="#f0f4ff"/><path d="M207.11,154.62l-3.23-18.88L144.55,102l-56.7,33.75-3.24,18.88a27.69,27.69,0,0,1-13.27,19.07A145.3,145.3,0,0,0,.61,311.91L15.23,472.49A43.51,43.51,0,0,0,58.61,512h174.5a43.51,43.51,0,0,0,43.38-39.51l14.62-160.58a145.26,145.26,0,0,0-70.73-138.22,27.67,27.67,0,0,1-13.27-19.07Z" fill="#f07507"/><path d="M220.38,173.69a27.71,27.71,0,0,1-13.27-19.07l-3.23-18.88-41.3-2.85,3.32,21.73a27.72,27.72,0,0,0,13.28,19.07,145.29,145.29,0,0,1,70.73,138.22L235.28,472.49A43.51,43.51,0,0,1,191.9,512h41.21a43.51,43.51,0,0,0,43.38-39.51l14.62-160.58a145.26,145.26,0,0,0-70.73-138.22Z" fill="#d96a06"/><path d="M84.88,465.57h122a32,32,0,0,0,31.85-29l9.11-97C253.2,280.32,205.61,227,145.86,227S38.53,280.32,43.92,339.58l9.11,97a32,32,0,0,0,31.85,29Z" fill="#f0f4ff"/><path d="M145.86,288,118.94,314l9.14,44.16-22.32-24.95-25,2.42.64,27L108,384.25l.61,24.26,37.27-18.61h0l37.27,18.61.61-24.26,26.6-21.62.64-27-25-2.42L163.64,358.2,172.77,314,145.86,288" fill="#fc3869"/><path d="M145.86,384.28a7.73,7.73,0,0,0-7.73,7.73v35.51a7.73,7.73,0,0,0,15.46,0V392a7.73,7.73,0,0,0-7.73-7.73Z" fill="#fc3869"/><path d="M191.9,65.9H99.82l-12,69.84h116Z" fill="#f0f4ff"/><path d="M191.9,65.9H150.7l12,69.84h41.21Z" fill="#e1e7f7"/><path d="M202.94,65.9H88.78V20.59A20.59,20.59,0,0,1,109.37,0h73a20.59,20.59,0,0,1,20.59,20.59Z" fill="#fc3869"/><path d="M182.35,0h-41.2a20.59,20.59,0,0,1,20.59,20.59V65.9h41.2V20.59A20.59,20.59,0,0,0,182.35,0Z" fill="#e83361"/></g></g></svg>