<svg xmlns="http://www.w3.org/2000/svg" viewBox="0 0 512 497.19"><title>Asset 1</title><g id="Layer_2" data-name="Layer 2"><g id="Capa_1" data-name="Capa 1"><path d="M25.86,397.91l368.61,98.77a14.9,14.9,0,0,0,18.25-10.54l88.39-367.57a14.9,14.9,0,0,0-10.54-18.25l-11.33-6.86L132.34.51a14.9,14.9,0,0,0-18.25,10.54L15.32,379.66A14.9,14.9,0,0,0,25.86,397.91Z" fill="#c38c66"/><path d="M501,99.28l-21.71-5.82a15.05,15.05,0,0,1,1.84,12L380.85,479.54a15.1,15.1,0,0,1-10.59,10.65l24.21,6.49a14.9,14.9,0,0,0,18.25-10.54l98.77-368.61A14.9,14.9,0,0,0,501,99.28Z" fill="#966a5b"/><path d="M401,497.07H15.46A15.47,15.47,0,0,1,0,481.6v-396A15.46,15.46,0,0,1,15.46,70.19H401A15.46,15.46,0,0,1,416.5,85.65v396A15.46,15.46,0,0,1,401,497.07Z" fill="#ffe07d"/><path d="M411.42,70.19H382.89a15.46,15.46,0,0,1,15.46,15.46v396a15.46,15.46,0,0,1-15.46,15.46h28.53a15.46,15.46,0,0,0,15.46-15.46v-396a15.46,15.46,0,0,0-15.46-15.46Z" fill="#ffd064"/><path d="M101.55,128.78H36.31a7.73,7.73,0,0,1,0-15.45h65.24a7.73,7.73,0,1,1,0,15.45Z" fill="#ffd064"/><path d="M302,128.78H236.8a7.73,7.73,0,0,1,0-15.45H302a7.73,7.73,0,1,1,0,15.45Z" fill="#ffd064"/><path d="M268.61,370.08H203.37a7.73,7.73,0,0,1,0-15.45h65.24a7.73,7.73,0,1,1,0,15.45Z" fill="#ffd064"/><path d="M340.76,438.3H275.52a7.73,7.73,0,0,1,0-15.46h65.24a7.73,7.73,0,0,1,0,15.46Z" fill="#ffd064"/><path d="M214.36,180.16H149.12a7.73,7.73,0,0,1,0-15.46h65.24a7.73,7.73,0,0,1,0,15.46Z" fill="#ffd064"/><path d="M134.17,302.9H68.93a7.73,7.73,0,0,1,0-15.45h65.24a7.73,7.73,0,1,1,0,15.45Z" fill="#ffd064"/><path d="M370,180.16H263.49a7.73,7.73,0,0,1,0-15.46H370a7.73,7.73,0,1,1,0,15.46Z" fill="#ffd064"/><path d="M190.56,231.53H36.31a7.73,7.73,0,0,1,0-15.45H190.56a7.73,7.73,0,1,1,0,15.45Z" fill="#ffd064"/><path d="M370,301.87H215.71a7.73,7.73,0,1,1,0-15.45H370a7.73,7.73,0,1,1,0,15.45Z" fill="#ffd064"/><path d="M197,438.3H42.72a7.73,7.73,0,0,1,0-15.46H197a7.73,7.73,0,0,1,0,15.46Z" fill="#ffd064"/></g></g></svg>