<svg xmlns="http://www.w3.org/2000/svg" viewBox="0 0 503.76 512"><title>Asset 1</title><g id="Layer_2" data-name="Layer 2"><g id="Capa_1" data-name="Capa 1"><g id="_Group_" data-name="&lt;Group&gt;"><path d="M280.55,512H215c-26.57,0-40.08-23.12-34.83-49.15,0,0,17.4-130.26,17.18-196.75a601.38,601.38,0,0,1,3.46-62.77h96.49l10.08,57.31v5.14q0,6.25,0,12.49c.18,21.22-14,41-12.76,62.18.75,13.09,16.51,27.6,17.65,40.67q3.39,39,9.11,77.82l.41,2.8A42,42,0,0,1,280.55,512Z" fill="#ffe8c8"/><path d="M118.9,512H82c-15,0-19.13-20-16.18-34.77L70,455.83c3.83-19.11,9.61-38,10.17-57.51L72.6,337h46.87l10.66,61.93a346.93,346.93,0,0,0,6.43,56.57l5.55,28.05A23.79,23.79,0,0,1,118.9,512Z" fill="#ffe8c8"/><path d="M419.84,512H378.55c-16.72,0-17.6-18.72-14.29-35.13l6.11-30.33c4.28-21.23,4-37.44,4.67-59.09l-7-70h44.34L432.11,377l.29,9.26a382.67,382.67,0,0,0,7.19,62.86l6.21,31.17A26.48,26.48,0,0,1,419.84,512Z" fill="#ffe8c8"/><path d="M188,203.33c0-2.66.13,40.18.18,57.31h0a1314.4,1314.4,0,0,1-14.44,201A42.05,42.05,0,0,0,215,512h23.69a42.05,42.05,0,0,1-41.24-50.34q5-33.24,8.23-66.67a6.12,6.12,0,0,1,1.84-3.82,51.82,51.82,0,0,0,4.74-69.83,6.12,6.12,0,0,1-1.31-4q.51-13.21.75-26.43a30.87,30.87,0,0,1,30.9-30.24h64.78l.07-57.31H188Z" fill="#fdd9b4"/><path d="M84.86,456.15a344.19,344.19,0,0,0,5.62-40.43,18.53,18.53,0,0,1,18.94-17.09q9.89.28,19.74,1.16l1-.91-1.91-61.94H72.6C72,382.82,70.34,439.13,58.78,483.45A23.8,23.8,0,0,0,82,512H102.6a23.79,23.79,0,0,1-23.21-28.55Z" fill="#fdd9b4"/><path d="M379.31,449.94A381.94,381.94,0,0,0,386.39,393a18.51,18.51,0,0,1,18.79-17.53q13.49.24,26.93,1.56l-1.84-59.56H368.05c-.67,51-2.53,113.55-15.45,162.79A26.48,26.48,0,0,0,378.55,512h20.6a26.49,26.49,0,0,1-25.95-31.73Z" fill="#fdd9b4"/><path d="M312.24,238h-129a94.42,94.42,0,0,1-50.2-14.44c-15.16-9.51-7.67-25.06-15.51-41.95L116,178.12l260.46,0a2.45,2.45,0,0,1,2.21,3.49c-7.83,16.89-1,32.42-16.19,41.94A94.42,94.42,0,0,1,312.24,238Z" fill="#ffe8c8"/><path d="M399.49,179.85l-1.6,3.47a94.36,94.36,0,0,1-35.45,40.21,705,705,0,0,0-229.36,0,94.29,94.29,0,0,1-35.45-40.21L96,179.85Z" fill="#fdd9b4"/><path d="M378.87,196c-91-17.58-175-20.38-266.07-2.8-37.1,7.17-62.07-4-62.07-41.73,0-20.44,8.41-33.83,25.6-44.89l66.3-58.72L191,16.7a104.9,104.9,0,0,1,113.58,0l125,80.48a60.08,60.08,0,0,1,27.58,50.53,61.37,61.37,0,0,1-.86,10.22c-5.54,32.5-43.73,44.54-77.4,38Z" fill="#d77f4a"/><path d="M456.27,157.93a60.21,60.21,0,0,1-59.16,49.91,60.84,60.84,0,0,1-11.54-1.11,726.38,726.38,0,0,0-275.62,0,61,61,0,0,1-11.55,1.11A60.11,60.11,0,0,1,66,97.18l76.67-49.36A113.31,113.31,0,0,0,255.9,157.93Z" fill="#c86d36"/><path d="M312.28,381.12a52.74,52.74,0,0,1-16.15-95.58l11.26-7.27q.42,51.53,4.89,102.85Z" fill="#fdd9b4"/><path d="M461.84,350.89l-128.36.52C315,355,304.55,333.79,304.55,333.79c0-10.22.89-17.09,9.47-22.62l21.86-24.29,34.95-22.53a52.37,52.37,0,0,1,56.73,0L490,304.59a30.06,30.06,0,0,1,13.77,25.26,30.43,30.43,0,0,1-.26,4c-2.2,16.86-24.45,20.39-41.66,17.07Z" fill="#d77f4a"/><path d="M158.75,371.31C115.08,362.81,79.67,369.48,36,378c0,0-18.94.2-18.94-18.07l-1.75-2.31c0-9.87-6.14-15.31,2.11-20.66l31.27-30.7,24.51-15.9a50,50,0,0,1,54.49,0l60,38.91a29.13,29.13,0,0,1,13.23,24.43,30,30,0,0,1-.26,3.93c-2.17,16.25-41.88,13.7-41.88,13.7Z" fill="#d77f4a"/><path d="M200.78,356.06a28.8,28.8,0,0,1-34.22,26.15,346,346,0,0,0-132.23,0,29.29,29.29,0,0,1-5.55.53A29,29,0,0,1,0,353.68a29.35,29.35,0,0,1,3.52-13.92,29,29,0,0,1,9.71-10.51l35.46-23v4.49A45.32,45.32,0,0,0,94,356.06Z" fill="#c86d36"/><path d="M503.49,333.82a30,30,0,0,1-29.7,26.09,30.94,30.94,0,0,1-5.77-.55,362.56,362.56,0,0,0-137.65,0,30.86,30.86,0,0,1-5.77.55,30.06,30.06,0,0,1-16.19-55.33l27.47-17.71a72.13,72.13,0,0,0,67.59,46.95Z" fill="#c86d36"/></g></g></g></svg>