<svg xmlns="http://www.w3.org/2000/svg" viewBox="0 0 512 512"><title>Asset 1</title><g id="Layer_2" data-name="Layer 2"><g id="Capa_1" data-name="Capa 1"><path d="M508,25.07,497.47,14.53,486.94,4C483,.05,477.29-1.12,473.09,1.14L404,39.09l21.57,47.36h0L472.92,108l37.94-69.1C513.12,34.71,512,29,508,25.07Z" fill="#f1ebde"/><path d="M451.76,98.38,472.91,108l37.95-69.1C513.12,34.71,512,29,508,25.07L497.69,14.75Z" fill="#d4cfc2"/><path d="M474.64,109.74,438.45,73.55,428.11,63.21,402.26,37.36a34.22,34.22,0,0,0-48.25,0L326.44,64.94l25.84,25.85,8.62,8.61,25.85,25.85,60.31,60.31L474.64,158A34.22,34.22,0,0,0,474.64,109.74Z" fill="#d4cfc2"/><path d="M472.92,202.79,172.63,503.08a30.47,30.47,0,0,1-43.08,0L8.92,382.45a30.47,30.47,0,0,1,0-43.08L309.21,39.08a30.46,30.46,0,0,1,43.08,0L472.92,159.71A30.46,30.46,0,0,1,472.92,202.79Z" fill="#f3d035"/><path d="M472.92,159.71,419,105.81a30.46,30.46,0,0,1,0,43.08L136.63,431.27l-.58.58a31.78,31.78,0,0,1-45,0L4.4,345.14a30.47,30.47,0,0,0,4.52,37.31L85.37,458.9h0l44.18,44.18a30.47,30.47,0,0,0,43.08,0L472.92,202.79A30.46,30.46,0,0,0,472.92,159.71Z" fill="#efa628"/><path d="M348.72,256a92.57,92.57,0,0,0-5.46-31.36l-118.39,5.07-.23,113.55A92.73,92.73,0,0,0,348.72,256Z" fill="#d4cfc2"/><path d="M342.11,221.59A92.73,92.73,0,1,0,221.58,342.11c1,.41,2,.78,3.07,1.15L343.26,224.64C342.89,223.62,342.52,222.59,342.11,221.59Z" fill="#f1ebde"/><path d="M256,307.43a7.72,7.72,0,0,1-5.46-13.18l30.51-30.52H256a7.73,7.73,0,0,1-7.73-7.73V231l-30.51,30.51a7.73,7.73,0,0,1-10.93-10.92l43.71-43.71a7.73,7.73,0,0,1,13.19,5.46v36h36a7.72,7.72,0,0,1,5.46,13.19l-43.71,43.71A7.67,7.67,0,0,1,256,307.43Z" fill="#efa628"/></g></g></svg>