<svg xmlns="http://www.w3.org/2000/svg" viewBox="0 0 512 432.68"><title>Asset 1</title><g id="Layer_2" data-name="Layer 2"><g id="Layer_1-2" data-name="Layer 1"><path d="M23.74,207.16,80.36,224l56.51-16.79a50.74,50.74,0,0,0-.61-17.85,60.79,60.79,0,0,0-6.9-17.78,100.32,100.32,0,0,0-11.56-15.75c-22.54-25.87-64.13-55.49-86.26-42.9-21.73,12.39-18.08,61.63-7.8,94.28Z" fill="#f9f6f6" fill-rule="evenodd"/><path d="M197.67,65.6l-17.58-.44-52.24-1.29c-3-.08-5.5-2.07-5.5-4.55V36.69H191c8.65.92,13.09,3.68,14.45,7.72C207.2,49.67,203.79,57.11,197.67,65.6Z" fill="#e29d7b" fill-rule="evenodd"/><path d="M324.55,68.78l182,4.56c3,.09,5.49-2,5.49-4.56V36.69H311.61c-8.38,7.82-11.82,22.46,6.2,32Z" fill="#e29d7b" fill-rule="evenodd"/><path d="M512,4.57V36.69H122.36V14.05c0-2.51,2.48-4.5,5.49-4.55L506.51,0C509.52-.08,512,2.05,512,4.57Z" fill="#e29d7b" fill-rule="evenodd"/><path d="M56.13,207.16H106a26,26,0,1,0-49.9,0Z" fill="#ffd772" fill-rule="evenodd"/><path d="M184.44,207.16c.88-5.23,9.72-5.7,13.38-11.83,19.24-32.27-7.71-54.62-7.22-81.89,0-2.43-5.87-4.76-5.55-7a22.48,22.48,0,0,0-6.62-2.48c-20.88-4.18-45.41,24-60.63,51.87-6.63,11.12,9.29,51.37,16.47,51.37L160.51,224Z" fill="#f9f6f6" fill-rule="evenodd"/><path d="M122,396.73l95.75,18,95.78-18a170.48,170.48,0,0,0,93.39-97.05l-181.2-23.37L28.62,299.68A170.48,170.48,0,0,0,122,396.73Z" fill="#fbc7b8" fill-rule="evenodd"/><path d="M415.89,207.16l-64.3,20.3-46.51-20.3c-10.93-19.63-2.58-26.55,12.7-49,2.05-1,4.11-1.89,6.19-2.71a91.09,91.09,0,0,1,22.81-5.93h0a74.47,74.47,0,0,1,35.84,4.17c1.84.71,3.66,1.49,5.44,2.36,16.9,8.25,32.71,23.86,27.82,51.09Z" fill="#e29d7b" fill-rule="evenodd"/><path d="M313.54,396.73a170.48,170.48,0,0,0,93.39-97.05H365.82a170.64,170.64,0,0,1-93.39,97.05Z" fill="#fbb49e" fill-rule="evenodd"/><path d="M117.8,155.79c-22.54-25.88-64.13-55.49-86.26-42.91a23.88,23.88,0,0,0-8.21,8c23-5.23,59.57,21.55,80.19,45.23a99.59,99.59,0,0,1,11.57,15.72A62.6,62.6,0,0,1,122,199.65a53.86,53.86,0,0,1,1,7.51h13.87a50.74,50.74,0,0,0-.61-17.85,61,61,0,0,0-6.89-17.78,100.59,100.59,0,0,0-11.57-15.74Z" fill="#e5e4ed" fill-rule="evenodd"/><path d="M184.62,113.44a7,7,0,0,1,0-.79A7,7,0,0,0,184.62,113.44ZM191,190.22c19.25-32.27-6.89-49.47-6.36-76.78a7,7,0,0,1,0-.79c0-.35,0-.7,0-1.08a44,44,0,0,1,.43-5.17,22.48,22.48,0,0,0-6.62-2.48,22.84,22.84,0,0,0-9.76.23c-.09,1.32-.14,2.66-.12,4C168.06,135,193.17,152,176,183.12c6.19,6,9.9,15.13,8.44,24A48.78,48.78,0,0,1,191,190.22Z" fill="#e5e4ed" fill-rule="evenodd"/><path d="M103.67,187a26,26,0,0,0-44.07-1.81,26,26,0,0,1,33,22H106A25.78,25.78,0,0,0,103.67,187Z" fill="#fbba58" fill-rule="evenodd"/><path d="M415.9,207.16c4.87-27.22-10.93-42.85-27.83-51.08-1.78-.88-3.6-1.67-5.44-2.37a70.39,70.39,0,0,0-14.33-3.83c16.17,9.64,30.69,27.31,26,57.28Z" fill="#ce8b6b" fill-rule="evenodd"/><path d="M136.87,207.16h47.57c2.28-13.79-7.85-28.1-20.41-30.58s-22.4,3.21-27.77,12.73a50.74,50.74,0,0,1,.61,17.85Z" fill="#ffd772" fill-rule="evenodd"/><path d="M184.44,207.16c1.46-8.91-2.25-18-8.44-24a24,24,0,0,0-12-6.54,25.22,25.22,0,0,0-18.4,2.83c2.4-.14,21.58,15.1,21.29,27.75Z" fill="#fbba58" fill-rule="evenodd"/><path d="M28.62,299.68H406.93a167.45,167.45,0,0,0,10.66-58.91l-189-13.32L18,240.77A167.45,167.45,0,0,0,28.62,299.68Z" fill="#f37c7c" fill-rule="evenodd"/><path d="M406.93,299.68a167.45,167.45,0,0,0,10.66-58.91H376.45a168.11,168.11,0,0,1-10.63,58.91Z" fill="#ee6161" fill-rule="evenodd"/><path d="M136.87,207.16H16.79a16.81,16.81,0,0,0,0,33.61h402a16.81,16.81,0,0,0,0-33.61H136.87Z" fill="#365e7d" fill-rule="evenodd"/><path d="M435.55,224a16.85,16.85,0,0,0-16.79-16.79H377.64a16.81,16.81,0,0,1,0,33.61h41.12A16.85,16.85,0,0,0,435.55,224Z" fill="#2b4d66" fill-rule="evenodd"/><path d="M184.44,207.16h39.77a48.31,48.31,0,0,1,6.57-16.94c19.22-32.27-6.89-49.48-6.39-76.78-.5-27.28,25.61-44.51,6.39-76.75H191c17.52,29.38-2.6,46.29-5.93,69.71a41.91,41.91,0,0,0-.43,5.17c0,.64,0,1.25,0,1.87-.53,27.3,25.61,44.51,6.36,76.78A48.78,48.78,0,0,0,184.44,207.16Z" fill="#ffd772" fill-rule="evenodd"/><path d="M235.13,207.16h49.41a48.82,48.82,0,0,1,6.55-16.94c19.24-32.27-6.87-49.48-6.37-76.78-.5-27.28,25.61-44.51,6.37-76.75H241.68c19.24,32.24-6.9,49.47-6.4,76.75-.5,27.3,25.64,44.51,6.4,76.78a48.82,48.82,0,0,0-6.55,16.94Z" fill="#ffd772" fill-rule="evenodd"/><path d="M274.91,207.16h30.16a48.78,48.78,0,0,1,6.54-16.94c7.42-12.44,8.09-22.64,6.17-32-3.1-15-12.85-28-12.53-44.74-.32-16.74,9.4-29.67,12.5-44.66,1.95-9.4,1.31-19.62-6.13-32.09H281.48c19.21,32.24-6.89,49.47-6.4,76.75-.49,27.3,25.61,44.51,6.4,76.78a48.11,48.11,0,0,0-6.57,16.94Z" fill="#fbba58" fill-rule="evenodd"/><path d="M214.61,207.16h30.16a48.19,48.19,0,0,1,6.54-16.94c19.22-32.27-6.89-49.48-6.39-76.78-.5-27.28,25.61-44.51,6.39-76.75H221.15c19.21,32.24-6.89,49.47-6.4,76.75-.49,27.3,25.61,44.51,6.4,76.78A48.58,48.58,0,0,0,214.61,207.16Z" fill="#fbba58" fill-rule="evenodd"/><path d="M126.45,432.68H309.1a4.44,4.44,0,0,0,4.44-4.44V396.73H122v31.51A4.44,4.44,0,0,0,126.45,432.68Z" fill="#f37c7c" fill-rule="evenodd"/><path d="M313.54,428.24V396.73H272.43v31.51a4.46,4.46,0,0,1-4.44,4.44H309.1A4.44,4.44,0,0,0,313.54,428.24Z" fill="#ee6161" fill-rule="evenodd"/><path d="M359.77,183.49a7.63,7.63,0,0,1-1.88.24,7.72,7.72,0,0,1-7.48-5.86c-2.73-10.91-6.62-15-18.05-19.48-2.28-.9-5.41-2.44-8.39-2.92a91.09,91.09,0,0,1,22.81-5.93h0c8.48,4.63,15.29,11.29,18.6,24.58a7.71,7.71,0,0,1-5.62,9.37Z" fill="#ce8b6b"/><path d="M65.19,278a7.68,7.68,0,0,1-5.45-2.26l0,0A7.7,7.7,0,1,1,65.19,278Z" fill="#ffd772"/><path d="M116.06,278a7.64,7.64,0,0,1-5.44-2.26l0,0a7.7,7.7,0,1,1,5.47,2.29Z" fill="#ffd772"/><path d="M166.9,278a7.64,7.64,0,0,1-5.44-2.26l0,0A7.7,7.7,0,1,1,166.9,278Z" fill="#ffd772"/><path d="M217.77,278a7.64,7.64,0,0,1-5.44-2.26l0,0a7.7,7.7,0,1,1,5.47,2.29Z" fill="#ffd772"/><path d="M268.64,278a7.64,7.64,0,0,1-5.44-2.26l0,0a7.7,7.7,0,1,1,5.47,2.29Z" fill="#ffd772"/><path d="M319.48,278A7.64,7.64,0,0,1,314,275.7l0,0a7.7,7.7,0,1,1,5.47,2.29Z" fill="#ffd772"/><path d="M370.35,278a7.64,7.64,0,0,1-5.44-2.26l0,0a7.7,7.7,0,1,1,5.47,2.29Z" fill="#ffd772"/><path d="M512,29H122.36V44.41H512Z" fill="#ce8b6b"/></g></g></svg>