<svg xmlns="http://www.w3.org/2000/svg" viewBox="0 0 512 439.32"><title>Asset 1</title><g id="Layer_2" data-name="Layer 2"><g id="Capa_1" data-name="Capa 1"><path d="M267.18,0,226.29,2.32A7.29,7.29,0,0,0,220,6.67L200.37,51.5l3.34,18.31,37,14.2L259,71.58,274.65,9.05a7.28,7.28,0,0,0-7.47-9Z" fill="#a6d786"/><path d="M267.18,0,226.29,2.32A7.29,7.29,0,0,0,220,6.67L200.37,51.5l3.34,18.31,17.16,6.58L240.71,84,259,71.58l3.77-15-25.62-8.78A10.23,10.23,0,0,1,231.08,34l7-15.91a7.28,7.28,0,0,1,6.26-4.35L273.9,12l.75-3a7.28,7.28,0,0,0-7.47-9Z" fill="#94cf6f"/><path d="M304.1,169.61C373,283.73,284.89,418.54,165.33,418.54a168,168,0,0,1-54.47-9.27c-144.69-49.45-148.78-252.58-6.19-307.8l80-31a22.9,22.9,0,0,0,12.63-12.09l3-6.89L259,71.58l-1.81,7.25a22.76,22.76,0,0,0,2.59,17.3Z" fill="#d7c9e4"/><path d="M159,102.42l88.67-33.94c.34-.13.66-.3,1-.44L200.42,51.52l0,0-3,6.89A22.88,22.88,0,0,1,184.7,70.48l-80,31c-141.78,54.91-138.51,256.09,3.81,307C7.4,327.15,22.79,154.56,159,102.42Z" fill="#bda4d1"/><path d="M269.63,157.87c37.2,107.68-47.12,255.52-134.18,255.52a75.35,75.35,0,0,1-24.6-4.1c-94.7-32.35-76-227.72,28.26-296l60.77-39.79A18.58,18.58,0,0,0,206.46,65l4.06-10,38.29,13.09-2.89,10.37a18.64,18.64,0,0,0,0,10.76Z" fill="#cab6db"/><path d="M51.29,324.05c5.78,39.58,24.4,71.92,57.06,84.34l.12,0A174.12,174.12,0,0,1,51.29,324.05Z" fill="#bda4d1"/><path d="M248.65,68l-14.46-5L210.52,55l-4.06,10a18.58,18.58,0,0,1-6.58,8.52L150,106.12c2.94-1.28,5.91-2.53,9-3.7l88.67-33.94c.34-.13.67-.3,1-.44Z" fill="#bda4d1"/><path d="M237.09,64.05l-3.25,10.24a40.13,40.13,0,0,0-2,10.07l-2.19,59.81C226,243.32,152.75,409.91,114.75,409.91a11.89,11.89,0,0,1-3.9-.62c-36.64-12.52,8.45-198.89,68.29-282.37L214,78.28a40.81,40.81,0,0,0,4.57-9.21L222.28,59Z" fill="#d7c9e4"/><path d="M234,73.69l3.05-9.62L222.27,59l-3.69,10.07A40.81,40.81,0,0,1,214,78.28l-3,4.24Z" fill="#cab6db"/><path d="M177.56,282.41a177,177,0,0,0,50,123.34C312,369.48,360.24,262.67,304.1,169.61L276.22,123.4A177.71,177.71,0,0,0,177.56,282.41Z" fill="#cab6db"/><path d="M269.64,157.84l-8.89-25.74a177.27,177.27,0,0,0-53.33,248.71c53.7-49.6,88.66-146.42,62.22-223Z" fill="#bda4d1"/><path d="M177.56,282.41a177.25,177.25,0,0,0,4.33,39c22.81-50.51,42.22-113.51,46.84-163.53A176.92,176.92,0,0,0,177.56,282.41Z" fill="#cab6db"/><circle cx="355.09" cy="282.4" r="156.91" fill="#e4daec"/><path d="M255.66,282.41a157,157,0,0,1,128.16-154.3,156.92,156.92,0,1,0,0,308.58A157,157,0,0,1,255.66,282.41Z" fill="#d7c9e4"/><circle cx="355.02" cy="282.41" r="125.77" fill="#d7c9e4"/><path d="M307.27,166.05a125.8,125.8,0,0,0,0,232.72,156.94,156.94,0,0,1,0-232.72Z" fill="#cab6db"/><circle cx="355.24" cy="282.46" r="87.93" transform="translate(-41.72 502.47) rotate(-67.49)" fill="#e4daec"/><circle cx="355.24" cy="282.46" r="47.89" fill="#cab6db"/></g></g></svg>