<svg xmlns="http://www.w3.org/2000/svg" viewBox="0 0 469.33 511.98"><title>Asset 3</title><g id="Layer_2" data-name="Layer 2"><g id="Layer_1-2" data-name="Layer 1"><path d="M469.31,277.32C469.31,406.91,364.25,512,234.66,512S0,406.91,0,277.32,105.07,42.66,234.66,42.66,469.31,147.71,469.31,277.32Z" fill="#723939"/><path d="M469.31,256c0,129.59-105.06,234.65-234.65,234.65S0,385.58,0,256,105.07,21.33,234.66,21.33,469.31,126.39,469.31,256Z" fill="#f5f7fa"/><path id="SVGCleanerId_0" data-name="SVGCleanerId 0" d="M469.31,234.65c0,129.6-105.06,234.66-234.65,234.66S0,364.25,0,234.65,105.07,0,234.66,0,469.31,105.06,469.31,234.65Z" fill="#7f4545"/><path id="SVGCleanerId_0-2" data-name="SVGCleanerId 0" d="M469.31,234.65c0,129.6-105.06,234.66-234.65,234.66S0,364.25,0,234.65,105.07,0,234.66,0,469.31,105.06,469.31,234.65Z" fill="#7f4545"/><path d="M234.66,0c-3.57,0-7.13.08-10.66.23V32a10.67,10.67,0,0,0,21.34,0V.23Q240,0,234.66,0Z" fill="#602b2b"/><path d="M234.66,426.64A10.67,10.67,0,0,0,224,437.32v31.74c3.53.16,7.09.25,10.66.25s7.14-.09,10.68-.25V437.32A10.68,10.68,0,0,0,234.66,426.64Z" fill="#602b2b"/><path d="M162.15,11.48c-3.4,1.1-6.76,2.29-10.07,3.52l9.81,30.2a10.67,10.67,0,1,0,20.3-6.59l-9.82-30.2Q167.24,9.83,162.15,11.48Z" fill="#602b2b"/><path d="M294,417.25a10.66,10.66,0,0,0-6.86,13.44l9.81,30.2c3.42-.94,6.83-2,10.22-3.06s6.76-2.28,10.08-3.53l-9.82-30.2A10.65,10.65,0,0,0,294,417.25Z" fill="#602b2b"/><path d="M96.74,44.81c-2.9,2.1-5.72,4.25-8.49,6.47L106.92,77a10.67,10.67,0,1,0,17.25-12.55L105.51,38.73C102.55,40.69,99.63,42.7,96.74,44.81Z" fill="#602b2b"/><path d="M347.52,390a10.67,10.67,0,0,0-2.36,14.91l18.66,25.69c3-2,5.87-4,8.78-6.07s5.72-4.26,8.48-6.47l-18.67-25.7A10.67,10.67,0,0,0,347.52,390Z" fill="#602b2b"/><path d="M44.82,96.72q-3.15,4.35-6.07,8.78l25.69,18.65A10.66,10.66,0,1,0,77,106.9L51.29,88.23C49.08,91,46.93,93.82,44.82,96.72Z" fill="#602b2b"/><path d="M390,347.51a10.66,10.66,0,0,0,2.35,14.89L418,381.07q3.33-4.15,6.47-8.49t6.08-8.78l-25.69-18.65A10.65,10.65,0,0,0,390,347.51Z" fill="#602b2b"/><path d="M11.49,162.14c-1.11,3.4-2.12,6.81-3.06,10.21l30.2,9.82a10.66,10.66,0,1,0,6.59-20.28L15,152.07Q13.15,157,11.49,162.14Z" fill="#602b2b"/><path d="M417.25,294a10.69,10.69,0,0,0,6.86,13.45l30.2,9.81q1.88-5,3.53-10.08t3.07-10.22l-30.21-9.81A10.69,10.69,0,0,0,417.25,294Z" fill="#602b2b"/><path d="M0,234.65q0,5.37.24,10.67H32A10.67,10.67,0,0,0,32,224H.25C.09,227.52,0,231.07,0,234.65Z" fill="#602b2b"/><path d="M426.66,234.65a10.67,10.67,0,0,0,10.65,10.67h31.77c.17-3.53.23-7.09.25-10.67s-.08-7.13-.25-10.67H437.31A10.67,10.67,0,0,0,426.66,234.65Z" fill="#602b2b"/><path d="M11.49,307.16q1.66,5.11,3.53,10.08l30.2-9.81a10.67,10.67,0,0,0-6.59-20.3l-30.2,9.81C9.37,300.37,10.38,303.77,11.49,307.16Z" fill="#602b2b"/><path d="M417.25,175.32a10.69,10.69,0,0,0,13.45,6.85l30.21-9.82q-1.41-5.1-3.07-10.21t-3.53-10.07l-30.2,9.82A10.66,10.66,0,0,0,417.25,175.32Z" fill="#602b2b"/><path d="M44.82,372.58q3.16,4.34,6.47,8.49L77,362.4a10.66,10.66,0,1,0-12.53-17.25L38.75,363.8Q41.68,368.26,44.82,372.58Z" fill="#602b2b"/><path d="M390,121.79a10.65,10.65,0,0,0,14.89,2.36l25.69-18.65q-2.93-4.44-6.08-8.78T418,88.23L392.35,106.9A10.66,10.66,0,0,0,390,121.79Z" fill="#602b2b"/><path d="M96.74,424.5c2.89,2.1,5.81,4.11,8.76,6.07l18.68-25.69a10.67,10.67,0,1,0-17.26-12.55L88.25,418Q92.41,421.35,96.74,424.5Z" fill="#602b2b"/><path d="M347.5,79.33A10.7,10.7,0,0,0,362.41,77l18.67-25.69q-4.14-3.33-8.48-6.47c-2.89-2.11-5.81-4.12-8.78-6.08L345.16,64.42A10.69,10.69,0,0,0,347.5,79.33Z" fill="#602b2b"/><path d="M162.15,457.83c3.4,1.11,6.81,2.12,10.22,3.06l9.81-30.2a10.67,10.67,0,1,0-20.29-6.59l-9.81,30.2Q157,456.18,162.15,457.83Z" fill="#602b2b"/><path d="M294,52.06a10.67,10.67,0,0,0,13.43-6.86L317.26,15c-3.32-1.23-6.69-2.42-10.08-3.52S300.38,9.36,297,8.41l-9.81,30.2A10.65,10.65,0,0,0,294,52.06Z" fill="#602b2b"/><path d="M227.12,302.83a10.67,10.67,0,1,0,15.09,0A10.7,10.7,0,0,0,227.12,302.83Z" fill="#602b2b"/><path d="M227.12,151.39a10.66,10.66,0,1,0,15.09,0A10.66,10.66,0,0,0,227.12,151.39Z" fill="#602b2b"/><path d="M242.2,92.87a10.67,10.67,0,1,0-15.08,0A10.66,10.66,0,0,0,242.2,92.87Z" fill="#602b2b"/><path d="M227.12,376.44a10.66,10.66,0,1,0,15.08,0A10.65,10.65,0,0,0,227.12,376.44Z" fill="#602b2b"/><path d="M129.07,118.39a10.67,10.67,0,1,0,10.67,10.67A10.67,10.67,0,0,0,129.07,118.39Z" fill="#602b2b"/><path d="M340.25,329.58a10.67,10.67,0,1,0,10.66,10.66A10.67,10.67,0,0,0,340.25,329.58Z" fill="#602b2b"/><path d="M77.79,227.12a10.66,10.66,0,1,0,15.08,0A10.65,10.65,0,0,0,77.79,227.12Z" fill="#602b2b"/><path d="M391.53,227.12a10.67,10.67,0,1,0,0,15.08A10.66,10.66,0,0,0,391.53,227.12Z" fill="#602b2b"/><path d="M129.07,329.58a10.67,10.67,0,1,0,10.67,10.66A10.66,10.66,0,0,0,129.07,329.58Z" fill="#602b2b"/><path d="M340.25,118.4a10.67,10.67,0,1,0,10.66,10.66A10.67,10.67,0,0,0,340.25,118.4Z" fill="#602b2b"/><path d="M266.66,224h-64a10.67,10.67,0,0,0,0,21.33h64a10.67,10.67,0,1,0,0-21.33Z" fill="#602b2b"/><path d="M319.55,234.65c0-29.45-38-53.33-84.89-53.33s-84.88,23.88-84.88,53.33,38,53.34,84.88,53.34S319.55,264.1,319.55,234.65Zm-36.2,19.65c-12.5,7.85-30.25,12.35-48.69,12.35s-36.18-4.5-48.67-12.35c-9.46-6-14.88-13.1-14.88-19.65S176.53,221,186,215c12.49-7.86,30.24-12.36,48.67-12.36s36.19,4.5,48.69,12.36c9.44,5.94,14.87,13.09,14.87,19.64S292.79,248.35,283.35,254.3Z" fill="#602b2b"/><path d="M310.4,300.66l59.12,24.49L394,266l-59.12-24.5Zm36-31.26,19.7,8.17L358,297.27l-19.7-8.15Z" fill="#602b2b"/><path d="M144.17,369.51,203.3,394l24.49-59.12-59.12-24.5Zm36-31.25,19.71,8.17-8.16,19.7L172.05,358Z" fill="#602b2b"/><path d="M325.16,99.79,266,75.31l-24.49,59.12,59.11,24.5Zm-36,31.27-19.72-8.17,8.16-19.71,19.72,8.16Z" fill="#602b2b"/><path d="M241.55,334.88,266,394l59.12-24.49-24.5-59.13Zm36,31.25-8.16-19.7,19.72-8.17,8.16,19.7Z" fill="#602b2b"/><path d="M227.79,134.43,203.3,75.31,144.17,99.79l24.5,59.14Zm-36-31.25,8.16,19.71-19.71,8.17-8.15-19.72Z" fill="#602b2b"/><path d="M158.94,168.65,99.81,144.17,75.32,203.29l59.13,24.48Zm-36,31.25-19.71-8.16L111.35,172l19.71,8.17Z" fill="#602b2b"/><path d="M334.88,227.77,394,203.29l-24.48-59.14-59.12,24.5ZM358,172l8.17,19.71-19.7,8.16-8.17-19.7Z" fill="#602b2b"/><path d="M134.45,241.54,75.32,266l24.5,59.13,59.12-24.49Zm-23.1,55.73-8.16-19.7,19.71-8.17,8.16,19.72Z" fill="#602b2b"/></g></g></svg>