<svg xmlns="http://www.w3.org/2000/svg" viewBox="0 0 444.93 512"><title>Asset 1</title><g id="Layer_2" data-name="Layer 2"><g id="Capa_1" data-name="Capa 1"><path d="M333.48,188.42C215.45,266.2,200.86,329.74,5.86,428.83c-10,5.11-6.36,20.27,4.91,20.2,89.94-.54,298.4-20.83,410.88-187Z" fill="#fca62f"/><path d="M293.25,217.22C276.94,302.47,232.5,371.78,183,425.28A634.74,634.74,0,0,1,70.83,446,778.81,778.81,0,0,0,106,371.62c88.58-57.81,122.82-104.33,187.26-154.4Z" fill="#f98824"/><path d="M421.65,262a370.78,370.78,0,0,1-31.14,39.87c-8.81-4.71-17.48-13.22-23.32-28.21a46.48,46.48,0,0,1-1.49-4.45c-11.43,6.72-23.53,11.56-35.48,12.56a7.11,7.11,0,0,1-7.64-6.82c-.35-12,3.09-24.54,8.46-36.67-1.5-.25-3-.56-4.58-1C310,233,300.45,224.69,294.87,216c11.71-9,24.41-18.19,38.62-27.56Z" fill="#f98824"/><path d="M421.65,262C309.17,428.19,100.7,448.49,10.77,449c-11.27.08-15-15.09-4.91-20.2,2.71-1.38,5.4-2.75,8-4.12,99.78-4.94,279.24-35.77,381.1-184.94Z" fill="#f98824"/><path d="M426.86,270.1c-6.91-6.56-8-17.1-1.67-24.21l6.87-7.69a50.71,50.71,0,0,0-75.67-67.53l-6.86,7.69c-6.34,7.1-16.95,7.2-24.24,1.08-5-4.21-12.68.66-10.73,7,3.47,11.3,12.32,24.72,34.33,30.54a42.34,42.34,0,0,0,4.28.89c-5,11.31-8.22,23-7.89,34.21a6.63,6.63,0,0,0,7.13,6.36c11.14-.93,22.42-5.45,33.09-11.71.39,1.38.84,2.76,1.38,4.15,8.27,21.21,22.6,28.49,34.22,30.65C427.64,282.77,431.62,274.62,426.86,270.1Z" fill="#a3e440"/><path d="M421.1,281.55a42.45,42.45,0,0,1-16.33-6.69,6.75,6.75,0,0,0,1.05-10.57c-6.91-6.56-8-17.11-1.67-24.21l6.86-7.69a50.74,50.74,0,0,0-12.41-77.65c-.56-.32-1.11-.64-1.68-.93a50.7,50.7,0,0,1,35.14,84.39l-6.86,7.69c-6.34,7.11-5.24,17.66,1.67,24.22C431.62,274.62,427.64,282.77,421.1,281.55Z" fill="#8dc637"/><path d="M394.44,173l22.08,8c12.89-26.56,17.32-52.42,18.83-65.77a9,9,0,0,0-8.32-10l-16.58-1.15a9,9,0,0,0-9.53,10.26c3.89,25.23-2.53,47.83-6.48,58.61Z" fill="#a3e440"/><path d="M171.69,123.05c-63,126.53-43.75,188.8-162.65,372.4-6.12,9.46,4.68,20.72,14.39,15,77.51-45.62,247.61-167.83,261.46-368Z" fill="#fb4a59"/><path d="M284.89,142.43A369.68,369.68,0,0,1,278,192.54c-10,.35-21.75-2.65-34.33-12.69-1.25-1-2.41-2-3.52-3.1-6.51,11.55-14.55,21.81-24.38,28.67a7.09,7.09,0,0,1-10-2.06c-6.32-10.18-9.65-22.77-11.09-36a46.35,46.35,0,0,1-4.45,1.46c-16.38,4.5-28.84,2.14-38-2.6,5.58-13.69,12-28,19.56-43.21Z" fill="#f82f40"/><path d="M284.89,142.43C271,342.62,100.94,464.83,23.43,510.45c-9.71,5.72-20.52-5.55-14.39-15,1.65-2.55,3.29-5.09,4.89-7.6,83.81-54.36,223.54-171.12,236.75-351.27Z" fill="#f82f40"/><path d="M293.46,146.81c-9.27-2.2-15.52-10.77-13.6-20.1l2.08-10.1A50.71,50.71,0,1,0,182.6,96.19l-2.08,10.1c-1.91,9.33-11,14.74-20.42,13.11-6.46-1.12-10.63,6.93-5.75,11.45,8.67,8,23.06,15.2,45,9.18,1.43-.4,2.81-.86,4.15-1.38,1.34,12.3,4.45,24,10.35,33.55a6.61,6.61,0,0,0,9.35,1.92c9.17-6.4,16.66-16,22.74-26.74q1.54,1.5,3.28,2.9c17.8,14.19,33.85,13.29,45,9.32,6.26-2.23,5.61-11.27-.77-12.79Z" fill="#1ca56f"/><path d="M294.23,159.6A42.42,42.42,0,0,1,276.75,162a6.76,6.76,0,0,0-4.41-9.67c-9.27-2.21-15.52-10.77-13.6-20.1l2.08-10.1a50.72,50.72,0,0,0-49.73-60.92l-1.91,0a50.71,50.71,0,0,1,72.76,55.36l-2.08,10.09c-1.91,9.33,4.33,17.9,13.6,20.1,6.38,1.52,7,10.56.77,12.79Z" fill="#158f5e"/><path d="M222.55,75.14h23.5A208.6,208.6,0,0,0,241.22,6.9,9,9,0,0,0,230,.35L214,5a9,9,0,0,0-5.44,12.9C220.86,40.23,222.57,63.66,222.55,75.14Z" fill="#1ca56f"/></g></g></svg>