<svg xmlns="http://www.w3.org/2000/svg" viewBox="0 0 512 475.66"><title>Asset 4</title><g id="Layer_2" data-name="Layer 2"><g id="Capa_1" data-name="Capa 1"><path d="M147.36,85.4l46.12-54.6C240.68-25.07,331.6-.93,344.88,71l20.56,111.35A240.51,240.51,0,0,1,191.82,458.15h0C47.66,497.21-60.08,326.17,37.41,213Z" fill="#c9a291"/><path d="M116.4,207.27,226.34,79.65l46.13-54.59a88,88,0,0,1,21-18.16c-32.68-13.68-73.3-7.65-100,23.9L147.36,85.4,37.41,213c-97.49,113.16,10.25,284.2,154.41,245.14h0c3.15-.85,6.26-1.78,9.35-2.75C95.91,434.89,35.51,301.15,116.4,207.27Z" fill="#be8f7d"/><path d="M308.73,96.64A136.79,136.79,0,0,0,183.14,197.82l-9.91,36.64c-17,62.89-4.14,128.53,35.32,180.08a210.93,210.93,0,0,0,25.58,27.78,240.59,240.59,0,0,0,131.31-260l-15-81.34a136.28,136.28,0,0,0-34.82-4.53c-2.28,0-4.59.06-6.87.17Z" fill="#be8f7d"/><path d="M429.6,209.75a116.53,116.53,0,0,0-226.55-6.54l-9.91,36.64c-36.23,134,81,259.31,217.13,232.05h0c112.37-22.51,139.3-170.89,42-231.45l-2.13-1.33a45.61,45.61,0,0,1-20.54-29.37Z" fill="#d3b5a8"/><path d="M264.52,226.16l9.91-36.65a116.51,116.51,0,0,1,56-71.47,118.41,118.41,0,0,0-20.69-.8,116.55,116.55,0,0,0-106.7,86l-9.91,36.64c-36.23,134,81,259.31,217.13,232.05h0a131.2,131.2,0,0,0,30.39-10C323.2,459.73,232,346.44,264.52,226.16Z" fill="#c9a291"/><path d="M125.66,110.58l86.76.56h.06a7.74,7.74,0,0,0,.05-15.47L139,95.16Z" fill="#b37e67"/><path d="M189.57,255.58H256a7.74,7.74,0,1,0,0-15.47h-62.9c-1.39,5.17-2.57,10.35-3.51,15.49Z" fill="#be8f7d"/><path d="M429.6,209.75a118.4,118.4,0,0,0-3.25-12.18H328.94a7.74,7.74,0,0,0,0,15.47l101.48,0C430.1,212,429.83,210.86,429.6,209.75Z" fill="#c9a291"/><path d="M361.3,330.62H191.19q1.83,7.86,4.3,15.47H361.3a7.74,7.74,0,0,0,0-15.47Z" fill="#c9a291"/><path d="M412.88,346.09H393.65a7.74,7.74,0,1,1,0-15.47h19.23a7.74,7.74,0,1,1,0,15.47Z" fill="#c9a291"/><path d="M503.09,394.54H339A7.74,7.74,0,1,0,339,410H495.84A128.92,128.92,0,0,0,503.09,394.54Z" fill="#c9a291"/><path d="M95.67,220.75h.08a7.74,7.74,0,0,0,.07-15.47l-51.32-.5L37.41,213q-3.06,3.56-5.85,7.18Z" fill="#b37e67"/><path d="M139.82,304.12h-21a7.74,7.74,0,1,1,0-15.48h21a7.74,7.74,0,0,1,0,15.48Z" fill="#be8f7d"/><path d="M20.51,386.85a159.21,159.21,0,0,0,10.13,15.54H45.51a7.74,7.74,0,1,0,0-15.48Z" fill="#b37e67"/><path d="M82.59,402.39h31.52A156.37,156.37,0,0,1,103,386.91H82.59a7.74,7.74,0,0,0,0,15.48Z" fill="#be8f7d"/><path d="M266.32,330.62H191.19q1.83,7.86,4.3,15.47H272c-2.1-5-4-10.22-5.64-15.47Z" fill="#be8f7d"/><path d="M160.69,402.39H82.59a7.74,7.74,0,0,1,0-15.48h78.1a7.74,7.74,0,1,1,0,15.48Z" fill="#b37e67"/></g></g></svg>