<svg xmlns="http://www.w3.org/2000/svg" viewBox="0 0 512 412.19"><title>Asset 2</title><g id="Layer_2" data-name="Layer 2"><g id="Capa_1" data-name="Capa 1"><path d="M58.72,368.9v11.34a32,32,0,0,0,31.94,31.95H421.34a32,32,0,0,0,31.94-31.95V368.9Z" fill="#a8e5c6"/><path d="M91.44,380.24V368.9H58.72v11.34a31.94,31.94,0,0,0,31.94,31.95h32.72A31.94,31.94,0,0,1,91.44,380.24Z" opacity="0.1" style="isolation:isolate"/><path d="M438.91,340.43c-3.25-11.75-22.24-74.6-22.24-74.6h0L391.28,182.6c-3.28-10.75-14.2-19.46-24.41-19.46s-16.57,8.71-14.23,19.46c-2.34-10.75-12.51-19.46-22.72-19.46S312.59,171.85,314,182.6c-1.4-10.75-10.81-19.46-21-19.46s-18.1,8.71-17.63,19.46c-.47-10.75-9.12-19.46-19.32-19.46s-18.86,8.71-19.33,19.46c.47-10.75-7.42-19.46-17.62-19.46s-19.62,8.71-21,19.46c1.4-10.75-5.73-19.46-15.93-19.46s-20.37,8.71-22.72,19.46c1.42-6.5-.36-12.23-4.23-15.76-2.55-2.55-6.48-3.7-10-3.7-10.2,0-21.13,8.71-24.41,19.46L93.42,272.2h0s-17.24,57.06-20.32,68.23Z" fill="#ff5e97"/><path d="M187.16,265.83l-9.47,72.39a13.64,13.64,0,0,0,.06,4.09h51.37a14.59,14.59,0,0,0,.78-4.09l3.16-72.39Z" fill="#ff6489"/><path d="M141.26,265.83l-15.79,72.39a14.32,14.32,0,0,0-.29,4.09h51.37a16,16,0,0,0,1.14-4.09l9.47-72.39Z" fill="#ff7697"/><path d="M324.86,265.83H279l3.15,72.39a14.59,14.59,0,0,0,.78,4.09h51.36a14,14,0,0,0,.07-4.09Z" fill="#ff6489"/><path d="M370.77,265.83H324.86l9.46,72.39a15.2,15.2,0,0,0,1.14,4.09h51.36a13.63,13.63,0,0,0-.29-4.09Z" fill="#ff7697"/><path d="M279,265.83h-45.9l-3.16,72.39a14.3,14.3,0,0,0,.42,4.09h51.36a14,14,0,0,0,.43-4.09Z" fill="#ff7697"/><path d="M416.67,265.83h-45.9l15.76,72.39a16.94,16.94,0,0,0,1.5,4.09h51.36a14.28,14.28,0,0,0-.65-4.09Z" fill="#ff6489"/><ellipse cx="298.97" cy="106.89" rx="33.26" ry="33.74" fill="#ad55c9"/><path d="M297.14,162.9a8.4,8.4,0,0,1-1.63-9.34,67.22,67.22,0,0,1,13.37-19.3c19.45-19.73,45.63-24.08,59.6-9.91s9.69,40.73-9.77,60.47a66,66,0,0,1-19,13.55,8.11,8.11,0,0,1-9.21-1.64Z" fill="#ff3d6c"/><path d="M352.84,169.38a7.49,7.49,0,1,1,5.3-2.19A7.56,7.56,0,0,1,352.84,169.38Z" fill="#ff1b52"/><path d="M331.49,147.72a7.51,7.51,0,1,1,5.3-2.2A7.57,7.57,0,0,1,331.49,147.72Z" fill="#ff1b52"/><path d="M354.31,146.22a7.51,7.51,0,1,1,5.3-2.2A7.53,7.53,0,0,1,354.31,146.22Z" fill="#ff1b52"/><path d="M165.23,79.77a4.83,4.83,0,0,0-4.31,4.38s-2.66,39.35,13.22,55.45S228.81,153,228.81,153a4.81,4.81,0,0,0,4.31-4.37s2.66-39.35-13.21-55.45S165.23,79.77,165.23,79.77Z" fill="#009e7a"/><path d="M196.62,139.6c-15.88-16.1-13.22-55.45-13.22-55.45a4.82,4.82,0,0,1,2.47-3.79,130.29,130.29,0,0,0-20.63-.59,4.83,4.83,0,0,0-4.32,4.38s-2.66,39.35,13.22,55.45S228.81,153,228.81,153a4.47,4.47,0,0,0,1.85-.59C218.81,151.14,204.73,147.83,196.62,139.6Z" opacity="0.1" style="isolation:isolate"/><path d="M231.75,159.1a7.49,7.49,0,0,1-5.35-2.23l-35.47-36a7.5,7.5,0,1,1,10.68-10.53l35.48,36a7.49,7.49,0,0,1-5.34,12.76Z" fill="#1e8574"/><ellipse cx="172.92" cy="157.11" rx="33.26" ry="33.74" fill="#873cbe"/><path d="M156.51,157.11a33.66,33.66,0,0,1,24.84-32.64,33,33,0,0,0-8.43-1.09,33.74,33.74,0,0,0,0,67.47,32.53,32.53,0,0,0,8.43-1.1A33.66,33.66,0,0,1,156.51,157.11Z" opacity="0.1" style="isolation:isolate"/><path d="M274.65,121.35c15.73-35.08-44-64.84-38.78-36.67s-38.27,73.87-38.27,73.87l9,9.16Z" fill="#f8d5ab"/><path d="M305.77,185.48,320.26,177a20.24,20.24,0,0,0,7.25-27.45,19.67,19.67,0,0,0-27.07-7.36l-73.95,43.3Z" fill="#f8d5ab"/><path d="M226.43,185.48l75-43.93a20.15,20.15,0,0,0,7.06-27.34,19.56,19.56,0,0,0-26.88-7.47l-90.07,52.73a20.12,20.12,0,0,0-7.75,26Z" fill="#fae4c8"/><path d="M95.36,265.83l-22.1,72.39a14.26,14.26,0,0,0-.64,4.09H124a16.5,16.5,0,0,0,1.49-4.09l15.79-72.39Z" fill="#ff6489"/><path d="M140,272.2c-2.35,10.74-15,19.45-28.32,19.45h0c-13.3,0-21.42-8.71-18.14-19.45l27.35-89.6c3.28-10.75,14.21-19.46,24.41-19.46h0c10.21,0,16.58,8.71,14.23,19.46Z" fill="#ff7697"/><path d="M142.8,182.6a29.1,29.1,0,0,1,12.48-15.76,14.54,14.54,0,0,0-10-3.7c-10.2,0-21.13,8.71-24.41,19.46L73.36,338.22a14.61,14.61,0,0,0-.64,4.09H94.65a14.61,14.61,0,0,1,.64-4.09Z" opacity="0.1" style="isolation:isolate"/><path d="M186.33,272.2c-1.41,10.74-13.33,19.45-26.62,19.45h0c-13.3,0-22.18-8.71-19.84-19.45l19.54-89.6c2.35-10.75,12.52-19.46,22.72-19.46h0c10.2,0,17.34,8.71,15.93,19.46Z" fill="#ff96b1"/><path d="M232.78,272.2c-.47,10.74-11.63,19.45-24.92,19.45h0c-13.3,0-22.94-8.71-21.53-19.45l11.73-89.6c1.4-10.75,10.82-19.46,21-19.46h0c10.2,0,18.09,8.71,17.62,19.46Z" fill="#ff7697"/><path d="M279.24,272.2c.47,10.74-9.93,19.45-23.23,19.45h0c-13.3,0-23.7-8.71-23.23-19.45l3.92-89.6c.47-10.75,9.12-19.46,19.33-19.46h0c10.2,0,18.85,8.71,19.32,19.46Z" fill="#ff96b1"/><path d="M325.7,272.2c1.4,10.74-8.24,19.45-21.54,19.45h0c-13.3,0-24.45-8.71-24.92-19.45l-3.89-89.6c-.47-10.75,7.42-19.46,17.63-19.46h0c10.2,0,19.61,8.71,21,19.46Z" fill="#ff7697"/><path d="M372.15,272.2c2.34,10.74-6.54,19.45-19.84,19.45h0c-13.29,0-25.21-8.71-26.61-19.45L314,182.6c-1.4-10.75,5.73-19.46,15.93-19.46h0c10.21,0,20.38,8.71,22.72,19.46Z" fill="#ff96b1"/><path d="M418.61,272.2c3.27,10.74-4.85,19.45-18.15,19.45h0c-13.3,0-26-8.71-28.31-19.45l-19.52-89.6c-2.34-10.75,4-19.46,14.24-19.46h0c10.2,0,21.13,8.71,24.41,19.46Z" fill="#ff7697"/><path d="M10.3,339.68A10.34,10.34,0,0,0,0,350V364.1a10.34,10.34,0,0,0,10.3,10.31H501.7A10.34,10.34,0,0,0,512,364.1V350a10.34,10.34,0,0,0-10.3-10.31Z" fill="#cdf0de"/><path d="M441.07,156.4a2.69,2.69,0,0,1-2.47-1.66c-6.78-16.38-12.11-21.71-28.49-28.5a2.68,2.68,0,0,1,0-4.94c16.38-6.79,21.71-12.11,28.49-28.5a2.67,2.67,0,0,1,4.94,0c6.78,16.39,12.11,21.71,28.49,28.5a2.67,2.67,0,0,1,0,4.94c-16.38,6.79-21.71,12.12-28.49,28.5A2.68,2.68,0,0,1,441.07,156.4Z" fill="#ffcb00"/><path d="M64.87,198.87a2.31,2.31,0,0,1-2.14-1.43C56.84,183.22,52.22,178.59,38,172.7a2.32,2.32,0,0,1,0-4.29c14.22-5.89,18.84-10.51,24.73-24.73a2.31,2.31,0,0,1,4.28,0c5.89,14.22,10.51,18.84,24.73,24.73a2.32,2.32,0,0,1,0,4.29C77.52,178.59,72.9,183.22,67,197.44A2.31,2.31,0,0,1,64.87,198.87Z" fill="#ffcb00"/><path d="M117.93,45.29a1.87,1.87,0,0,1-1.72-1.14c-4.71-11.38-8.4-15.08-19.77-19.79a1.85,1.85,0,0,1,0-3.43c11.37-4.71,15.06-8.41,19.77-19.78a1.85,1.85,0,0,1,3.43,0c4.71,11.37,8.41,15.07,19.78,19.78a1.87,1.87,0,0,1,1.14,1.72,1.84,1.84,0,0,1-1.14,1.71c-11.37,4.71-15.07,8.41-19.78,19.79A1.85,1.85,0,0,1,117.93,45.29Z" fill="#ffcb00"/><path d="M33.48,364.1V350a10.34,10.34,0,0,1,10.3-10.31H10.3A10.34,10.34,0,0,0,0,350V364.1a10.34,10.34,0,0,0,10.3,10.31H43.78A10.34,10.34,0,0,1,33.48,364.1Z" opacity="0.1" style="isolation:isolate"/></g></g></svg>