<svg xmlns="http://www.w3.org/2000/svg" viewBox="0 0 247.04 512"><title>Asset 2</title><g id="Layer_2" data-name="Layer 2"><g id="Capa_1" data-name="Capa 1"><path d="M142.06,511.77a7.83,7.83,0,0,1-8.42-3.3L120,487.75a6.32,6.32,0,0,1-.33-.56,41.62,41.62,0,0,1-5-20.28c0-.29,0-.58.06-.86l3.2-26.08a7.82,7.82,0,1,1,15.53,1.91l-3.15,25.61a26,26,0,0,0,3,12l13.41,20.43a7.82,7.82,0,0,1-2.25,10.83A8,8,0,0,1,142.06,511.77Z" fill="#cd5668"/><path d="M227.26,152.43c19.13-39,15.9-79.83-7.22-91.17s-57.37,11.1-76.5,50.12c-10,20.5-13.92,41.49-12,58.45a81.49,81.49,0,0,1-7.8,44.37L89.57,285.63l33,16.17L158.08,231a81.52,81.52,0,0,1,30.3-33.34c14.6-8.84,28.83-24.76,38.88-45.26Z" fill="#a4c46a"/><path d="M19.78,152.43C.65,113.42,3.89,72.6,27,61.26s57.36,11.1,76.5,50.12c10,20.5,13.92,41.49,12,58.45a81.59,81.59,0,0,0,7.8,44.37l34.19,71.43-33,16.17L89,231a81.55,81.55,0,0,0-30.31-33.34c-14.6-8.84-28.82-24.76-38.88-45.26Z" fill="#a4c46a"/><path d="M170.14,78.68C170.14,35.22,149.27,0,123.52,0S76.9,35.22,76.9,78.68c0,22.83,5.77,43.39,15,57.75a81.55,81.55,0,0,1,12.53,43.28l.75,79.18h36.72l.75-79.18a81.64,81.64,0,0,1,12.53-43.28C164.38,122.07,170.14,101.51,170.14,78.68Z" fill="#bbdb81"/><path d="M123.52,0a30.13,30.13,0,0,0-15.64,4.55c18.05,10.85,31,39.94,31,74.13,0,22.83-5.77,43.39-15,57.75a81.46,81.46,0,0,0-12.53,43.28l-.75,79.18h31.28l.75-79.18a81.56,81.56,0,0,1,12.54-43.28c9.21-14.36,15-34.92,15-57.75C170.14,35.23,149.27,0,123.52,0Z" fill="#afd171"/><path d="M236.62,341.84c0,68.22-119.22,109.41-128.74,105.32C74.64,432.87,0,394.87,0,341.84A123.54,123.54,0,0,1,108.32,219.25c5-.61,10.05.11,15.2.11C191.74,219.36,236.62,273.62,236.62,341.84Z" fill="#d5717f"/><path d="M123.52,218.32a126,126,0,0,0-15.64,1A123.55,123.55,0,0,1,215.76,341.84c0,53-74.65,91-107.88,105.32,9.51,4.09,15.64,6.24,15.64,6.24S247,410.06,247,341.84A123.52,123.52,0,0,0,123.52,218.32Z" fill="#cd5668"/><path d="M31.34,59.57A28.55,28.55,0,0,0,27,61.26,29.09,29.09,0,0,0,18.16,68l21.19,36.68A7.82,7.82,0,1,0,52.89,96.9Z" fill="#95b361"/><path d="M123.52,0a28.7,28.7,0,0,0-7.82,1.12v46a7.82,7.82,0,1,0,15.64,0v-46A28.59,28.59,0,0,0,123.52,0Z" fill="#a4c46a"/><path d="M220,61.26c-.75-.37-1.52-.7-2.29-1L196.59,96.9a7.82,7.82,0,1,0,13.55,7.82l20.18-34.95A29.48,29.48,0,0,0,220,61.26Z" fill="#95b361"/><path d="M155.28,275.61a7.82,7.82,0,0,0,7.82,7.82h69.28a123.06,123.06,0,0,0-10-15.64H163.1A7.82,7.82,0,0,0,155.28,275.61Z" fill="#cd5668"/><path d="M140.23,385.27a7.82,7.82,0,1,0,0,15.64h75A131.11,131.11,0,0,0,230,385.27Z" fill="#cd5668"/><path d="M97.45,331.35H.45c-.29,3.46-.45,7-.45,10.49,0,1.74.1,3.45.26,5.15H97.45a7.82,7.82,0,0,0,0-15.64Z" fill="#cd5668"/></g></g></svg>