<svg xmlns="http://www.w3.org/2000/svg" viewBox="0 0 421.63 512"><title>Asset 3</title><g id="Layer_2" data-name="Layer 2"><g id="Layer_1-2" data-name="Layer 1"><path d="M420.1,119.66a146.58,146.58,0,0,0-2.68-14.87c-3.9-16.72-10.79-32.19-21.67-45.93Q381.83,41.3,360.17,29l-2-1.13a168.1,168.1,0,0,0-17.95-8.4c-1-.4-2-.8-3.05-1.19C304.85,6,263,0,210.82,0Q203.26,0,196,.18C151.2,1.22,114.52,7.1,85.49,18h0c-1.1.41-2.18.82-3.26,1.25h0A162.69,162.69,0,0,0,63.52,27.9c-.69.37-1.37.75-2,1.13Q39.78,41.29,25.89,58.86C15,72.59,8.14,88,4.23,104.74a146,146,0,0,0-2.68,14.84c-3.68,28.08-.38,59,5.55,90.83q1.5,8.07,3.21,16.19c3.11,14.86,6.63,29.83,10.13,44.71,4.19,17.78,8.26,35.13,11.55,51.81q1.73,8.78,3.12,17.28a278.27,278.27,0,0,1,4.12,44.38c0,7.19-1.16,16.15-2.38,25.64-.29,2.23-.59,4.52-.87,6.83-.62,4.94-1.19,10-1.6,15.19-1.68,21.38-.41,43.68,13.45,59.44,10.26,11.67,25.71,18.17,47,19.74,3.41.26,7,.38,10.69.38,31.08,0,51.57-7,62.62-21.53C179,476.27,179,457.33,175.26,437c-.89-4.82-2-9.72-3.2-14.65-1.57-6.37-3.33-12.78-5.08-19.16-3.68-13.44-7.43-27.11-9-39.4a79.62,79.62,0,0,1-.74-15c.4-7.17,2.15-13.43,5.88-18.32,7.18-9.41,22.28-14.37,44.9-14.75h.25l2.6,0c24.21,0,40.27,5,47.75,14.77,3.73,4.89,5.48,11.15,5.88,18.32a79.62,79.62,0,0,1-.74,15c-1.62,12.29-5.37,26-9,39.4-1.75,6.38-3.51,12.79-5.08,19.16-1.21,4.93-2.31,9.83-3.2,14.65-3.74,20.3-3.75,39.24,7.08,53.44,9.27,12.15,25.17,19.06,48.39,21q6.7.57,14.23.56c26.95,0,45.83-6.58,57.73-20.12,13.86-15.76,15.13-38.06,13.45-59.44-.41-5.15-1-10.24-1.6-15.18h0c-.28-2.31-.58-4.6-.87-6.83-1.22-9.49-2.38-18.45-2.38-25.64a278.27,278.27,0,0,1,4.12-44.38q1.38-8.5,3.12-17.28c3.29-16.68,7.36-34,11.55-51.81,3.48-14.82,7-29.72,10.09-44.53h0q1.72-8.21,3.25-16.36l.06-.34c5.89-31.65,9.15-62.45,5.5-90.41ZM250.23,237.1a50.78,50.78,0,0,1-2.38,15.1c-5.52,17.33-20,29.73-37,29.73-17.28,0-32-12.82-37.31-30.61a51.18,51.18,0,0,1-2.1-14.58v-.57c.27-24.66,17.85-44.62,39.41-44.62,21.73,0,39.41,20.27,39.41,45.19Z" fill="#ffab5b"/><path d="M175.26,437c3.74,20.3,3.75,39.24-7.08,53.44C157.13,505,136.64,512,105.56,512c-3.72,0-7.28-.12-10.69-.38C235.35,502.1,37.31,317.74,208,315.73c-22.62.38-37.72,5.34-44.9,14.75-3.73,4.89-5.48,11.15-5.88,18.32a79.62,79.62,0,0,0,.74,15c1.62,12.29,5.37,26,9,39.4,1.75,6.38,3.51,12.79,5.08,19.16,1.21,4.93,2.31,9.83,3.2,14.65Z" fill="#ff905f"/><path d="M414.6,210.07l-.06.34q-1.52,8.15-3.25,16.36h0c-3.1,14.81-6.61,29.71-10.09,44.53-4.19,17.78-8.26,35.13-11.55,51.81q-1.72,8.78-3.12,17.28a278.27,278.27,0,0,0-4.12,44.38c0,7.19,1.16,16.15,2.38,25.64.29,2.23.59,4.52.87,6.83h0c.62,4.94,1.19,10,1.6,15.18,1.68,21.38.41,43.68-13.45,59.44C361.91,505.42,343,512,316.08,512q-7.53,0-14.23-.56c77.86-7.22,48-83.67,48-122.78C349.87,245,508.8,7.51,196,.18Q203.26,0,210.82,0c52.13,0,94,6,126.32,18.31,1,.39,2,.79,3.05,1.19a168.1,168.1,0,0,1,17.95,8.4l2,1.13q21.7,12.27,35.58,29.83c10.88,13.74,17.77,29.21,21.67,45.93a146.58,146.58,0,0,1,2.68,14.87c3.65,28,.39,58.76-5.5,90.41Z" fill="#ff905f"/><path d="M389.65,323.12q-1.72,8.78-3.12,17.28c-7.69,2.82-19.31,6.74-33.71,10.57-23.85,6.36-55.31,12.46-89.11,12.85a79.62,79.62,0,0,0,.74-15c34.9-.53,67.59-7.54,91-14.18a345.79,345.79,0,0,0,34.22-11.5Z" fill="#ffd28e"/><path d="M387.26,432.44A267.18,267.18,0,0,1,355,439.31a323,323,0,0,1-48.7,3.72,295.59,295.59,0,0,1-59.89-6c.89-4.82,2-9.72,3.2-14.65,40.75,8.39,78.47,5.8,103.85,1.88a242.22,242.22,0,0,0,32.23-7c.62,4.94,1.19,10,1.6,15.18Z" fill="#ffd28e"/><path d="M157.93,363.82c-8.07-.1-16-.52-23.75-1.19C90,358.8,52.48,346.77,35.11,340.4q-1.38-8.5-3.12-17.28c7.8,3.15,52.17,20.32,105.28,24.7,6.52.54,13.18.88,19.92,1A79.62,79.62,0,0,0,157.93,363.82Z" fill="#ffd28e"/><path d="M175.26,437a284.92,284.92,0,0,1-28.62,4.41A305.9,305.9,0,0,1,115.37,443c-40.35,0-71.12-7.76-81-10.59.41-5.15,1-10.25,1.6-15.19,3.71,1.16,49.86,14.92,107.67,9.38a268,268,0,0,0,28.41-4.25C173.27,427.31,174.37,432.21,175.26,437Z" fill="#ffd28e"/><path d="M414.6,210.07l-.06.34q-1.52,8.15-3.25,16.36h0q-16.62,4.93-34,8.94c-40.61,9.39-84,14.92-129.48,16.48a50.78,50.78,0,0,0,2.38-15.1,670.71,670.71,0,0,0,130.58-17.77q17.35-4.17,33.79-9.26Z" fill="#ffd28e"/><path d="M173.51,251.32C92,246.73,28.79,231.46,10.31,226.6q-1.7-8.13-3.21-16.19c.69.21,70.59,20.15,164.31,25.76v.57A51.18,51.18,0,0,0,173.51,251.32Z" fill="#ffd28e"/><path d="M420.1,119.66Q405,124.27,389.81,128c-59.08,14.51-117.75,19.3-169.45,19.3-32.37,0-62-1.87-87.3-4.42-68.73-6.91-118-19.55-131.51-23.27a146,146,0,0,1,2.68-14.84C14.9,107.71,65.35,121,134.91,128c64.84,6.49,158.73,8.54,253.29-15q14.61-3.65,29.22-8.13a146.58,146.58,0,0,1,2.68,14.87Z" fill="#ffd28e"/><path d="M358.14,27.9Q348.29,31,338.4,33.48c-42.16,10.75-84.15,14.27-121,14.27-22.41,0-42.92-1.3-60.44-3.06C103.6,39.32,67.15,29,63.52,27.9a162.69,162.69,0,0,1,18.69-8.69h0c1.08-.43,2.16-.84,3.26-1.25h0A607.29,607.29,0,0,0,158.8,29.8c41.3,4.13,99.78,5.63,159.83-7.11q9.24-1.95,18.51-4.38c1,.39,2,.79,3.05,1.19A168.1,168.1,0,0,1,358.14,27.9Z" fill="#ffd28e"/><path d="M340.19,19.5c-1-.4-2-.8-3.05-1.19q-9.25,2.43-18.51,4.38A146.2,146.2,0,0,1,338.4,33.48q9.87-2.52,19.74-5.58a168.1,168.1,0,0,0-17.95-8.4Z" fill="#ffbf85"/><path d="M353.43,424.26c.61,5,1.16,10,1.54,15.05a267.18,267.18,0,0,0,32.29-6.87c-.41-5.15-1-10.24-1.6-15.18A242.22,242.22,0,0,1,353.43,424.26Z" fill="#ffbf85"/><path d="M352.82,351c14.4-3.83,26-7.75,33.71-10.57q1.38-8.5,3.12-17.28a345.79,345.79,0,0,1-34.22,11.5Q354,342.9,352.82,351Z" fill="#ffbf85"/><path d="M377.33,235.72q17.32-4,34-8.94h0q1.72-8.21,3.25-16.36l.06-.34q-16.41,5.07-33.79,9.26-1.65,8.17-3.48,16.39Z" fill="#ffbf85"/><path d="M420.1,119.66a146.58,146.58,0,0,0-2.68-14.87q-14.6,4.5-29.22,8.13,1.14,7.38,1.61,15Q405,124.25,420.1,119.66Z" fill="#ffbf85"/><path d="M157.93,363.82c-8.07-.1-16-.52-23.75-1.19a54,54,0,0,1,3.09-14.81c6.52.54,13.18.88,19.92,1A79.62,79.62,0,0,0,157.93,363.82Z" fill="#ffbf85"/><path d="M175.26,437a284.92,284.92,0,0,1-28.62,4.41c-.86-4.85-1.89-9.81-3-14.81a268,268,0,0,0,28.41-4.25C173.27,427.31,174.37,432.21,175.26,437Z" fill="#ffbf85"/></g></g></svg>