<svg xmlns="http://www.w3.org/2000/svg" viewBox="0 0 512 329.66"><title>Asset 1</title><g id="Layer_2" data-name="Layer 2"><g id="Capa_1" data-name="Capa 1"><path d="M512,20.52A20.1,20.1,0,0,0,492.26,0H429.59V329.66h54A28.72,28.72,0,0,0,512,302.1C512,301,512,22.46,512,20.52Z" fill="#ac6a00"/><path d="M486.24,165.72c0,90.54-25.36,163.94-56.66,163.94s-56.66-73.4-56.66-163.94S398.29,0,429.58,0,486.24,75.18,486.24,165.72Z" fill="#d05422"/><path d="M429.58,0c-7.19,0-14.06,4.12-20.39,11.19,3.83,7,11.25,13.44,19.82,13.64,3,1.45,12.29,11.05,20.83,39s13.22,64.05,13.22,101.92-4.69,74.07-13.22,101.93S432,305.17,429,306.61a23.2,23.2,0,0,0-19.82,12.09c6.33,7.07,13.2,11,20.39,11,31.3,0,56.66-73.4,56.66-163.94S460.88,0,429.58,0Z" fill="#c14216"/><path d="M351.29,72.3v185c0,26.74,14.54,52.23,40,70.15,5,3.48,12.19,2.65,15.79-1.22A24.07,24.07,0,0,0,413,314.6c2.56-12.36-4.46-17.46-1.77-25.3,2.41-7.1,9.65-5.94,17.74-14.8,7.6-8.2,7-18.95-2.32-26.63-5.95-4.91-4.88-12,2.47-16.13,15.44-8.59,16.95-24.09,3.25-33.83-6.53-4.66-6.13-11.82.75-16.17,14.52-9.19,14.53-24.67,0-33.87-6.92-4.37-7.25-11.53-.75-16.17,13.7-9.73,12.19-25.24-3.25-33.83-7.24-4-8.5-11.16-2.47-16.13,6.25-5.14,8.57-11.63,7.17-17.81-1.94-8.4-11-14.56-15.1-16.47-9.14-4.29-9.24-10.59-6.63-18.26,3.11-8.93,1.17-19.26-4.92-25.74-3.9-4.14-11.26-4.55-15.87-1.31C365.24,20.48,351.29,46.18,351.29,72.3Z" fill="#a6b730"/><path d="M360.56,0H309.05L247.24,329.66H351.46c15.63,0,29-12,29.67-27.56.05-1.1,0-279.63,0-281.57C381.16,8.24,371.1.09,360.56,0Z" fill="#ac6a00"/><path d="M20.64,329.66H300.56a30.82,30.82,0,0,0,30.9-30.74V20.53c0-18.25-22.19-27.4-35.17-14.49L6.08,294.68C-6.9,307.59,2.29,329.66,20.64,329.66Z" fill="#f3cc82"/><circle cx="86.02" cy="283.81" r="7.73" fill="#e7af62"/><circle cx="116.92" cy="232.31" r="7.73" fill="#e7af62"/><circle cx="158.13" cy="273.51" r="7.73" fill="#e7af62"/><circle cx="178.74" cy="222" r="7.73" fill="#e7af62"/><circle cx="147.83" cy="201.4" r="7.73" fill="#e7af62"/><circle cx="219.94" cy="149.89" r="7.73" fill="#e7af62"/><circle cx="250.85" cy="160.19" r="7.73" transform="translate(52.54 382.14) rotate(-80.78)" fill="#e7af62"/><circle cx="230.24" cy="180.8" r="7.73" fill="#e7af62"/><circle cx="281.75" cy="222" r="7.73" fill="#e7af62"/><circle cx="240.55" cy="242.61" r="7.73" fill="#e7af62"/><circle cx="292.06" cy="263.21" r="7.73" fill="#e7af62"/><circle cx="312.66" cy="170.5" r="7.73" fill="#e7af62"/><circle cx="240.55" cy="98.38" r="7.73" fill="#e7af62"/><circle cx="302.36" cy="77.78" r="7.73" fill="#e7af62"/><circle cx="240.55" cy="304.42" r="7.73" fill="#e7af62"/><circle cx="116.92" cy="304.42" r="7.73" fill="#e7af62"/></g></g></svg>