<svg xmlns="http://www.w3.org/2000/svg" viewBox="0 0 433.81 512"><title>Asset 2</title><g id="Layer_2" data-name="Layer 2"><g id="Layer_1-2" data-name="Layer 1"><path d="M196.69,314.25a235.41,235.41,0,0,1-37.3,35.26S50.71,325.25,30.05,241.68c-.39-1.51-.73-3.06-1.05-4.61A282.76,282.76,0,0,1,88.48,0,282.76,282.76,0,0,1,235.63,195.14C245.52,243.86,220.63,286.28,196.69,314.25Z" fill="#5b5b68"/><path d="M88.62,225c17.57,86.63,69.94,124,70.75,124.53C157.64,349.1,46.58,323.68,29,237.06A282.8,282.8,0,0,1,88.48,0C72.15,56.32,70.9,137.65,88.62,225Z" fill="#40404c"/><path d="M140.83,266a7.83,7.83,0,0,1-7.67-6.28L96,76.35a7.84,7.84,0,1,1,15.36-3.11l37.19,183.31a7.83,7.83,0,0,1-6.12,9.24A7.68,7.68,0,0,1,140.83,266Z" fill="#40404c"/><path d="M196.69,314.25a235.41,235.41,0,0,1-37.3,35.26S50.71,325.25,30.05,241.68A250.52,250.52,0,0,1,196.69,314.25Z" fill="#40404c"/><path d="M202.64,213.63c-61.88,64.08-18.72,171.14-18.72,171.14s108.51,39.4,170.39-24.69a282.77,282.77,0,0,0,77.33-231.84A282.74,282.74,0,0,0,202.64,213.63Z" fill="#5b5b68"/><path d="M246.4,255.88c-61.4,63.58-62.46,127.88-62.48,128.88-.66-1.65-42.68-107.55,18.72-171.14a282.82,282.82,0,0,1,229-85.38C376,146.71,308.29,191.79,246.4,255.88Z" fill="#40404c"/><path d="M240.93,333.57a7.83,7.83,0,0,1-5.61-13.3l82.86-85,28-29,26.7-28.45a7.84,7.84,0,0,1,11.43,10.73L357.61,217a.3.3,0,0,1-.08.08l-28.11,29.11-82.88,85A7.81,7.81,0,0,1,240.93,333.57Z" fill="#40404c"/><path d="M57.21,472.17C107.38,533.14,206,506,206,506s45.66-91.56-4.51-152.53A250.63,250.63,0,0,0,5.17,261.9,250.61,250.61,0,0,0,57.21,472.17Z" fill="#ffca5e"/><path d="M98.83,437.91c49.78,60.49,106.3,67.93,107.17,68-1.52.41-99,26.7-148.8-33.79a250.62,250.62,0,0,1-52-210.28C15.81,312.77,48.66,376.94,98.83,437.91Z" fill="#e8a328"/></g></g></svg>