<svg xmlns="http://www.w3.org/2000/svg" viewBox="0 0 444.26 512"><title>Asset 1</title><g id="Layer_2" data-name="Layer 2"><g id="Layer_1-2" data-name="Layer 1"><path d="M43.83,157.51C-2,178.82-13.78,250.56,17.48,317.74c25.27,54.33,71,89.05,111.74,89.08A48.36,48.36,0,0,1,172.9,435a48.39,48.39,0,0,1,6.6-51.55c26.25-31.22,29.13-88.52,3.86-142.86C152.11,173.39,89.64,136.2,43.83,157.51Z" fill="#96cd82"/><path d="M154.36,387.58c-.23-.44-.34-.89-.56-1.33-42.12,1.27-91.48-29.56-123.43-81.57-17.2-28-26.56-57.74-28.49-85-5,29.14-.15,64.21,15.6,98.06,25.27,54.33,71,89.05,111.74,89.08A48.38,48.38,0,0,1,172.9,435a48.67,48.67,0,0,1-4.37-17.28C164,407.58,159.6,397.37,154.36,387.58Z" fill="#7dbe81"/><path d="M391.1,86.07c-54.89-25-129.08,20-165.71,100.52-29.62,65.1-25.62,133.47,6,170.46a57.74,57.74,0,0,1,8.38,61.46,57.8,57.8,0,0,1,51.86-34.05c48.67-.43,102.86-42.32,132.48-107.41C460.78,196.55,446,111,391.1,86.07Z" fill="#96cd82"/><path d="M205.65,264.44c-1.74,30.83,4.19,59.05,17.1,80.4.48.78,1,1.56,1.46,2.34a90.5,90.5,0,0,0,7.21,9.87s2.81,3.65,4,5.5,2.15,3.53,3.09,5.36a58,58,0,0,1,1.25,50.6,59.19,59.19,0,0,1,4.28-7.64l49.67-113.22Z" fill="#7dbe81"/><path d="M298.91,296.42A8.13,8.13,0,0,1,296,280.69l97.81-36.93A8.13,8.13,0,0,1,399.6,259L301.78,295.9A8.26,8.26,0,0,1,298.91,296.42Z" fill="#b4e6a0"/><path d="M201.5,512a8.13,8.13,0,0,1-7.4-11.48l161.34-357a8.13,8.13,0,1,1,14.81,6.69L208.91,507.22A8.14,8.14,0,0,1,201.5,512Z" fill="#cdf5a0"/><path d="M201.52,512a8.16,8.16,0,0,1-7.43-4.79L91.32,278.47a8.13,8.13,0,0,1,14.83-6.67L208.92,500.54a8.13,8.13,0,0,1-4.08,10.75A8.23,8.23,0,0,1,201.52,512Z" fill="#b4e6a0"/><path d="M120.39,332.47a8.08,8.08,0,0,1-3-.56L55,307.59a8.12,8.12,0,1,1,5.9-15.14l62.46,24.32a8.13,8.13,0,0,1-3,15.7Z" fill="#b4e6a0"/><path d="M201.51,407.8a64.47,64.47,0,0,1,37-58.57c49.26-23,85-90.58,85-170.44C323.41,80.05,268.84,0,201.51,0S79.61,80.05,79.61,178.79c0,79.86,35.69,147.48,85,170.44A64.49,64.49,0,0,1,201.51,407.8Z" fill="#96cd82"/><path d="M202.32,342.34c-44.66-23.57-82.18-81.74-93.88-154.16-10.22-63.25,1.74-122.52,28.19-160.76-34.21,31.67-57,87.66-57,151.37,0,79.86,35.69,147.48,85,170.44a64.49,64.49,0,0,1,36.95,58.57,65.75,65.75,0,0,1,.81-9.74Z" fill="#7dbe81"/><path d="M201.51,317a8.1,8.1,0,0,1-5.75-2.38L98.64,217.45A8.12,8.12,0,1,1,110.13,206l97.12,97.12A8.13,8.13,0,0,1,201.51,317Z" fill="#b4e6a0"/><path d="M201.51,251.94a8.14,8.14,0,0,1-5.75-13.88L277,156.79a8.13,8.13,0,0,1,11.49,11.5l-81.27,81.26A8.07,8.07,0,0,1,201.51,251.94Z" fill="#b4e6a0"/><path d="M201.51,195.05a8.14,8.14,0,0,1-5.75-2.38l-56.89-56.89a8.12,8.12,0,1,1,11.49-11.49l56.89,56.89a8.13,8.13,0,0,1-5.74,13.87Z" fill="#b4e6a0"/><path d="M201.51,512a8.13,8.13,0,0,1-8.13-8.13V73.14a8.13,8.13,0,0,1,16.25,0V503.87A8.12,8.12,0,0,1,201.51,512Z" fill="#cdf5a0"/></g></g></svg>