<svg xmlns="http://www.w3.org/2000/svg" viewBox="0 0 145.78 512"><title>Asset 2</title><g id="Layer_2" data-name="Layer 2"><g id="Capa_1" data-name="Capa 1"><path d="M104.56,479.3a31.69,31.69,0,1,1-63.34,0l9.86-305.4H94.7Z" fill="#acabb1"/><path d="M104.56,479.3a31.46,31.46,0,0,1-4.27,16.94,31.68,31.68,0,0,1-27.38-32.41L82.26,173.9H94.7Z" fill="#c6c5ca"/><path d="M145.78,113.91c0,43.78-24.41,80.39-57,89.47a58.47,58.47,0,0,1-15.84,2.18c-40.26,0-72.89-41-72.89-91.65S32.63,0,72.89,0A41,41,0,0,1,88.73,3.28C121.37,16.87,145.78,70.14,145.78,113.91Z" fill="#d8d7da"/><path d="M145.78,113.91c0,43.78-24.41,80.39-57,89.47-32.64-9.08-57-45.69-57-89.47s24.41-97,57.05-110.63C121.37,16.87,145.78,70.14,145.78,113.91Z" fill="#e0e0e2"/></g></g></svg>