<svg xmlns="http://www.w3.org/2000/svg" viewBox="0 0 470 512"><title>Asset 1</title><g id="Layer_2" data-name="Layer 2"><g id="Layer_1-2" data-name="Layer 1"><path d="M470,144.17c0,32.61-17.62,64.31-49.73,89.61v221A57.28,57.28,0,0,1,363.05,512H107a57.28,57.28,0,0,1-57.22-57.2v-221C17.62,208.48,0,176.78,0,144.17,0,105.06,25.24,68.45,71.06,41.09,111.81,16.76,164.23,2.47,220,.3q7.47-.3,15-.3c61.33,0,119.55,14.59,163.94,41.09,45.82,27.36,71.06,64,71.06,103.08Z" fill="#f79e60"/><path d="M470,144.17c0,32.61-17.62,64.31-49.73,89.61v221A57.28,57.28,0,0,1,363.05,512H107a57.28,57.28,0,0,1-57.22-57.2v-30A57.28,57.28,0,0,0,107,482h226.1a57.28,57.28,0,0,0,57.22-57.2v-211L440,144.17c0-39.11-25.24-75.72-71.06-103.08C328.19,16.76,275.77,2.47,220,.3q7.47-.3,15-.3c61.33,0,119.55,14.59,163.94,41.09,45.82,27.36,71.06,64,71.06,103.08Z" fill="#d77d41"/><path d="M440,144.17a67.21,67.21,0,0,1-7.75,30.8c-6,11.69-16.18,24.45-33,37.17a22.61,22.61,0,0,0-9,18V454.8A27.24,27.24,0,0,1,363.05,482H107a27.24,27.24,0,0,1-27.22-27.2V230.09a22.61,22.61,0,0,0-9-18c-33.7-25.45-40.78-51-40.78-68,0-27.72,20.57-55.9,56.44-77.32C122.11,45.56,170.1,32.52,220,30.33q7.49-.33,15-.33c55.19,0,109.33,13.43,148.56,36.85C419.43,88.27,440,116.45,440,144.17Z" fill="#ffe8c8"/><path d="M440,144.17a67.21,67.21,0,0,1-7.75,30.8c-6,11.69-16.18,24.45-33,37.17a22.61,22.61,0,0,0-9,18V454.8A27.24,27.24,0,0,1,363.05,482H107a27.24,27.24,0,0,1-27.22-27.2v-30A27.24,27.24,0,0,0,107,452h226.1a27.24,27.24,0,0,0,27.22-27.2V230.09a22.61,22.61,0,0,1,9-18c16.85-12.72,27-25.48,33-37.17a67.21,67.21,0,0,0,7.75-30.8c0-27.72-20.57-55.9-56.44-77.32C317.89,45.56,269.9,32.52,220,30.33q7.49-.33,15-.33c55.19,0,109.33,13.43,148.56,36.85C419.43,88.27,440,116.45,440,144.17Z" fill="#fdd9b4"/><path d="M329.49,222.55,129.9,422.14a7.5,7.5,0,1,0,10.61,10.6L340.1,233.15a7.5,7.5,0,0,0-10.61-10.6Z" fill="#f2c397"/><path d="M131.88,376.56a7.52,7.52,0,0,0,10.61,0L283.91,235.14a7.5,7.5,0,1,0-10.6-10.61L131.88,366a7.52,7.52,0,0,0,0,10.61Z" fill="#f2c397"/><path d="M139,312.92a7.51,7.51,0,0,0,10.6,0l70.71-70.71a7.5,7.5,0,0,0-10.6-10.61L139,302.31a7.5,7.5,0,0,0,0,10.61Z" fill="#f2c397"/><path d="M327.51,278.73,186.09,420.15a7.5,7.5,0,1,0,10.6,10.61L338.12,289.34a7.5,7.5,0,1,0-10.61-10.61Z" fill="#f2c397"/><path d="M320.44,342.37l-70.71,70.71a7.5,7.5,0,1,0,10.6,10.61L331,353a7.5,7.5,0,0,0-10.6-10.61Z" fill="#f2c397"/><circle cx="190.35" cy="169.07" r="7.5" fill="#f2c397"/><circle cx="107.19" cy="148.08" r="7.5" fill="#f2c397"/><circle cx="136.19" cy="106.08" r="7.5" fill="#f2c397"/><circle cx="312.82" cy="120.52" r="7.5" fill="#f2c397"/><circle cx="356.9" cy="150.82" r="7.5" fill="#f2c397"/></g></g></svg>