<svg xmlns="http://www.w3.org/2000/svg" viewBox="0 0 507.47 512"><title>Asset 1</title><g id="Layer_2" data-name="Layer 2"><g id="Capa_1" data-name="Capa 1"><path d="M368.88,162.41H294.67S220.09,87.11,237,70.24s49.48,26.34,66,20.45S304.29,1.08,331.25,0l.52,0c27.68,0,12.36,84.81,28.85,90.69s49.1-37.31,66-20.45-57.7,92.17-57.7,92.17Z" fill="#95d6a4"/><path d="M312.34,106.37c-26.65,14.92-35,23.85-13.62,56h-4.05S220.09,87.11,237,70.24s49.48,26.34,66,20.45S304.29,1.08,331.25,0c-18.37,1.62,10.27,90-18.91,106.35Z" fill="#78c2a4"/><path d="M341.72,427.9a242.57,242.57,0,0,0,35.41,5.79,50.58,50.58,0,0,0,28-5.53,229,229,0,0,0,46.95-32.23c51-45.61,68.48-118,45.26-182.39a212.5,212.5,0,0,0-20.12-41.36A83.45,83.45,0,0,0,367.5,142.9c-4.12,2.19-8,4.36-11.52,6.45a47.7,47.7,0,0,1-48.42,0c-3.55-2.09-7.4-4.26-11.52-6.45A83.47,83.47,0,0,0,186.3,172.18a213.64,213.64,0,0,0-20.12,41.36c-23.21,64.37-5.76,136.78,45.26,182.39a228.72,228.72,0,0,0,47,32.23,50.58,50.58,0,0,0,28,5.53,242.57,242.57,0,0,0,35.41-5.79,41.1,41.1,0,0,1,19.9,0Z" fill="#db5c6e"/><path d="M290.21,428.16a23,23,0,0,0,6.64,4.37c-3.78.49-7.3.87-10.44,1.16a50.68,50.68,0,0,1-28-5.53,229,229,0,0,1-46.95-32.23c-51-45.6-68.48-118-45.26-182.39a213.36,213.36,0,0,1,20.11-41.36,83.5,83.5,0,0,1,91.38-36.4c-11.35,5.12-21.62,17.66-28.31,36.4A303.4,303.4,0,0,0,238,213.54c-13.15,64.37-3.26,136.79,25.64,182.39a159.9,159.9,0,0,0,26.6,32.23Z" fill="#d64553"/><path d="M483,377.44l-1-3.5a94.63,94.63,0,0,0-34.57-49.72,17.62,17.62,0,0,0-31.6-15.4,95.89,95.89,0,0,0-41.95-2.05,764.79,764.79,0,0,1-260.87,0,96.41,96.41,0,0,0-20-1.35,17.63,17.63,0,1,0-34.36,7.73A95.08,95.08,0,0,0,4.84,373.94l-1,3.5A95.22,95.22,0,0,0,79,497.81a959.9,959.9,0,0,0,328.88,0,95.27,95.27,0,0,0,77.08-75.09c0-.19.07-.37.1-.55A94.43,94.43,0,0,0,483,377.44Z" fill="#95d6a4"/><path d="M485,422.17c0,.18-.07.36-.11.55a95.24,95.24,0,0,1-77.07,75.09,959.9,959.9,0,0,1-328.88,0A95.22,95.22,0,0,1,3.82,377.44l1-3.5a94.59,94.59,0,0,1,38.61-52.57C17.56,388.5,75.61,440.05,124,440.05c96.79,3.62,194.87,2.84,291.1-2.37C446.12,436,471,430,485,422.17Z" fill="#78c2a4"/><circle cx="462.25" cy="468.07" r="17.64" fill="#78c2a4"/><circle cx="130.89" cy="391.03" r="17.64" fill="#78c2a4"/><path d="M130.89,416.39A25.36,25.36,0,0,1,113,373.09,7.73,7.73,0,1,1,123.87,384a9.92,9.92,0,0,0,14,14A7.73,7.73,0,1,1,148.83,409a25.3,25.3,0,0,1-17.94,7.42Z" fill="#66b394"/><circle cx="263.61" cy="395.93" r="17.64" fill="#78c2a4"/><path d="M263.61,421.29A25.36,25.36,0,0,1,245.67,378a7.73,7.73,0,0,1,10.93,10.92,9.92,9.92,0,0,0,14,14,7.73,7.73,0,1,1,10.93,10.93A25.32,25.32,0,0,1,263.61,421.29Z" fill="#66b394"/><circle cx="360.76" cy="450.43" r="17.64" fill="#78c2a4"/><path d="M360.76,475.8a25.37,25.37,0,0,1-17.94-43.31,7.73,7.73,0,0,1,10.93,10.92,9.92,9.92,0,1,0,14,14,7.73,7.73,0,1,1,10.93,10.93A25.2,25.2,0,0,1,360.76,475.8Z" fill="#66b394"/><circle cx="408.94" cy="373.39" r="17.64" fill="#78c2a4"/><path d="M408.94,398.75A25.36,25.36,0,0,1,391,355.45a7.73,7.73,0,1,1,10.93,10.92,9.92,9.92,0,0,0,14,14,7.73,7.73,0,0,1,10.93,10.93A25.34,25.34,0,0,1,408.94,398.75Z" fill="#66b394"/><circle cx="93.25" cy="440.18" r="17.64" fill="#78c2a4"/><path d="M93.25,465.55a25.37,25.37,0,0,1-17.94-43.31,7.73,7.73,0,0,1,10.93,10.92,9.92,9.92,0,1,0,14,14,7.73,7.73,0,0,1,10.93,10.93A25.24,25.24,0,0,1,93.25,465.55Z" fill="#66b394"/></g></g></svg>