<svg xmlns="http://www.w3.org/2000/svg" viewBox="0 0 472 463.56"><title>Asset 1</title><g id="Layer_2" data-name="Layer 2"><g id="Layer_1-2" data-name="Layer 1"><path d="M296.17,248.82C172.7,330.87,36.68,278.54,0,134.91,123.48,52.88,259.49,105.19,296.17,248.82Z" fill="#5f9548"/><path d="M291.25,238.36l-95.49-36.72-32.89-74-14.61,6.49,26.4,59.38-25.25-9.71-27.18-61.15-14.61,6.49,20.69,46.54L103.06,166l-18.62-41.9-14.61,6.5L82,157.86,44.35,143.4,38.6,158.33l37.61,14.46L48.93,184.92l6.49,14.61,41.9-18.63,25.24,9.72L76,211.3l6.5,14.62,61.14-27.18,25.25,9.71-59.38,26.38,6.5,14.61,74-32.88,95.49,36.72Z" fill="#68a34f"/><path d="M279.18,290C133.86,260.67,74.68,127.5,150.3,0,295.61,29.31,354.79,162.48,279.18,290Z" fill="#7eb457"/><path d="M241.54,185.61l29.07-75.56-14.92-5.75L232.36,165l-11-24.72,24-62.46L230.47,72l-18.29,47.53-11-24.71,16.46-42.79-14.92-5.75L192,74.18,175.65,37.36,161,43.85l16.37,36.83L149.54,70,143.8,84.88l42.8,16.47,11,24.71L150,107.77,144.3,122.7l62.47,24,11,24.71-60.64-23.32L151.36,163l75.57,29.07,41.55,93.48,14.61-6.49Z" fill="#88c25e"/><path d="M341.73,5.6,336.13,0l-5.59,5.55a143.72,143.72,0,0,1-44.26,29.29c-50.33,22.17-86,76.82-86,141,0,83.86,60.83,151.85,135.86,151.85S472,259.68,472,175.82C472,111.66,436.31,57,386,34.84A143.75,143.75,0,0,1,341.73,5.6Z" fill="#95573a"/><path d="M438.23,76C394.31,193.87,297.72,247.75,230.79,271.66a130.69,130.69,0,0,0,105.34,56c75,0,135.87-68,135.87-151.85A161.07,161.07,0,0,0,438.23,76Z" fill="#8f4d2e"/><path d="M224.25,199.8a169.68,169.68,0,0,0-22,1.46C213.18,273,268.87,327.67,336.13,327.67a122.75,122.75,0,0,0,39.12-6.46C367.17,253,302.68,199.8,224.25,199.8Z" fill="#8f4d2e"/><path d="M328.14,40h16V151.85h-16Z" fill="#7a3b1d"/><path d="M328.14,167.83h16v32h-16Z" fill="#7a3b1d"/><path d="M328.14,215.78h16V295.7h-16Z" fill="#7a3b1d"/><path d="M296.45,53.82a468.74,468.74,0,0,0,0,244l15.43-4.24a452.06,452.06,0,0,1,0-235.52Z" fill="#7a3b1d"/><path d="M231.92,175.65l16,.34c.8-37.66,12-69,22.7-83.28l-12.79-9.59C242.83,103.1,232.68,139.41,231.92,175.65Z" fill="#7a3b1d"/><path d="M360.39,58.06a452.06,452.06,0,0,1,0,235.52l15.42,4.24a468.53,468.53,0,0,0,0-244Z" fill="#7a3b1d"/><path d="M434.94,134l-15.52,3.79a165.9,165.9,0,0,1-18.33,122.08L415,267.63A181.54,181.54,0,0,0,434.94,134Z" fill="#7a3b1d"/><path d="M430,117.27A203.12,203.12,0,0,0,415,84l-13.94,7.8a189.1,189.1,0,0,1,13.83,30.68Z" fill="#7a3b1d"/><path d="M6.06,322.12.47,327.67,6,333.27a143.7,143.7,0,0,1,29.28,44.25c22.17,50.33,76.82,86,141,86,83.86,0,151.85-60.82,151.85-135.86s-68-135.86-151.85-135.86c-64.16,0-118.81,35.68-141,86.05A143.6,143.6,0,0,1,6.06,322.12Z" fill="#a36548"/><path d="M299.91,249C246.29,345.6,123.83,380.49,44.17,394.06a154.82,154.82,0,0,0,132.12,69.47c83.86,0,151.85-60.82,151.85-135.86A125.68,125.68,0,0,0,299.91,249Z" fill="#95573a"/><path d="M264.21,327.67a26.37,26.37,0,0,0,24.09-37c-17.24-39-60.94-66.87-112-66.87-49.2,0-94.09,26.91-111.71,67l-.17.43-.15.35a26.18,26.18,0,0,0,24.37,36.17Z" fill="#ffb531"/><path d="M266.52,327.67a26.37,26.37,0,0,1,24.06,37c-17.22,39.06-60.92,66.87-112,66.87-49.2,0-94.1-26.91-111.72-66.94l-.19-.43-.16-.35a26.18,26.18,0,0,1,24.41-36.17Z" fill="#ffa912"/><path d="M260.33,296.85l-20-12a46.73,46.73,0,0,0-26.72-6.51c-.15,0-.27-.1-.42-.11l-9.59-.54a17.79,17.79,0,0,1-15.76-9.89,15.27,15.27,0,0,1,1.06-16.18c5.19-7.14,11.86-10.19,30.56-4.7A8,8,0,0,0,224,231.6c-15.57-4.59-33-7-45.93,8.05a27.24,27.24,0,0,0-8.43-8.63,38.34,38.34,0,0,0-30.88-2.11A8,8,0,0,0,144.17,244a22.6,22.6,0,0,1,17.06.65,17.74,17.74,0,0,1,6.64,13.91,15.91,15.91,0,0,1-1.55,10.34c-4.23,6.5-14.38,7.52-24.17,8.52-2.79.28-5.5.55-8,.94a46.72,46.72,0,0,0-21.88,6.54l-20,12a8,8,0,1,0,8.23,13.7l20-12a30.83,30.83,0,0,1,31.73,0,46.74,46.74,0,0,0,48.19,0,30.83,30.83,0,0,1,31.73,0l20,12a8,8,0,1,0,8.23-13.7ZM167.62,288a29.46,29.46,0,0,0,9.59-7.34A34.14,34.14,0,0,0,185,288a30.69,30.69,0,0,1-17.33,0Z" fill="#f79900"/><path d="M265.37,347.53a8,8,0,0,0-11-2.74l-20,12a30.83,30.83,0,0,1-31.73,0,46.74,46.74,0,0,0-48.19,0,30.83,30.83,0,0,1-31.73,0l-20-12a8,8,0,1,0-8.23,13.7l20,12A46.69,46.69,0,0,0,136.45,377c2.52.38,5.22.66,8,.94,9.8,1,20,2,24.17,8.52a15.94,15.94,0,0,1,1.55,10.33,17.76,17.76,0,0,1-6.65,13.92,22.57,22.57,0,0,1-17,.66,8,8,0,0,0-5.44,15,44.29,44.29,0,0,0,14.12,2.39,31.3,31.3,0,0,0,16.74-4.46,26.89,26.89,0,0,0,8.45-8.66,32,32,0,0,0,25.53,11.6,73.19,73.19,0,0,0,20.38-3.52,8,8,0,1,0-4.51-15.33c-18.69,5.48-25.37,2.4-30.56-4.71a15.25,15.25,0,0,1-1.07-16.17,18,18,0,0,1,16.19-9.91l9.16-.52c.15,0,.27-.1.42-.11a46.73,46.73,0,0,0,26.72-6.51l20-12a8,8,0,0,0,2.76-11ZM170,367.35a30.7,30.7,0,0,1,17.41,0,33.93,33.93,0,0,0-7.79,7.29A29.64,29.64,0,0,0,170,367.35Z" fill="#f59416"/><path d="M266.52,335.66H80.39a8,8,0,1,1,0-16H266.52a8,8,0,0,1,0,16Z" fill="#f79900"/></g></g></svg>