<svg xmlns="http://www.w3.org/2000/svg" viewBox="0 0 483.05 511"><title>Asset 2</title><g id="Layer_2" data-name="Layer 2"><g id="Layer_1-2" data-name="Layer 1"><path d="M205.58,316.57,57.86,60.91,44.22,69.27l147.51,255.3a296.11,296.11,0,0,1,39.67,148V503a8,8,0,1,0,16,0V472.54A312.24,312.24,0,0,0,205.58,316.57Z" fill="#ffe09f"/><path d="M43,27.06A28.24,28.24,0,0,1,30.48,15.5L23.6,3.58a7.17,7.17,0,0,0-12.41,7.17l6.88,11.91a28.16,28.16,0,0,1,3.74,16.65c-1,11-1.11,23.72,2.53,30,5.93,10.28,20.47,13,32.46,6.07s16.9-20.87,11-31.15C64.13,38,53.06,31.7,43,27.06Z" fill="#f6d190"/><path d="M89.49,129.57c-14.75-3.95-19.39-21.86-15.26-31.13,3.49-7.86,12-13.65,20-18.54a18.72,18.72,0,0,0,8.25-21c-1.27-4.59-2.47-8.85-2.83-10a7.16,7.16,0,1,1,13.64-4.35c2.61,8.16,15.38,49.63,11.33,64.73a28.65,28.65,0,0,1-35.09,20.26Z" fill="#f6d190"/><path d="M100.89,130.28a28.88,28.88,0,0,0,10.34-3.57,28.48,28.48,0,0,0,13.35-17.4c4-15.1-8.72-56.57-11.33-64.73a7.16,7.16,0,1,0-13.64,4.35c.36,1.14,1.7,5.36,2.83,10,3.33,13.55,7,34.23,5.59,45.46A102.28,102.28,0,0,1,100.89,130.28Z" fill="#ecbd83"/><path d="M74,148.2a28.43,28.43,0,0,1-21.75,2.86C37.16,147,7.63,115.22,1.87,108.89a7.16,7.16,0,1,1,10.59-9.64c.81.88,3.89,4,7.24,7.45A18.7,18.7,0,0,0,42,110c8.23-4.47,17.49-8.93,26-8,10.1,1.06,23.29,14,19.33,28.78A28.42,28.42,0,0,1,74,148.2Z" fill="#f6d190"/><path d="M78,131.41a29.11,29.11,0,0,1-21.74,2.86c-11-2.7-26.5-17.92-36.57-27.57-3.45-3.3-6.43-6.57-7.24-7.45a7.16,7.16,0,1,0-10.59,9.64c5.76,6.33,35.29,38.12,50.39,42.17a28.65,28.65,0,0,0,35.1-20.26,21.15,21.15,0,0,0,.44-8.8A29.11,29.11,0,0,1,78,131.41Z" fill="#ecbd83"/><path d="M125.31,191.62c-14.75-4-19.38-21.86-15.26-31.13,3.5-7.87,12-13.65,20-18.55a18.68,18.68,0,0,0,8.24-21c-1.27-4.59-2.47-8.85-2.83-10a7.16,7.16,0,1,1,13.65-4.35c2.6,8.16,15.37,49.63,11.32,64.73a28.63,28.63,0,0,1-35.09,20.26Z" fill="#f6d190"/><path d="M136.77,192.32a28.75,28.75,0,0,0,10.29-3.56,28.46,28.46,0,0,0,13.34-17.4c4-15.1-8.72-56.57-11.32-64.73A7.16,7.16,0,1,0,135.43,111c.36,1.14,1.7,5.36,2.83,10,3.33,13.55,7,34.23,5.6,45.46A103.76,103.76,0,0,1,136.77,192.32Z" fill="#ecbd83"/><path d="M109.83,210.25a28.45,28.45,0,0,1-21.74,2.86c-15.1-4.05-44.63-35.84-50.4-42.17a7.16,7.16,0,1,1,10.59-9.65c.81.89,3.9,4.05,7.24,7.45a18.71,18.71,0,0,0,22.28,3.35c8.24-4.47,17.49-8.93,26.05-8,10.09,1.06,23.28,14,19.33,28.78A28.48,28.48,0,0,1,109.83,210.25Z" fill="#f6d190"/><path d="M113.84,193.46a29.18,29.18,0,0,1-21.75,2.86c-11-2.7-26.5-17.92-36.57-27.58-3.44-3.29-6.43-6.56-7.24-7.45a7.16,7.16,0,1,0-10.59,9.65c5.77,6.33,35.29,38.12,50.4,42.17a28.65,28.65,0,0,0,35.09-20.26,20.83,20.83,0,0,0,.44-8.8A29.17,29.17,0,0,1,113.84,193.46Z" fill="#ecbd83"/><path d="M161.13,253.65c-14.75-4-19.39-21.86-15.26-31.13,3.49-7.86,12-13.64,20-18.54a18.72,18.72,0,0,0,8.24-21c-1.28-4.59-2.47-8.85-2.83-10a7.16,7.16,0,1,1,13.64-4.35c2.61,8.16,15.37,49.63,11.33,64.73a28.65,28.65,0,0,1-35.09,20.26Z" fill="#f6d190"/><path d="M172.55,254.36a28.78,28.78,0,0,0,10.32-3.57,28.48,28.48,0,0,0,13.35-17.4c4-15.1-8.72-56.57-11.33-64.73A7.16,7.16,0,1,0,171.25,173c.36,1.15,1.69,5.36,2.83,10,3.33,13.55,7,34.23,5.59,45.46A102.73,102.73,0,0,1,172.55,254.36Z" fill="#ecbd83"/><path d="M145.64,272.28a28.4,28.4,0,0,1-21.74,2.86C108.8,271.09,79.27,239.3,73.51,233a7.16,7.16,0,1,1,10.59-9.65c.8.89,3.9,4.05,7.23,7.45a18.7,18.7,0,0,0,22.29,3.35c8.24-4.46,17.49-8.92,26-8,10.09,1.06,23.28,14,19.33,28.78A28.44,28.44,0,0,1,145.64,272.28Z" fill="#f6d190"/><path d="M149.65,255.49a29.16,29.16,0,0,1-21.74,2.86c-11-2.7-26.51-17.92-36.58-27.58-3.44-3.29-6.43-6.56-7.23-7.45A7.16,7.16,0,1,0,73.51,233c5.76,6.33,35.29,38.12,50.39,42.17A28.65,28.65,0,0,0,159,254.88a20.83,20.83,0,0,0,.44-8.8A29.08,29.08,0,0,1,149.65,255.49Z" fill="#ecbd83"/><path d="M197,315.69c-14.75-3.94-19.38-21.85-15.26-31.13,3.49-7.86,12-13.64,20-18.53a18.72,18.72,0,0,0,8.24-21c-1.28-4.59-2.47-8.85-2.83-10a7.16,7.16,0,1,1,13.65-4.35c2.6,8.16,15.37,49.62,11.32,64.73A28.63,28.63,0,0,1,197,315.69Z" fill="#f6d190"/><path d="M208.38,316.41a28.74,28.74,0,0,0,10.31-3.57A28.44,28.44,0,0,0,232,295.44c4.05-15.11-8.72-56.57-11.32-64.73a7.16,7.16,0,1,0-13.65,4.35c.36,1.14,1.7,5.36,2.83,10,3.33,13.55,7,34.23,5.6,45.46A103.22,103.22,0,0,1,208.38,316.41Z" fill="#ecbd83"/><path d="M181.47,334.33a28.52,28.52,0,0,1-21.75,2.86c-15.1-4.05-44.62-35.84-50.39-42.17a7.16,7.16,0,0,1,10.59-9.65c.81.89,3.9,4.05,7.24,7.46a18.73,18.73,0,0,0,22.29,3.34c8.23-4.47,17.48-8.93,26-8,10.1,1.06,23.29,14,19.33,28.78A28.46,28.46,0,0,1,181.47,334.33Z" fill="#f6d190"/><path d="M185.47,317.54a29.2,29.2,0,0,1-21.74,2.86c-11-2.7-26.5-17.92-36.57-27.57-3.45-3.31-6.43-6.57-7.24-7.46A7.16,7.16,0,0,0,109.33,295c5.77,6.33,35.29,38.12,50.39,42.17a28.63,28.63,0,0,0,35.09-20.26,20.87,20.87,0,0,0,.45-8.81A29,29,0,0,1,185.47,317.54Z" fill="#ecbd83"/><path d="M36.74,62.17c-3.63-6.3-3.52-19-2.52-30A28.31,28.31,0,0,0,30.48,15.5L23.6,3.58a7.17,7.17,0,0,0-12.41,7.17l6.88,11.91a28.16,28.16,0,0,1,3.74,16.65c-1,11-1.11,23.72,2.53,30,5.93,10.28,20.47,13,32.46,6.07A28.59,28.59,0,0,0,62.58,71C52.31,73.91,41.61,70.59,36.74,62.17Z" fill="#ecbd83"/><path d="M231.4,472.54v21.39l15.79-27.35q-.27-14.41-1.88-28.72l-14.24,24.66C231.18,465.86,231.4,469.19,231.4,472.54Z" fill="#f6d190"/><path d="M199.42,511a8,8,0,0,1-6.92-12L422.3,101a8,8,0,0,1,13.85,8L206.35,507A8,8,0,0,1,199.42,511Z" fill="#ffe09f"/><path d="M461.24,74.44A28.21,28.21,0,0,1,465,57.79l6.88-11.92a7.16,7.16,0,0,0-12.41-7.16l-6.87,11.92A28.22,28.22,0,0,1,440,62.19c-10,4.64-21.09,10.9-24.73,17.2-5.94,10.28-1,24.23,11,31.15s26.52,4.2,32.46-6.08C462.35,98.16,462.23,85.44,461.24,74.44Z" fill="#f6d190"/><path d="M395.69,165.93c-3.95-14.75,9.24-27.72,19.33-28.78,8.56-.91,17.81,3.55,26,8a18.7,18.7,0,0,0,22.29-3.35c3.34-3.4,6.43-6.56,7.24-7.45A7.16,7.16,0,0,1,481.18,144c-5.77,6.33-35.29,38.12-50.4,42.17a28.65,28.65,0,0,1-35.09-20.26Z" fill="#f6d190"/><path d="M400.8,176.2a28.73,28.73,0,0,0,30,10c15.1-4.05,44.62-35.84,50.39-42.17a7.16,7.16,0,0,0-10.59-9.65c-.81.89-3.8,4.15-7.24,7.45-10.07,9.66-26.13,23.2-36.57,27.58A103.65,103.65,0,0,1,400.8,176.2Z" fill="#ecbd83"/><path d="M371.82,161.84a28.44,28.44,0,0,1-13.35-17.4c-4.05-15.1,8.72-56.57,11.32-64.73a7.16,7.16,0,0,1,13.65,4.35c-.37,1.14-1.56,5.4-2.84,10a18.72,18.72,0,0,0,8.25,21c8,4.9,16.47,10.68,20,18.55,4.12,9.27-.52,27.18-15.26,31.13A28.49,28.49,0,0,1,371.82,161.84Z" fill="#f6d190"/><path d="M388.36,156.91A29.14,29.14,0,0,1,375,139.51c-3.16-10.87,2.27-31.91,5.59-45.46,1.14-4.63,2.47-8.85,2.84-10a7.16,7.16,0,0,0-13.65-4.35c-2.6,8.16-15.37,49.63-11.32,64.73a28.65,28.65,0,0,0,35.09,20.26,20.83,20.83,0,0,0,7.84-4A29,29,0,0,1,388.36,156.91Z" fill="#ecbd83"/><path d="M359.87,228c-3.95-14.75,9.24-27.72,19.33-28.78,8.55-.91,17.8,3.55,26,8a18.72,18.72,0,0,0,22.29-3.35c3.33-3.4,6.43-6.56,7.23-7.45a7.16,7.16,0,0,1,10.59,9.65c-5.76,6.33-35.29,38.12-50.39,42.17A28.65,28.65,0,0,1,359.87,228Z" fill="#f6d190"/><path d="M365,238.25a28.72,28.72,0,0,0,30,10c15.1-4.05,44.63-35.84,50.39-42.17a7.16,7.16,0,0,0-10.59-9.65c-.8.89-3.79,4.15-7.23,7.45-10.08,9.66-26.14,23.2-36.58,27.58A103.52,103.52,0,0,1,365,238.25Z" fill="#ecbd83"/><path d="M336,223.88a28.45,28.45,0,0,1-13.35-17.4c-4-15.1,8.72-56.56,11.33-64.72a7.16,7.16,0,1,1,13.64,4.34c-.36,1.15-1.55,5.4-2.83,10a18.7,18.7,0,0,0,8.25,21c8,4.9,16.47,10.68,20,18.54,4.13,9.28-.51,27.18-15.26,31.13A28.41,28.41,0,0,1,336,223.88Z" fill="#f6d190"/><path d="M352.54,219a29.14,29.14,0,0,1-13.35-17.4c-3.16-10.87,2.26-31.91,5.59-45.46,1.14-4.63,2.47-8.85,2.83-10A7.16,7.16,0,1,0,334,141.76c-2.61,8.16-15.37,49.62-11.33,64.72a28.63,28.63,0,0,0,35.09,20.26,20.88,20.88,0,0,0,7.85-4A28.91,28.91,0,0,1,352.54,219Z" fill="#ecbd83"/><path d="M324.05,290c-3.95-14.74,9.24-27.71,19.33-28.78,8.56-.9,17.81,3.56,26.05,8a18.72,18.72,0,0,0,22.28-3.34c3.34-3.41,6.43-6.57,7.24-7.46a7.16,7.16,0,1,1,10.59,9.65c-5.77,6.33-35.29,38.12-50.4,42.17A28.65,28.65,0,0,1,324.05,290Z" fill="#f6d190"/><path d="M329.17,300.28a28.69,28.69,0,0,0,30,10c15.1-4,44.62-35.84,50.39-42.17A7.16,7.16,0,1,0,399,258.45c-.81.89-3.79,4.15-7.24,7.46-10.07,9.65-26.13,23.19-36.57,27.57A103.63,103.63,0,0,1,329.17,300.28Z" fill="#ecbd83"/><path d="M300.17,285.92a28.45,28.45,0,0,1-13.34-17.41c-4.05-15.1,8.72-56.56,11.32-64.72a7.16,7.16,0,1,1,13.65,4.35c-.36,1.14-1.56,5.4-2.83,10a18.7,18.7,0,0,0,8.24,21c8,4.89,16.47,10.67,20,18.53,4.12,9.28-.51,27.19-15.26,31.13A28.48,28.48,0,0,1,300.17,285.92Z" fill="#f6d190"/><path d="M316.72,281a29.17,29.17,0,0,1-13.35-17.4c-3.16-10.87,2.27-31.91,5.6-45.46,1.13-4.63,2.47-8.85,2.83-10a7.16,7.16,0,0,0-13.65-4.35c-2.6,8.16-15.37,49.62-11.32,64.73a28.63,28.63,0,0,0,35.09,20.25,20.72,20.72,0,0,0,7.85-4A29.09,29.09,0,0,1,316.72,281Z" fill="#ecbd83"/><path d="M288.23,352.06c-4-14.75,9.23-27.72,19.33-28.78,8.56-.91,17.81,3.55,26,8A18.7,18.7,0,0,0,355.89,328c3.34-3.4,6.43-6.56,7.24-7.45a7.16,7.16,0,1,1,10.58,9.65c-5.76,6.33-35.29,38.12-50.39,42.17a28.65,28.65,0,0,1-35.09-20.26Z" fill="#f6d190"/><path d="M293.34,362.32a28.79,28.79,0,0,0,8.24,7.14,28.45,28.45,0,0,0,21.74,2.85c15.1-4,44.63-35.83,50.4-42.17a7.16,7.16,0,0,0-10.59-9.64c-.81.89-3.8,4.15-7.24,7.45-10.07,9.66-26.13,23.2-36.57,27.58A103.37,103.37,0,0,1,293.34,362.32Z" fill="#ecbd83"/><path d="M264.35,348A28.46,28.46,0,0,1,251,330.56c-4-15.1,8.73-56.57,11.33-64.72A7.16,7.16,0,1,1,276,270.19c-.37,1.14-1.56,5.4-2.84,10a18.7,18.7,0,0,0,8.25,21c8,4.9,16.47,10.68,20,18.54,4.12,9.28-.52,27.19-15.26,31.13A28.43,28.43,0,0,1,264.35,348Z" fill="#f6d190"/><path d="M280.9,343a29.14,29.14,0,0,1-13.35-17.4c-3.16-10.87,2.27-31.91,5.59-45.46,1.14-4.63,2.47-8.85,2.84-10a7.16,7.16,0,1,0-13.65-4.35C259.73,274,247,315.46,251,330.56a28.67,28.67,0,0,0,35.1,20.27,21,21,0,0,0,7.84-4A29,29,0,0,1,280.9,343Z" fill="#ecbd83"/><path d="M427.69,86.55c3.64-6.3,14.71-12.56,24.73-17.2A28.19,28.19,0,0,0,465,57.79l6.88-11.92a7.16,7.16,0,0,0-12.41-7.16l-6.87,11.92A28.22,28.22,0,0,1,440,62.19c-10,4.64-21.09,10.9-24.73,17.2-5.94,10.28-1,24.23,11,31.15a28.59,28.59,0,0,0,6.65,2.81C425.28,105.88,422.83,95,427.69,86.55Z" fill="#ecbd83"/></g></g></svg>