<svg xmlns="http://www.w3.org/2000/svg" viewBox="0 0 304.09 511"><title>Asset 3</title><g id="Layer_2" data-name="Layer 2"><g id="Layer_1-2" data-name="Layer 1"><path d="M197.63,110.36l33.31-61.87c5.12-9.35,6.15-20.48,2.62-28.43h0c-5.35-12.06-27.79-16-38-4.57L150.79,76Z" fill="#96d7a5"/><path d="M134.05,73.78C110,97.81-28.08,270.76,5.13,439.85c10,50.79,65.38,71.7,103.9,36.09,14.74-13.64,25.7-34.31,26.38-65.55,2.15-100-.68-168.3,52-265.34C222.76,80,170.35,37.56,134.05,73.78Z" fill="#b4e6a0"/><path d="M36.48,450.19C6.21,273.58,148.52,89.7,173.24,64.05c.48-.49,1-.94,1.5-1.41-12.42-4.76-27.6-1.92-40.69,11.14C110,97.81-28.08,270.76,5.13,439.85c6.18,31.5,29.93,51.51,56.21,53.67C49.06,484,39.73,469.19,36.48,450.19Z" fill="#96d7a5"/><path d="M135.41,410.39c2.15-100-.68-168.3,52-265.34,13.6-25,14.14-46.65,7.67-61.79C153.34,149.91,72,310.71,108.65,456.19A79.87,79.87,0,0,0,114,470.87C126.19,457.33,134.81,438,135.41,410.39Z" fill="#cdf5a0"/><path d="M245.82,102.05l8.5-69.75c1.36-10.58-1.73-21.32-7.91-27.43v0c-9.37-9.28-31.72-4.8-37.09,9.6L189.68,87.07Z" fill="#96d7a5"/><path d="M209.31,14.45,189.68,87.07,215,93.82,236.78.3C226.13-1.27,213.25,3.88,209.31,14.45Z" fill="#78c3a5"/><path d="M173.28,91.12C159.59,122.27,94,333.6,186.45,479c27.78,43.68,87,43,109.91-4.21,8.77-18.07,11.46-41.3.72-70.65-34.39-93.91-61.9-156.51-48.15-266.07C258.16,64.58,193.91,44.17,173.28,91.12Z" fill="#b4e6a0"/><path d="M219.42,477.22c-92.48-153.48-26.86-376.54-13.17-409.43.26-.63.54-1.25.81-1.86-13.29.08-26.34,8.26-33.78,25.19C159.59,122.27,94,333.6,186.45,479c17.23,27.09,46.6,37.1,71.86,29.54C243.41,504.15,229.37,493.73,219.42,477.22Z" fill="#96d7a5"/><path d="M297.08,404.14c-34.39-93.9-61.9-156.51-48.15-266.07,3.55-28.27-3.81-48.59-15.34-60.34C219,155,201.71,334.38,288.83,456.54a79.26,79.26,0,0,0,10.34,11.71C305.57,451.22,306.56,430.06,297.08,404.14Z" fill="#cdf5a0"/></g></g></svg>